SplineFontDB: 3.2
FontName: Kilroy3-8ptBold
FullName: Kilroy3 8pt Bold
FamilyName: Kilroy3 8pt
Weight: Bold
Copyright: Copyright 2020 The Roboto Serif Project Authors (https://github.com/googlefonts/RobotoSerif) OFL
Version: 1.008
ItalicAngle: 0
UnderlinePosition: -200
UnderlineWidth: 100
Ascent: 800
Descent: 200
InvalidEm: 0
sfntRevision: 0x0001020c
LayerCount: 2
Layer: 0 1 "Back" 1
Layer: 1 1 "Fore" 0
XUID: [1021 1018 -1064020043 7776]
StyleMap: 0x0040
FSType: 0
OS2Version: 4
OS2_WeightWidthSlopeOnly: 0
OS2_UseTypoMetrics: 1
CreationTime: 1586430965
ModificationTime: 1751860612
PfmFamily: 81
TTFWeight: 750
TTFWidth: 5
LineGap: 0
VLineGap: 0
Panose: 0 0 0 0 0 0 0 0 0 0
OS2TypoAscent: 927
OS2TypoAOffset: 0
OS2TypoDescent: -244
OS2TypoDOffset: 0
OS2TypoLinegap: 0
OS2WinAscent: 1048
OS2WinAOffset: 0
OS2WinDescent: 251
OS2WinDOffset: 0
HheadAscent: 927
HheadAOffset: 0
HheadDescent: -244
HheadDOffset: 0
OS2SubXSize: 650
OS2SubYSize: 600
OS2SubXOff: 0
OS2SubYOff: 75
OS2SupXSize: 650
OS2SupYSize: 600
OS2SupXOff: 0
OS2SupYOff: 350
OS2StrikeYSize: 100
OS2StrikeYPos: 311
OS2CapHeight: 710
OS2XHeight: 518
OS2Vendor: 'COMM'
OS2CodePages: 20000193.00000000
OS2UnicodeRanges: a10000ef.4000267a.00000000.00000000
Lookup: 5 0 0 "'locl' Localized Forms in Latin lookup 0" { "'locl' Localized Forms in Latin lookup 0 subtable"  } ['locl' ('latn' <'AZE ' 'CRT ' 'TRK ' > ) ]
Lookup: 1 0 0 "Single Substitution lookup 1" { "Single Substitution lookup 1 subtable"  } []
Lookup: 5 0 0 "'locl' Localized Forms in Latin lookup 2" { "'locl' Localized Forms in Latin lookup 2 subtable"  } ['locl' ('latn' <'PLK ' > ) ]
Lookup: 1 0 0 "Single Substitution lookup 3" { "Single Substitution lookup 3 subtable"  } []
Lookup: 6 0 0 "'locl' Localized Forms in Latin lookup 4" { "'locl' Localized Forms in Latin lookup 4 subtable"  } ['locl' ('latn' <'CAT ' > ) ]
Lookup: 4 0 0 "Ligature Substitution lookup 5" { "Ligature Substitution lookup 5 subtable"  } []

StartChar: .notdef
Encoding: 65536 -1 0
Width: 400
GlyphClass: 1
Flags: W
LayerCount: 2
Fore
SplineSet
0 0 m 1,0,-1
 0 700 l 1,1,-1
 400 700 l 1,2,-1
 400 0 l 1,3,-1
 0 0 l 1,0,-1
50 650 m 1,4,-1
 50 50 l 1,5,-1
 350 50 l 1,6,-1
 350 650 l 1,7,-1
 50 650 l 1,4,-1
EndSplineSet
EndChar

StartChar: A
Encoding: 65 65 6
Width: 777
GlyphClass: 2
Flags: W
AnchorPoint: "Anchor-2" 615 0 basechar 0
AnchorPoint: "Anchor-1" 388 0 basechar 0
AnchorPoint: "Anchor-0" 388 721 basechar 0
LayerCount: 2
Fore
SplineSet
198 298 m 1,0,-1
 471 298 l 1,1,-1
 483 189 l 1,2,-1
 188 189 l 1,3,-1
 198 298 l 1,0,-1
327 654 m 1,4,-1
 366 653 l 1,5,-1
 211 143 l 2,6,7
 211 138 211 138 213.5 132.5 c 128,-1,8
 216 127 216 127 225 124 c 128,-1,9
 234 121 234 121 253 121 c 2,10,-1
 262 121 l 1,11,-1
 262 0 l 1,12,-1
 26 0 l 1,13,-1
 26 121 l 1,14,-1
 32 121 l 2,15,16
 50 121 50 121 68.5 134 c 128,-1,17
 87 147 87 147 98 185 c 2,18,-1
 263 718 l 1,19,-1
 502 718 l 1,20,-1
 668 185 l 2,21,22
 679 147 679 147 700.5 134 c 128,-1,23
 722 121 722 121 747 121 c 2,24,-1
 752 121 l 1,25,-1
 752 0 l 1,26,-1
 417 0 l 1,27,-1
 417 121 l 1,28,-1
 426 121 l 2,29,30
 450 121 450 121 462 122.5 c 128,-1,31
 474 124 474 124 478.5 126 c 128,-1,32
 483 128 483 128 483 131 c 2,33,-1
 327 654 l 1,4,-1
EndSplineSet
EndChar

StartChar: Aogonek
Encoding: 260 260 15
Width: 777
GlyphClass: 1
Flags: W
LayerCount: 2
Fore
SplineSet
196 294 m 1,0,-1
 470 294 l 1,1,-1
 481 213 l 1,2,-1
 187 213 l 1,3,-1
 196 294 l 1,0,-1
579 47 m 1,4,-1
 621 8 l 1,5,6
 563 -31 563 -31 534 -53.5 c 128,-1,7
 505 -76 505 -76 495 -90.5 c 128,-1,8
 485 -105 485 -105 485 -122 c 0,9,10
 485 -140 485 -140 496 -151 c 128,-1,11
 507 -162 507 -162 532 -162 c 0,12,13
 555 -162 555 -162 574 -150 c 128,-1,14
 593 -138 593 -138 608 -124 c 1,15,-1
 661 -182 l 1,16,17
 632 -214 632 -214 592 -233 c 128,-1,18
 552 -252 552 -252 482 -252 c 0,19,20
 408 -252 408 -252 364 -228 c 128,-1,21
 320 -204 320 -204 320 -145 c 0,22,23
 320 -117 320 -117 330.5 -96 c 128,-1,24
 341 -75 341 -75 369 -55 c 128,-1,25
 397 -35 397 -35 448 -10.5 c 128,-1,26
 499 14 499 14 579 47 c 1,4,-1
752 0 m 1,27,-1
 521 0 l 1,28,-1
 326 658 l 1,29,-1
 363 651 l 1,30,-1
 210 144 l 2,31,32
 210 137 210 137 213 131.5 c 128,-1,33
 216 126 216 126 225 123.5 c 128,-1,34
 234 121 234 121 253 121 c 2,35,-1
 261 121 l 1,36,-1
 261 0 l 1,37,-1
 26 0 l 1,38,-1
 26 121 l 1,39,-1
 32 121 l 2,40,41
 51 121 51 121 68.5 134.5 c 128,-1,42
 86 148 86 148 97 186 c 2,43,-1
 261 722 l 1,44,-1
 500 722 l 1,45,-1
 666 185 l 2,46,47
 678 147 678 147 700 134 c 128,-1,48
 722 121 722 121 746 121 c 2,49,-1
 752 121 l 1,50,-1
 752 0 l 1,27,-1
EndSplineSet
EndChar

StartChar: Acaron
Encoding: 461 461 16
Width: 777
GlyphClass: 1
Flags: W
LayerCount: 2
Fore
SplineSet
321 790 m 1,0,-1
 448 790 l 1,1,-1
 594 943 l 1,2,-1
 594 998 l 1,3,-1
 513 998 l 1,4,-1
 348 890 l 1,5,-1
 428 891 l 1,6,-1
 258 998 l 1,7,-1
 175 998 l 1,8,-1
 175 943 l 1,9,-1
 321 790 l 1,0,-1
198 298 m 1,10,-1
 471 298 l 1,11,-1
 483 189 l 1,12,-1
 188 189 l 1,13,-1
 198 298 l 1,10,-1
327 654 m 1,14,-1
 366 653 l 1,15,-1
 211 144 l 2,16,17
 211 138 211 138 213.5 132.5 c 128,-1,18
 216 127 216 127 225 124 c 128,-1,19
 234 121 234 121 253 121 c 2,20,-1
 262 121 l 1,21,-1
 262 0 l 1,22,-1
 26 0 l 1,23,-1
 26 121 l 1,24,-1
 32 121 l 2,25,26
 50 121 50 121 68 134 c 128,-1,27
 86 147 86 147 98 185 c 2,28,-1
 263 718 l 1,29,-1
 502 718 l 1,30,-1
 668 185 l 2,31,32
 679 147 679 147 700.5 134 c 128,-1,33
 722 121 722 121 746 121 c 2,34,-1
 752 121 l 1,35,-1
 752 0 l 1,36,-1
 417 0 l 1,37,-1
 417 121 l 1,38,-1
 426 121 l 2,39,40
 450 121 450 121 462 122.5 c 128,-1,41
 474 124 474 124 478.5 126.5 c 128,-1,42
 483 129 483 129 483 132 c 2,43,-1
 327 654 l 1,14,-1
EndSplineSet
EndChar

StartChar: Adblgrave
Encoding: 512 512 18
Width: 777
GlyphClass: 1
Flags: W
LayerCount: 2
Fore
SplineSet
540 927 m 2,0,-1
 585 838 l 1,1,-1
 585 783 l 1,2,-1
 517 783 l 1,3,-1
 434 830 l 2,4,5
 402 850 402 850 378.5 876.5 c 128,-1,6
 355 903 355 903 355 939 c 0,7,8
 355 970 355 970 377 989.5 c 128,-1,9
 399 1009 399 1009 436 1009 c 0,10,11
 463 1009 463 1009 482.5 998 c 128,-1,12
 502 987 502 987 516 968.5 c 128,-1,13
 530 950 530 950 540 927 c 2,0,-1
304 927 m 2,14,-1
 347 838 l 1,15,-1
 347 783 l 1,16,-1
 279 783 l 1,17,-1
 197 830 l 2,18,19
 164 850 164 850 140.5 876.5 c 128,-1,20
 117 903 117 903 117 939 c 0,21,22
 117 970 117 970 139 989.5 c 128,-1,23
 161 1009 161 1009 198 1009 c 0,24,25
 225 1009 225 1009 244.5 998 c 128,-1,26
 264 987 264 987 278.5 968.5 c 128,-1,27
 293 950 293 950 304 927 c 2,14,-1
198 298 m 1,28,-1
 471 298 l 1,29,-1
 483 189 l 1,30,-1
 188 189 l 1,31,-1
 198 298 l 1,28,-1
327 654 m 1,32,-1
 366 653 l 1,33,-1
 211 144 l 2,34,35
 211 138 211 138 213.5 132.5 c 128,-1,36
 216 127 216 127 225 124 c 128,-1,37
 234 121 234 121 253 121 c 2,38,-1
 262 121 l 1,39,-1
 262 0 l 1,40,-1
 26 0 l 1,41,-1
 26 121 l 1,42,-1
 32 121 l 2,43,44
 50 121 50 121 68 134 c 128,-1,45
 86 147 86 147 98 185 c 2,46,-1
 263 718 l 1,47,-1
 502 718 l 1,48,-1
 668 185 l 2,49,50
 679 147 679 147 700.5 134 c 128,-1,51
 722 121 722 121 746 121 c 2,52,-1
 752 121 l 1,53,-1
 752 0 l 1,54,-1
 417 0 l 1,55,-1
 417 121 l 1,56,-1
 426 121 l 2,57,58
 450 121 450 121 462 122.5 c 128,-1,59
 474 124 474 124 478.5 126.5 c 128,-1,60
 483 129 483 129 483 132 c 2,61,-1
 327 654 l 1,32,-1
EndSplineSet
EndChar

StartChar: Ainvertedbreve
Encoding: 514 514 19
Width: 777
GlyphClass: 1
Flags: W
LayerCount: 2
Fore
SplineSet
371 974 m 0,0,1
 295 974 295 974 248 953.5 c 128,-1,2
 201 933 201 933 179 888.5 c 128,-1,3
 157 844 157 844 157 771 c 1,4,-1
 271 771 l 1,5,6
 273 803 273 803 281.5 820 c 128,-1,7
 290 837 290 837 310.5 844 c 128,-1,8
 331 851 331 851 369 851 c 256,9,10
 407 851 407 851 427 844 c 128,-1,11
 447 837 447 837 456 820 c 128,-1,12
 465 803 465 803 467 771 c 1,13,-1
 586 771 l 1,14,15
 586 844 586 844 563.5 888.5 c 128,-1,16
 541 933 541 933 493.5 953.5 c 128,-1,17
 446 974 446 974 371 974 c 0,0,1
198 298 m 1,18,-1
 471 298 l 1,19,-1
 483 189 l 1,20,-1
 188 189 l 1,21,-1
 198 298 l 1,18,-1
327 654 m 1,22,-1
 366 653 l 1,23,-1
 211 144 l 2,24,25
 211 138 211 138 213.5 132.5 c 128,-1,26
 216 127 216 127 225 124 c 128,-1,27
 234 121 234 121 253 121 c 2,28,-1
 262 121 l 1,29,-1
 262 0 l 1,30,-1
 26 0 l 1,31,-1
 26 121 l 1,32,-1
 32 121 l 2,33,34
 50 121 50 121 68 134 c 128,-1,35
 86 147 86 147 98 185 c 2,36,-1
 263 718 l 1,37,-1
 502 718 l 1,38,-1
 668 185 l 2,39,40
 679 147 679 147 700.5 134 c 128,-1,41
 722 121 722 121 746 121 c 2,42,-1
 752 121 l 1,43,-1
 752 0 l 1,44,-1
 417 0 l 1,45,-1
 417 121 l 1,46,-1
 426 121 l 2,47,48
 450 121 450 121 462 122.5 c 128,-1,49
 474 124 474 124 478.5 126.5 c 128,-1,50
 483 129 483 129 483 132 c 2,51,-1
 327 654 l 1,22,-1
EndSplineSet
EndChar

StartChar: B
Encoding: 66 66 32
Width: 777
GlyphClass: 2
Flags: W
AnchorPoint: "Anchor-0" 319 741 basechar 0
LayerCount: 2
Fore
SplineSet
459 710 m 2,0,1
 518 710 518 710 563 701 c 128,-1,2
 608 692 608 692 638 671.5 c 128,-1,3
 668 651 668 651 683 619 c 128,-1,4
 698 587 698 587 698 542 c 0,5,6
 698 488 698 488 674 453.5 c 128,-1,7
 650 419 650 419 603.5 401.5 c 128,-1,8
 557 384 557 384 489 379 c 1,9,-1
 496 409 l 1,10,-1
 496 332 l 1,11,-1
 488 370 l 1,12,13
 564 362 564 362 617 343.5 c 128,-1,14
 670 325 670 325 697.5 290 c 128,-1,15
 725 255 725 255 725 196 c 0,16,17
 725 145 725 145 708.5 107.5 c 128,-1,18
 692 70 692 70 659 46.5 c 128,-1,19
 626 23 626 23 577.5 11.5 c 128,-1,20
 529 0 529 0 465 0 c 2,21,-1
 43 0 l 1,22,-1
 43 121 l 1,23,-1
 54 121 l 2,24,25
 78 121 78 121 94.5 128 c 128,-1,26
 111 135 111 135 111 157 c 2,27,-1
 111 553 l 2,28,29
 111 575 111 575 94.5 582 c 128,-1,30
 78 589 78 589 54 589 c 2,31,-1
 43 589 l 1,32,-1
 43 710 l 1,33,-1
 459 710 l 2,0,1
253 426 m 1,34,-1
 415 426 l 2,35,36
 445 426 445 426 464 434.5 c 128,-1,37
 483 443 483 443 492.5 462.5 c 128,-1,38
 502 482 502 482 502 515 c 0,39,40
 502 539 502 539 493 556.5 c 128,-1,41
 484 574 484 574 465 583.5 c 128,-1,42
 446 593 446 593 417 593 c 2,43,-1
 306 593 l 1,44,-1
 306 117 l 1,45,-1
 422 117 l 2,46,47
 457 117 457 117 479.5 128 c 128,-1,48
 502 139 502 139 513.5 161.5 c 128,-1,49
 525 184 525 184 525 216 c 0,50,51
 525 250 525 250 512.5 272 c 128,-1,52
 500 294 500 294 474.5 304.5 c 128,-1,53
 449 315 449 315 410 315 c 2,54,-1
 253 315 l 1,55,-1
 253 426 l 1,34,-1
EndSplineSet
EndChar

StartChar: C
Encoding: 67 67 33
Width: 777
GlyphClass: 2
Flags: W
AnchorPoint: "Anchor-1" 411 0 basechar 0
AnchorPoint: "Anchor-0" 411 741 basechar 0
LayerCount: 2
Fore
SplineSet
422 610 m 256,0,1
 375 610 375 610 342.5 597.5 c 128,-1,2
 310 585 310 585 290 555.5 c 128,-1,3
 270 526 270 526 261 477 c 128,-1,4
 252 428 252 428 252 355 c 0,5,6
 252 280 252 280 262 230 c 128,-1,7
 272 180 272 180 292.5 151.5 c 128,-1,8
 313 123 313 123 346 111 c 128,-1,9
 379 99 379 99 425 99 c 0,10,11
 484 99 484 99 522 117 c 128,-1,12
 560 135 560 135 584 170 c 128,-1,13
 608 205 608 205 624 256 c 1,14,-1
 726 211 l 1,15,16
 703 135 703 135 662.5 82.5 c 128,-1,17
 622 30 622 30 558.5 2.5 c 128,-1,18
 495 -25 495 -25 403 -25 c 0,19,20
 323 -25 323 -25 258 -2 c 128,-1,21
 193 21 193 21 146 68 c 128,-1,22
 99 115 99 115 73.5 186.5 c 128,-1,23
 48 258 48 258 48 355 c 0,24,25
 48 454 48 454 74 526 c 128,-1,26
 100 598 100 598 147 644 c 128,-1,27
 194 690 194 690 258 712.5 c 128,-1,28
 322 735 322 735 397 735 c 0,29,30
 473 735 473 735 523 705 c 128,-1,31
 573 675 573 675 601.5 619.5 c 128,-1,32
 630 564 630 564 637 486 c 1,33,-1
 591 537 l 1,34,-1
 611 720 l 1,35,-1
 715 720 l 1,36,-1
 715 460 l 1,37,-1
 592 460 l 1,38,39
 581 505 581 505 559 538.5 c 128,-1,40
 537 572 537 572 503 591 c 128,-1,41
 469 610 469 610 422 610 c 256,0,1
EndSplineSet
EndChar

StartChar: Ccaron
Encoding: 268 268 38
Width: 777
GlyphClass: 1
Flags: W
LayerCount: 2
Fore
SplineSet
339 790 m 1,0,-1
 466 790 l 1,1,-1
 613 943 l 1,2,-1
 613 998 l 1,3,-1
 532 998 l 1,4,-1
 366 890 l 1,5,-1
 447 891 l 1,6,-1
 277 998 l 1,7,-1
 193 998 l 1,8,-1
 193 943 l 1,9,-1
 339 790 l 1,0,-1
422 610 m 256,10,11
 375 610 375 610 342.5 597.5 c 128,-1,12
 310 585 310 585 290 555.5 c 128,-1,13
 270 526 270 526 261 477 c 128,-1,14
 252 428 252 428 252 355 c 0,15,16
 252 280 252 280 262 230 c 128,-1,17
 272 180 272 180 292.5 151.5 c 128,-1,18
 313 123 313 123 346 111 c 128,-1,19
 379 99 379 99 425 99 c 0,20,21
 484 99 484 99 522 117 c 128,-1,22
 560 135 560 135 584 170 c 128,-1,23
 608 205 608 205 624 256 c 1,24,-1
 726 211 l 1,25,26
 703 135 703 135 662.5 82.5 c 128,-1,27
 622 30 622 30 558.5 2.5 c 128,-1,28
 495 -25 495 -25 403 -25 c 0,29,30
 323 -25 323 -25 258 -2 c 128,-1,31
 193 21 193 21 146 68 c 128,-1,32
 99 115 99 115 73.5 186.5 c 128,-1,33
 48 258 48 258 48 355 c 0,34,35
 48 454 48 454 74 526 c 128,-1,36
 100 598 100 598 147 644 c 128,-1,37
 194 690 194 690 258 712.5 c 128,-1,38
 322 735 322 735 397 735 c 0,39,40
 473 735 473 735 523 705 c 128,-1,41
 573 675 573 675 601.5 619.5 c 128,-1,42
 630 564 630 564 637 486 c 1,43,-1
 591 537 l 1,44,-1
 611 720 l 1,45,-1
 715 720 l 1,46,-1
 715 460 l 1,47,-1
 592 460 l 1,48,49
 581 505 581 505 559 538.5 c 128,-1,50
 537 572 537 572 503 591 c 128,-1,51
 469 610 469 610 422 610 c 256,10,11
EndSplineSet
EndChar

StartChar: D
Encoding: 68 68 40
Width: 840
GlyphClass: 2
Flags: W
AnchorPoint: "Anchor-1" 423 0 basechar 0
AnchorPoint: "Anchor-0" 423 741 basechar 0
LayerCount: 2
Fore
SplineSet
43 589 m 1,0,-1
 43 710 l 1,1,-1
 426 710 l 2,2,3
 508 710 508 710 575.5 689.5 c 128,-1,4
 643 669 643 669 691.5 626.5 c 128,-1,5
 740 584 740 584 766 517.5 c 128,-1,6
 792 451 792 451 792 359 c 0,7,8
 792 268 792 268 766 200 c 128,-1,9
 740 132 740 132 691.5 88 c 128,-1,10
 643 44 643 44 575.5 22 c 128,-1,11
 508 0 508 0 426 0 c 2,12,-1
 43 0 l 1,13,-1
 43 121 l 1,14,-1
 55 121 l 2,15,16
 78 121 78 121 94.5 128 c 128,-1,17
 111 135 111 135 111 157 c 2,18,-1
 111 553 l 2,19,20
 111 575 111 575 94.5 582 c 128,-1,21
 78 589 78 589 55 589 c 2,22,-1
 43 589 l 1,0,-1
402 590 m 2,23,-1
 306 590 l 1,24,-1
 306 120 l 1,25,-1
 402 120 l 2,26,27
 450 120 450 120 485 133.5 c 128,-1,28
 520 147 520 147 543 175.5 c 128,-1,29
 566 204 566 204 577 249.5 c 128,-1,30
 588 295 588 295 588 359 c 256,31,32
 588 423 588 423 577 467.5 c 128,-1,33
 566 512 566 512 543 539 c 128,-1,34
 520 566 520 566 485 578 c 128,-1,35
 450 590 450 590 402 590 c 2,23,-1
EndSplineSet
EndChar

StartChar: Dcaron
Encoding: 270 270 41
Width: 840
GlyphClass: 1
Flags: W
LayerCount: 2
Fore
SplineSet
339 790 m 1,0,-1
 466 790 l 1,1,-1
 612 943 l 1,2,-1
 612 998 l 1,3,-1
 531 998 l 1,4,-1
 366 890 l 1,5,-1
 446 891 l 1,6,-1
 276 998 l 1,7,-1
 193 998 l 1,8,-1
 193 943 l 1,9,-1
 339 790 l 1,0,-1
43 589 m 1,10,-1
 43 710 l 1,11,-1
 426 710 l 2,12,13
 508 710 508 710 575.5 689.5 c 128,-1,14
 643 669 643 669 691.5 626.5 c 128,-1,15
 740 584 740 584 766 517.5 c 128,-1,16
 792 451 792 451 792 359 c 0,17,18
 792 268 792 268 766 200 c 128,-1,19
 740 132 740 132 691.5 88 c 128,-1,20
 643 44 643 44 575.5 22 c 128,-1,21
 508 0 508 0 426 0 c 2,22,-1
 43 0 l 1,23,-1
 43 121 l 1,24,-1
 55 121 l 2,25,26
 78 121 78 121 94.5 128 c 128,-1,27
 111 135 111 135 111 157 c 2,28,-1
 111 553 l 2,29,30
 111 575 111 575 94.5 582 c 128,-1,31
 78 589 78 589 55 589 c 2,32,-1
 43 589 l 1,10,-1
402 590 m 2,33,-1
 306 590 l 1,34,-1
 306 120 l 1,35,-1
 402 120 l 2,36,37
 450 120 450 120 485 133.5 c 128,-1,38
 520 147 520 147 543 175.5 c 128,-1,39
 566 204 566 204 577 249.5 c 128,-1,40
 588 295 588 295 588 359 c 256,41,42
 588 423 588 423 577 467.5 c 128,-1,43
 566 512 566 512 543 539 c 128,-1,44
 520 566 520 566 485 578 c 128,-1,45
 450 590 450 590 402 590 c 2,33,-1
EndSplineSet
EndChar

StartChar: E
Encoding: 69 69 44
Width: 725
GlyphClass: 2
Flags: W
AnchorPoint: "Anchor-2" 501 0 basechar 0
AnchorPoint: "Anchor-1" 429 0 basechar 0
AnchorPoint: "Anchor-0" 429 741 basechar 0
LayerCount: 2
Fore
SplineSet
669 225 m 1,0,-1
 669 0 l 1,1,-1
 43 0 l 1,2,-1
 43 121 l 1,3,-1
 54 121 l 2,4,5
 77 121 77 121 94 128 c 128,-1,6
 111 135 111 135 111 157 c 2,7,-1
 111 553 l 2,8,9
 111 575 111 575 94 582 c 128,-1,10
 77 589 77 589 54 589 c 2,11,-1
 43 589 l 1,12,-1
 43 710 l 1,13,-1
 652 710 l 1,14,-1
 652 510 l 1,15,-1
 532 510 l 1,16,-1
 526 546 l 2,17,18
 523 564 523 564 515.5 573.5 c 128,-1,19
 508 583 508 583 491 587 c 128,-1,20
 474 591 474 591 446 591 c 2,21,-1
 306 591 l 1,22,-1
 306 119 l 1,23,-1
 443 119 l 2,24,25
 469 119 469 119 486.5 121 c 128,-1,26
 504 123 504 123 514 128 c 128,-1,27
 524 133 524 133 528.5 142 c 128,-1,28
 533 151 533 151 536 164 c 2,29,-1
 547 225 l 1,30,-1
 669 225 l 1,0,-1
291 415 m 1,31,32
 336 420 336 420 381 424 c 128,-1,33
 426 428 426 428 470.5 433 c 128,-1,34
 515 438 515 438 560 441 c 1,35,-1
 560 289 l 1,36,37
 515 294 515 294 470.5 298 c 128,-1,38
 426 302 426 302 381 306 c 128,-1,39
 336 310 336 310 291 313 c 1,40,-1
 291 415 l 1,31,32
EndSplineSet
Substitution2: "'ss01' Style Set 1 lookup 61 subtable" E.alt
EndChar

StartChar: Ecaron
Encoding: 282 282 53
Width: 725
GlyphClass: 1
Flags: W
LayerCount: 2
Fore
SplineSet
310 790 m 1,0,-1
 437 790 l 1,1,-1
 584 943 l 1,2,-1
 584 998 l 1,3,-1
 503 998 l 1,4,-1
 337 890 l 1,5,-1
 418 891 l 1,6,-1
 248 998 l 1,7,-1
 164 998 l 1,8,-1
 164 943 l 1,9,-1
 310 790 l 1,0,-1
669 225 m 1,10,-1
 669 0 l 1,11,-1
 43 0 l 1,12,-1
 43 121 l 1,13,-1
 54 121 l 2,14,15
 77 121 77 121 94 128 c 128,-1,16
 111 135 111 135 111 157 c 2,17,-1
 111 553 l 2,18,19
 111 575 111 575 94 582 c 128,-1,20
 77 589 77 589 54 589 c 2,21,-1
 43 589 l 1,22,-1
 43 710 l 1,23,-1
 652 710 l 1,24,-1
 652 510 l 1,25,-1
 532 510 l 1,26,-1
 526 546 l 2,27,28
 523 564 523 564 515.5 573.5 c 128,-1,29
 508 583 508 583 491 587 c 128,-1,30
 474 591 474 591 446 591 c 2,31,-1
 306 591 l 1,32,-1
 306 119 l 1,33,-1
 443 119 l 2,34,35
 469 119 469 119 486.5 121 c 128,-1,36
 504 123 504 123 514 128 c 128,-1,37
 524 133 524 133 528.5 142 c 128,-1,38
 533 151 533 151 536 164 c 2,39,-1
 547 225 l 1,40,-1
 669 225 l 1,10,-1
291 415 m 1,41,42
 336 420 336 420 381 424 c 128,-1,43
 426 428 426 428 470.5 433 c 128,-1,44
 515 438 515 438 560 441 c 1,45,-1
 560 289 l 1,46,47
 515 294 515 294 470.5 298 c 128,-1,48
 426 302 426 302 381 306 c 128,-1,49
 336 310 336 310 291 313 c 1,50,-1
 291 415 l 1,41,42
EndSplineSet
Substitution2: "'ss01' Style Set 1 lookup 61 subtable" Ecaron.alt
EndChar

StartChar: Edblgrave
Encoding: 516 516 54
Width: 725
GlyphClass: 1
Flags: W
LayerCount: 2
Fore
SplineSet
512 927 m 2,0,-1
 556 838 l 1,1,-1
 556 783 l 1,2,-1
 488 783 l 1,3,-1
 406 830 l 2,4,5
 373 850 373 850 349.5 876.5 c 128,-1,6
 326 903 326 903 326 939 c 0,7,8
 326 970 326 970 348 989.5 c 128,-1,9
 370 1009 370 1009 407 1009 c 0,10,11
 434 1009 434 1009 453.5 998 c 128,-1,12
 473 987 473 987 487 968.5 c 128,-1,13
 501 950 501 950 512 927 c 2,0,-1
275 927 m 2,14,-1
 319 838 l 1,15,-1
 319 783 l 1,16,-1
 251 783 l 1,17,-1
 168 830 l 2,18,19
 136 850 136 850 112 876.5 c 128,-1,20
 88 903 88 903 88 939 c 0,21,22
 88 970 88 970 110 989.5 c 128,-1,23
 132 1009 132 1009 169 1009 c 0,24,25
 196 1009 196 1009 216 998 c 128,-1,26
 236 987 236 987 250 968.5 c 128,-1,27
 264 950 264 950 275 927 c 2,14,-1
669 225 m 1,28,-1
 669 0 l 1,29,-1
 43 0 l 1,30,-1
 43 121 l 1,31,-1
 54 121 l 2,32,33
 78 121 78 121 94.5 128 c 128,-1,34
 111 135 111 135 111 157 c 2,35,-1
 111 553 l 2,36,37
 111 575 111 575 94.5 582 c 128,-1,38
 78 589 78 589 54 589 c 2,39,-1
 43 589 l 1,40,-1
 43 710 l 1,41,-1
 652 710 l 1,42,-1
 652 510 l 1,43,-1
 532 510 l 1,44,-1
 526 546 l 2,45,46
 523 564 523 564 515.5 573.5 c 128,-1,47
 508 583 508 583 491 587 c 128,-1,48
 474 591 474 591 446 591 c 2,49,-1
 306 591 l 1,50,-1
 306 119 l 1,51,-1
 443 119 l 2,52,53
 470 119 470 119 487 121 c 128,-1,54
 504 123 504 123 514 128 c 128,-1,55
 524 133 524 133 528.5 142 c 128,-1,56
 533 151 533 151 536 164 c 2,57,-1
 547 225 l 1,58,-1
 669 225 l 1,28,-1
291 415 m 1,59,60
 336 420 336 420 381 424 c 128,-1,61
 426 428 426 428 470.5 432.5 c 128,-1,62
 515 437 515 437 560 441 c 1,63,-1
 560 289 l 1,64,65
 515 294 515 294 470.5 297.5 c 128,-1,66
 426 301 426 301 381 305.5 c 128,-1,67
 336 310 336 310 291 313 c 1,68,-1
 291 415 l 1,59,60
EndSplineSet
Substitution2: "'ss01' Style Set 1 lookup 61 subtable" Edblgrave.alt
EndChar

StartChar: Einvertedbreve
Encoding: 518 518 55
Width: 725
GlyphClass: 1
Flags: W
LayerCount: 2
Fore
SplineSet
358 974 m 0,0,1
 282 974 282 974 235 953.5 c 128,-1,2
 188 933 188 933 166 888.5 c 128,-1,3
 144 844 144 844 143 771 c 1,4,-1
 257 771 l 1,5,6
 259 803 259 803 267.5 820 c 128,-1,7
 276 837 276 837 297 844 c 128,-1,8
 318 851 318 851 355 851 c 0,9,10
 393 851 393 851 413.5 844 c 128,-1,11
 434 837 434 837 443 820 c 128,-1,12
 452 803 452 803 453 771 c 1,13,-1
 572 771 l 1,14,15
 573 844 573 844 550 888.5 c 128,-1,16
 527 933 527 933 480 953.5 c 128,-1,17
 433 974 433 974 358 974 c 0,0,1
669 225 m 1,18,-1
 669 0 l 1,19,-1
 43 0 l 1,20,-1
 43 121 l 1,21,-1
 54 121 l 2,22,23
 78 121 78 121 94.5 128 c 128,-1,24
 111 135 111 135 111 157 c 2,25,-1
 111 553 l 2,26,27
 111 575 111 575 94.5 582 c 128,-1,28
 78 589 78 589 54 589 c 2,29,-1
 43 589 l 1,30,-1
 43 710 l 1,31,-1
 652 710 l 1,32,-1
 652 510 l 1,33,-1
 532 510 l 1,34,-1
 526 546 l 2,35,36
 523 564 523 564 515.5 573.5 c 128,-1,37
 508 583 508 583 491 587 c 128,-1,38
 474 591 474 591 446 591 c 2,39,-1
 306 591 l 1,40,-1
 306 119 l 1,41,-1
 443 119 l 2,42,43
 470 119 470 119 487 121 c 128,-1,44
 504 123 504 123 514 128 c 128,-1,45
 524 133 524 133 528.5 142 c 128,-1,46
 533 151 533 151 536 164 c 2,47,-1
 547 225 l 1,48,-1
 669 225 l 1,18,-1
291 415 m 1,49,50
 336 420 336 420 381 424 c 128,-1,51
 426 428 426 428 470.5 432.5 c 128,-1,52
 515 437 515 437 560 441 c 1,53,-1
 560 289 l 1,54,55
 515 294 515 294 470.5 297.5 c 128,-1,56
 426 301 426 301 381 305.5 c 128,-1,57
 336 310 336 310 291 313 c 1,58,-1
 291 415 l 1,49,50
EndSplineSet
Substitution2: "'ss01' Style Set 1 lookup 61 subtable" Einvertedbreve.alt
EndChar

StartChar: F
Encoding: 70 70 67
Width: 705
GlyphClass: 2
Flags: W
AnchorPoint: "Anchor-0" 312 741 basechar 0
LayerCount: 2
Fore
SplineSet
306 591 m 1,0,-1
 306 131 l 2,1,2
 306 128 306 128 312 126.5 c 128,-1,3
 318 125 318 125 328 123.5 c 128,-1,4
 338 122 338 122 351 121.5 c 128,-1,5
 364 121 364 121 379 121 c 2,6,-1
 398 121 l 1,7,-1
 398 0 l 1,8,-1
 43 0 l 1,9,-1
 43 121 l 1,10,-1
 54 121 l 2,11,12
 78 121 78 121 94.5 128 c 128,-1,13
 111 135 111 135 111 157 c 2,14,-1
 111 553 l 2,15,16
 111 575 111 575 94.5 582 c 128,-1,17
 78 589 78 589 54 589 c 2,18,-1
 43 589 l 1,19,-1
 43 710 l 1,20,-1
 652 710 l 1,21,-1
 652 509 l 1,22,-1
 528 509 l 1,23,-1
 520 546 l 2,24,25
 517 564 517 564 508 573.5 c 128,-1,26
 499 583 499 583 481.5 587 c 128,-1,27
 464 591 464 591 436 591 c 2,28,-1
 306 591 l 1,0,-1
291 400 m 1,29,30
 336 405 336 405 381 409 c 128,-1,31
 426 413 426 413 470.5 417.5 c 128,-1,32
 515 422 515 422 560 425 c 1,33,-1
 560 273 l 1,34,35
 516 278 516 278 471 281.5 c 128,-1,36
 426 285 426 285 381 289.5 c 128,-1,37
 336 294 336 294 291 297 c 1,38,-1
 291 400 l 1,29,30
EndSplineSet
Substitution2: "'ss01' Style Set 1 lookup 61 subtable" F.alt
EndChar

StartChar: G
Encoding: 71 71 68
Width: 839
GlyphClass: 2
Flags: W
AnchorPoint: "Anchor-1" 427 0 basechar 0
AnchorPoint: "Anchor-0" 427 741 basechar 0
LayerCount: 2
Fore
SplineSet
727 196 m 2,0,-1
 727 87 l 1,1,2
 712 71 712 71 682.5 51.5 c 128,-1,3
 653 32 653 32 612 14.5 c 128,-1,4
 571 -3 571 -3 520 -14 c 128,-1,5
 469 -25 469 -25 411 -25 c 0,6,7
 329 -25 329 -25 262 -1.5 c 128,-1,8
 195 22 195 22 147 69.5 c 128,-1,9
 99 117 99 117 73.5 188.5 c 128,-1,10
 48 260 48 260 48 355 c 0,11,12
 48 451 48 451 74.5 522.5 c 128,-1,13
 101 594 101 594 149 641 c 128,-1,14
 197 688 197 688 262 711.5 c 128,-1,15
 327 735 327 735 404 735 c 0,16,17
 479 735 479 735 528 707 c 128,-1,18
 577 679 577 679 605 627.5 c 128,-1,19
 633 576 633 576 644 506 c 1,20,-1
 602 559 l 1,21,-1
 618 720 l 1,22,-1
 719 720 l 1,23,-1
 719 481 l 1,24,-1
 601 481 l 1,25,26
 586 515 586 515 562.5 544.5 c 128,-1,27
 539 574 539 574 506 592.5 c 128,-1,28
 473 611 473 611 427 611 c 0,29,30
 380 611 380 611 347 596 c 128,-1,31
 314 581 314 581 293 549.5 c 128,-1,32
 272 518 272 518 262 469.5 c 128,-1,33
 252 421 252 421 252 355 c 0,34,35
 252 285 252 285 263 236 c 128,-1,36
 274 187 274 187 296 157 c 128,-1,37
 318 127 318 127 351 113 c 128,-1,38
 384 99 384 99 427 99 c 0,39,40
 459 99 459 99 482.5 104.5 c 128,-1,41
 506 110 506 110 522.5 118 c 128,-1,42
 539 126 539 126 550 134 c 1,43,-1
 550 196 l 2,44,45
 550 221 550 221 528.5 228.5 c 128,-1,46
 507 236 507 236 479 236 c 2,47,-1
 449 236 l 1,48,-1
 449 357 l 1,49,-1
 801 357 l 1,50,-1
 801 236 l 1,51,-1
 778 236 l 2,52,53
 751 236 751 236 739 228.5 c 128,-1,54
 727 221 727 221 727 196 c 2,0,-1
EndSplineSet
EndChar

StartChar: Gcaron
Encoding: 486 486 73
Width: 839
GlyphClass: 1
Flags: W
LayerCount: 2
Fore
SplineSet
352 790 m 1,0,-1
 479 790 l 1,1,-1
 625 943 l 1,2,-1
 625 998 l 1,3,-1
 544 998 l 1,4,-1
 379 890 l 1,5,-1
 459 891 l 1,6,-1
 289 998 l 1,7,-1
 206 998 l 1,8,-1
 206 943 l 1,9,-1
 352 790 l 1,0,-1
727 196 m 2,10,-1
 727 87 l 1,11,12
 712 71 712 71 682.5 51.5 c 128,-1,13
 653 32 653 32 612 14.5 c 128,-1,14
 571 -3 571 -3 520 -14 c 128,-1,15
 469 -25 469 -25 411 -25 c 0,16,17
 329 -25 329 -25 262 -1.5 c 128,-1,18
 195 22 195 22 147 69.5 c 128,-1,19
 99 117 99 117 73.5 188.5 c 128,-1,20
 48 260 48 260 48 355 c 0,21,22
 48 451 48 451 74.5 522.5 c 128,-1,23
 101 594 101 594 149 641 c 128,-1,24
 197 688 197 688 262 711.5 c 128,-1,25
 327 735 327 735 404 735 c 0,26,27
 479 735 479 735 528 707 c 128,-1,28
 577 679 577 679 605 627.5 c 128,-1,29
 633 576 633 576 644 506 c 1,30,-1
 602 559 l 1,31,-1
 618 720 l 1,32,-1
 719 720 l 1,33,-1
 719 481 l 1,34,-1
 601 481 l 1,35,36
 586 515 586 515 562.5 544.5 c 128,-1,37
 539 574 539 574 506 592.5 c 128,-1,38
 473 611 473 611 427 611 c 0,39,40
 380 611 380 611 347 596 c 128,-1,41
 314 581 314 581 293 549.5 c 128,-1,42
 272 518 272 518 262 469.5 c 128,-1,43
 252 421 252 421 252 355 c 0,44,45
 252 285 252 285 263 236 c 128,-1,46
 274 187 274 187 296 157 c 128,-1,47
 318 127 318 127 351 113 c 128,-1,48
 384 99 384 99 427 99 c 0,49,50
 459 99 459 99 482.5 104.5 c 128,-1,51
 506 110 506 110 522.5 118 c 128,-1,52
 539 126 539 126 550 134 c 1,53,-1
 550 196 l 2,54,55
 550 221 550 221 528.5 228.5 c 128,-1,56
 507 236 507 236 479 236 c 2,57,-1
 449 236 l 1,58,-1
 449 357 l 1,59,-1
 801 357 l 1,60,-1
 801 236 l 1,61,-1
 778 236 l 2,62,63
 751 236 751 236 739 228.5 c 128,-1,64
 727 221 727 221 727 196 c 2,10,-1
EndSplineSet
EndChar

StartChar: H
Encoding: 72 72 75
Width: 861
GlyphClass: 2
Flags: W
AnchorPoint: "Anchor-1" 431 0 basechar 0
AnchorPoint: "Anchor-0" 431 741 basechar 0
LayerCount: 2
Fore
SplineSet
207 426 m 1,0,-1
 624 426 l 1,1,-1
 624 305 l 1,2,-1
 207 305 l 1,3,-1
 207 426 l 1,0,-1
43 0 m 1,4,-1
 43 121 l 1,5,-1
 54 121 l 2,6,7
 78 121 78 121 94.5 128 c 128,-1,8
 111 135 111 135 111 157 c 2,9,-1
 111 553 l 2,10,11
 111 575 111 575 94.5 582 c 128,-1,12
 78 589 78 589 54 589 c 2,13,-1
 43 589 l 1,14,-1
 43 710 l 1,15,-1
 372 710 l 1,16,-1
 372 591 l 1,17,-1
 363 591 l 2,18,19
 354 591 354 591 344.5 589.5 c 128,-1,20
 335 588 335 588 326 587 c 128,-1,21
 317 586 317 586 311.5 584.5 c 128,-1,22
 306 583 306 583 306 580 c 2,23,-1
 306 129 l 2,24,25
 306 127 306 127 311.5 125.5 c 128,-1,26
 317 124 317 124 326 122.5 c 128,-1,27
 335 121 335 121 344.5 121 c 128,-1,28
 354 121 354 121 363 121 c 2,29,-1
 372 121 l 1,30,-1
 372 0 l 1,31,-1
 43 0 l 1,4,-1
489 0 m 1,32,-1
 489 119 l 1,33,-1
 498 119 l 2,34,35
 507 119 507 119 517 120.5 c 128,-1,36
 527 122 527 122 535.5 123 c 128,-1,37
 544 124 544 124 549.5 125.5 c 128,-1,38
 555 127 555 127 555 130 c 2,39,-1
 555 581 l 2,40,41
 555 583 555 583 549.5 584.5 c 128,-1,42
 544 586 544 586 535.5 587.5 c 128,-1,43
 527 589 527 589 517 589 c 128,-1,44
 507 589 507 589 498 589 c 2,45,-1
 489 589 l 1,46,-1
 489 710 l 1,47,-1
 818 710 l 1,48,-1
 818 589 l 1,49,-1
 807 589 l 2,50,51
 783 589 783 589 766.5 582 c 128,-1,52
 750 575 750 575 750 553 c 2,53,-1
 750 157 l 2,54,55
 750 135 750 135 766.5 128 c 128,-1,56
 783 121 783 121 807 121 c 2,57,-1
 818 121 l 1,58,-1
 818 0 l 1,59,-1
 489 0 l 1,32,-1
EndSplineSet
EndChar

StartChar: I
Encoding: 73 73 79
Width: 438
GlyphClass: 2
Flags: W
AnchorPoint: "Anchor-2" 289 0 basechar 0
AnchorPoint: "Anchor-1" 220 0 basechar 0
AnchorPoint: "Anchor-0" 220 741 basechar 0
LayerCount: 2
Fore
SplineSet
121 157 m 2,0,-1
 121 553 l 2,1,2
 121 575 121 575 104.5 582 c 128,-1,3
 88 589 88 589 63 589 c 2,4,-1
 43 589 l 1,5,-1
 43 710 l 1,6,-1
 395 710 l 1,7,-1
 395 589 l 1,8,-1
 375 589 l 2,9,10
 350 589 350 589 333.5 582 c 128,-1,11
 317 575 317 575 317 553 c 2,12,-1
 317 157 l 2,13,14
 317 135 317 135 333.5 128 c 128,-1,15
 350 121 350 121 375 121 c 2,16,-1
 395 121 l 1,17,-1
 395 0 l 1,18,-1
 43 0 l 1,19,-1
 43 121 l 1,20,-1
 63 121 l 2,21,22
 88 121 88 121 104.5 128 c 128,-1,23
 121 135 121 135 121 157 c 2,0,-1
EndSplineSet
EndChar

StartChar: Icaron
Encoding: 463 463 89
Width: 438
GlyphClass: 1
Flags: W
LayerCount: 2
Fore
SplineSet
155 790 m 1,0,-1
 283 790 l 1,1,-1
 429 943 l 1,2,-1
 429 998 l 1,3,-1
 348 998 l 1,4,-1
 182 890 l 1,5,-1
 263 891 l 1,6,-1
 93 998 l 1,7,-1
 10 998 l 1,8,-1
 10 943 l 1,9,-1
 155 790 l 1,0,-1
121 157 m 2,10,-1
 121 553 l 2,11,12
 121 575 121 575 104.5 582 c 128,-1,13
 88 589 88 589 63 589 c 2,14,-1
 43 589 l 1,15,-1
 43 710 l 1,16,-1
 395 710 l 1,17,-1
 395 589 l 1,18,-1
 375 589 l 2,19,20
 350 589 350 589 333.5 582 c 128,-1,21
 317 575 317 575 317 553 c 2,22,-1
 317 157 l 2,23,24
 317 135 317 135 333.5 128 c 128,-1,25
 350 121 350 121 375 121 c 2,26,-1
 395 121 l 1,27,-1
 395 0 l 1,28,-1
 43 0 l 1,29,-1
 43 121 l 1,30,-1
 63 121 l 2,31,32
 88 121 88 121 104.5 128 c 128,-1,33
 121 135 121 135 121 157 c 2,10,-1
EndSplineSet
EndChar

StartChar: Idblgrave
Encoding: 520 520 90
Width: 438
GlyphClass: 1
Flags: W
LayerCount: 2
Fore
SplineSet
368 927 m 2,0,-1
 413 838 l 1,1,-1
 413 783 l 1,2,-1
 345 783 l 1,3,-1
 262 830 l 2,4,5
 230 850 230 850 206 876.5 c 128,-1,6
 182 903 182 903 182 939 c 0,7,8
 182 970 182 970 204 989.5 c 128,-1,9
 226 1009 226 1009 263 1009 c 0,10,11
 290 1009 290 1009 309.5 998 c 128,-1,12
 329 987 329 987 343 968.5 c 128,-1,13
 357 950 357 950 368 927 c 2,0,-1
131 927 m 2,14,-1
 175 838 l 1,15,-1
 175 783 l 1,16,-1
 107 783 l 1,17,-1
 24 830 l 2,18,19
 -8 850 -8 850 -31.5 876.5 c 128,-1,20
 -55 903 -55 903 -55 939 c 0,21,22
 -55 970 -55 970 -33 989.5 c 128,-1,23
 -11 1009 -11 1009 26 1009 c 0,24,25
 52 1009 52 1009 72 998 c 128,-1,26
 92 987 92 987 106.5 968.5 c 128,-1,27
 121 950 121 950 131 927 c 2,14,-1
121 157 m 2,28,-1
 121 553 l 2,29,30
 121 575 121 575 104.5 582 c 128,-1,31
 88 589 88 589 63 589 c 2,32,-1
 43 589 l 1,33,-1
 43 710 l 1,34,-1
 395 710 l 1,35,-1
 395 589 l 1,36,-1
 375 589 l 2,37,38
 351 589 351 589 334 582 c 128,-1,39
 317 575 317 575 317 553 c 2,40,-1
 317 157 l 2,41,42
 317 135 317 135 334 128 c 128,-1,43
 351 121 351 121 375 121 c 2,44,-1
 395 121 l 1,45,-1
 395 0 l 1,46,-1
 43 0 l 1,47,-1
 43 121 l 1,48,-1
 63 121 l 2,49,50
 88 121 88 121 104.5 128 c 128,-1,51
 121 135 121 135 121 157 c 2,28,-1
EndSplineSet
EndChar

StartChar: Iinvertedbreve
Encoding: 522 522 91
Width: 438
GlyphClass: 1
Flags: W
LayerCount: 2
Fore
SplineSet
219 974 m 0,0,1
 143 974 143 974 96 953.5 c 128,-1,2
 49 933 49 933 27 888.5 c 128,-1,3
 5 844 5 844 5 771 c 1,4,-1
 119 771 l 1,5,6
 121 803 121 803 129.5 820 c 128,-1,7
 138 837 138 837 158.5 844 c 128,-1,8
 179 851 179 851 217 851 c 256,9,10
 255 851 255 851 275 844 c 128,-1,11
 295 837 295 837 304 820 c 128,-1,12
 313 803 313 803 315 771 c 1,13,-1
 434 771 l 1,14,15
 434 844 434 844 411.5 888.5 c 128,-1,16
 389 933 389 933 341.5 953.5 c 128,-1,17
 294 974 294 974 219 974 c 0,0,1
121 157 m 2,18,-1
 121 553 l 2,19,20
 121 575 121 575 104.5 582 c 128,-1,21
 88 589 88 589 63 589 c 2,22,-1
 43 589 l 1,23,-1
 43 710 l 1,24,-1
 395 710 l 1,25,-1
 395 589 l 1,26,-1
 375 589 l 2,27,28
 351 589 351 589 334 582 c 128,-1,29
 317 575 317 575 317 553 c 2,30,-1
 317 157 l 2,31,32
 317 135 317 135 334 128 c 128,-1,33
 351 121 351 121 375 121 c 2,34,-1
 395 121 l 1,35,-1
 395 0 l 1,36,-1
 43 0 l 1,37,-1
 43 121 l 1,38,-1
 63 121 l 2,39,40
 88 121 88 121 104.5 128 c 128,-1,41
 121 135 121 135 121 157 c 2,18,-1
EndSplineSet
EndChar

StartChar: J
Encoding: 74 74 94
Width: 706
GlyphClass: 2
Flags: W
AnchorPoint: "Anchor-0" 474 741 basechar 0
LayerCount: 2
Fore
SplineSet
299 710 m 1,0,-1
 666 710 l 1,1,-1
 666 589 l 1,2,-1
 646 589 l 2,3,4
 622 589 622 589 605.5 582 c 128,-1,5
 589 575 589 575 589 553 c 2,6,-1
 589 237 l 2,7,8
 589 167 589 167 568 117 c 128,-1,9
 547 67 547 67 507.5 36 c 128,-1,10
 468 5 468 5 412.5 -10 c 128,-1,11
 357 -25 357 -25 289 -25 c 0,12,13
 224 -25 224 -25 173.5 -12 c 128,-1,14
 123 1 123 1 89.5 17.5 c 128,-1,15
 56 34 56 34 44 46 c 1,16,-1
 44 261 l 1,17,-1
 220 261 l 1,18,-1
 220 45 l 1,19,20
 200 52 200 52 184.5 63.5 c 128,-1,21
 169 75 169 75 159 88.5 c 128,-1,22
 149 102 149 102 145.5 116.5 c 128,-1,23
 142 131 142 131 145 142 c 1,24,25
 155 133 155 133 175.5 123 c 128,-1,26
 196 113 196 113 222.5 106 c 128,-1,27
 249 99 249 99 279 99 c 0,28,29
 318 99 318 99 343 113 c 128,-1,30
 368 127 368 127 381 161.5 c 128,-1,31
 394 196 394 196 394 258 c 2,32,-1
 394 553 l 2,33,34
 394 568 394 568 384.5 575.5 c 128,-1,35
 375 583 375 583 359.5 586 c 128,-1,36
 344 589 344 589 327 589 c 2,37,-1
 299 589 l 1,38,-1
 299 710 l 1,0,-1
EndSplineSet
EndChar

StartChar: K
Encoding: 75 75 96
Width: 855
GlyphClass: 2
Flags: W
AnchorPoint: "Anchor-1" 440 0 basechar 0
AnchorPoint: "Anchor-0" 440 741 basechar 0
LayerCount: 2
Fore
SplineSet
43 0 m 1,0,-1
 43 121 l 1,1,-1
 54 121 l 2,2,3
 78 121 78 121 94.5 128 c 128,-1,4
 111 135 111 135 111 157 c 2,5,-1
 111 553 l 2,6,7
 111 575 111 575 94.5 582 c 128,-1,8
 78 589 78 589 54 589 c 2,9,-1
 43 589 l 1,10,-1
 43 710 l 1,11,-1
 379 710 l 1,12,-1
 379 590 l 1,13,-1
 367 590 l 2,14,15
 355 590 355 590 344 589.5 c 128,-1,16
 333 589 333 589 324.5 587.5 c 128,-1,17
 316 586 316 586 311 584.5 c 128,-1,18
 306 583 306 583 306 580 c 2,19,-1
 306 130 l 2,20,21
 306 127 306 127 311 126 c 128,-1,22
 316 125 316 125 323.5 123.5 c 128,-1,23
 331 122 331 122 340 121.5 c 128,-1,24
 349 121 349 121 357 121 c 2,25,-1
 365 121 l 1,26,-1
 365 0 l 1,27,-1
 43 0 l 1,0,-1
471 0 m 1,28,-1
 471 121 l 1,29,-1
 483 121 l 2,30,31
 496 121 496 121 506 122 c 128,-1,32
 516 123 516 123 522.5 125.5 c 128,-1,33
 529 128 529 128 529 131 c 2,34,-1
 339 349 l 1,35,-1
 339 372 l 1,36,-1
 565 579 l 2,37,38
 565 582 565 582 559 584 c 128,-1,39
 553 586 553 586 541.5 587.5 c 128,-1,40
 530 589 530 589 515 589 c 2,41,-1
 499 589 l 1,42,-1
 499 710 l 1,43,-1
 794 710 l 1,44,-1
 794 589 l 1,45,-1
 779 589 l 2,46,47
 765 589 765 589 753 586.5 c 128,-1,48
 741 584 741 584 730 577.5 c 128,-1,49
 719 571 719 571 706 559 c 2,50,-1
 484 356 l 1,51,-1
 497 448 l 1,52,-1
 766 142 l 2,53,54
 774 134 774 134 782 129 c 128,-1,55
 790 124 790 124 798.5 122.5 c 128,-1,56
 807 121 807 121 816 121 c 2,57,-1
 829 121 l 1,58,-1
 829 0 l 1,59,-1
 471 0 l 1,28,-1
EndSplineSet
EndChar

StartChar: L
Encoding: 76 76 98
Width: 702
GlyphClass: 2
Flags: W
AnchorPoint: "Anchor-2" 534 710 basechar 0
AnchorPoint: "Anchor-1" 430 0 basechar 0
AnchorPoint: "Anchor-0" 430 741 basechar 0
LayerCount: 2
Fore
SplineSet
395 710 m 1,0,-1
 43 710 l 1,1,-1
 43 589 l 1,2,-1
 54 589 l 2,3,4
 78 589 78 589 94.5 582 c 128,-1,5
 111 575 111 575 111 553 c 2,6,-1
 111 157 l 2,7,8
 111 135 111 135 94.5 128 c 128,-1,9
 78 121 78 121 54 121 c 2,10,-1
 43 121 l 1,11,-1
 43 0 l 1,12,-1
 660 0 l 1,13,-1
 660 265 l 1,14,-1
 534 265 l 1,15,-1
 521 164 l 2,16,17
 519 146 519 146 512 136 c 128,-1,18
 505 126 505 126 486 122.5 c 128,-1,19
 467 119 467 119 431 119 c 2,20,-1
 306 119 l 1,21,-1
 306 553 l 2,22,23
 306 575 306 575 325 582 c 128,-1,24
 344 589 344 589 375 589 c 2,25,-1
 395 589 l 1,26,-1
 395 710 l 1,0,-1
EndSplineSet
EndChar

StartChar: M
Encoding: 77 77 104
Width: 1031
GlyphClass: 2
Flags: W
AnchorPoint: "Anchor-1" 503 0 basechar 0
LayerCount: 2
Fore
SplineSet
44 0 m 1,0,-1
 44 121 l 1,1,-1
 55 121 l 2,2,3
 68 121 68 121 77.5 124 c 128,-1,4
 87 127 87 127 92.5 135 c 128,-1,5
 98 143 98 143 98 157 c 2,6,-1
 98 553 l 2,7,8
 98 568 98 568 92.5 575.5 c 128,-1,9
 87 583 87 583 77.5 586 c 128,-1,10
 68 589 68 589 55 589 c 2,11,-1
 44 589 l 1,12,-1
 44 710 l 1,13,-1
 393 710 l 1,14,-1
 547 215 l 1,15,-1
 479 239 l 1,16,-1
 640 710 l 1,17,-1
 987 710 l 1,18,-1
 987 589 l 1,19,-1
 976 589 l 2,20,21
 953 589 953 589 936 582 c 128,-1,22
 919 575 919 575 919 553 c 2,23,-1
 919 157 l 2,24,25
 919 135 919 135 936 128 c 128,-1,26
 953 121 953 121 976 121 c 2,27,-1
 987 121 l 1,28,-1
 987 0 l 1,29,-1
 658 0 l 1,30,-1
 658 121 l 1,31,-1
 666 121 l 2,32,33
 676 121 676 121 689.5 121.5 c 128,-1,34
 703 122 703 122 713.5 124.5 c 128,-1,35
 724 127 724 127 724 130 c 2,36,-1
 724 692 l 1,37,-1
 749 689 l 1,38,-1
 517 -7 l 1,39,-1
 425 -7 l 1,40,-1
 198 688 l 1,41,-1
 223 692 l 1,42,-1
 223 130 l 2,43,44
 223 127 223 127 228.5 125 c 128,-1,45
 234 123 234 123 241.5 122 c 128,-1,46
 249 121 249 121 255 121 c 2,47,-1
 262 121 l 1,48,-1
 262 0 l 1,49,-1
 44 0 l 1,0,-1
EndSplineSet
EndChar

StartChar: N
Encoding: 78 78 106
Width: 832
GlyphClass: 2
Flags: W
AnchorPoint: "Anchor-1" 426 0 basechar 0
AnchorPoint: "Anchor-0" 426 741 basechar 0
LayerCount: 2
Fore
SplineSet
44 0 m 1,0,-1
 44 121 l 1,1,-1
 55 121 l 2,2,3
 71 121 71 121 82 124 c 128,-1,4
 93 127 93 127 99 135 c 128,-1,5
 105 143 105 143 105 157 c 2,6,-1
 105 553 l 2,7,8
 105 568 105 568 99 575.5 c 128,-1,9
 93 583 93 583 81.5 586 c 128,-1,10
 70 589 70 589 55 589 c 2,11,-1
 44 589 l 1,12,-1
 44 710 l 1,13,-1
 370 710 l 1,14,-1
 639 159 l 1,15,-1
 614 156 l 1,16,-1
 614 579 l 2,17,18
 614 583 614 583 608 585 c 128,-1,19
 602 587 602 587 593 588 c 128,-1,20
 584 589 584 589 574 589 c 2,21,-1
 561 589 l 1,22,-1
 561 710 l 1,23,-1
 792 710 l 1,24,-1
 792 589 l 1,25,-1
 782 589 l 2,26,27
 767 589 767 589 757 587 c 128,-1,28
 747 585 747 585 743 578.5 c 128,-1,29
 739 572 739 572 739 557 c 2,30,-1
 739 0 l 1,31,-1
 511 0 l 1,32,-1
 182 666 l 1,33,-1
 230 655 l 1,34,-1
 230 130 l 2,35,36
 230 128 230 128 235.5 125.5 c 128,-1,37
 241 123 241 123 250.5 122 c 128,-1,38
 260 121 260 121 270 121 c 2,39,-1
 283 121 l 1,40,-1
 283 0 l 1,41,-1
 44 0 l 1,0,-1
EndSplineSet
EndChar

StartChar: Ncaron
Encoding: 327 327 110
Width: 832
GlyphClass: 1
Flags: W
LayerCount: 2
Fore
SplineSet
363 790 m 1,0,-1
 490 790 l 1,1,-1
 636 943 l 1,2,-1
 636 998 l 1,3,-1
 555 998 l 1,4,-1
 390 890 l 1,5,-1
 470 891 l 1,6,-1
 300 998 l 1,7,-1
 217 998 l 1,8,-1
 217 943 l 1,9,-1
 363 790 l 1,0,-1
44 0 m 1,10,-1
 44 121 l 1,11,-1
 55 121 l 2,12,13
 71 121 71 121 82 124 c 128,-1,14
 93 127 93 127 99 135 c 128,-1,15
 105 143 105 143 105 157 c 2,16,-1
 105 553 l 2,17,18
 105 568 105 568 99 575.5 c 128,-1,19
 93 583 93 583 81.5 586 c 128,-1,20
 70 589 70 589 55 589 c 2,21,-1
 44 589 l 1,22,-1
 44 710 l 1,23,-1
 370 710 l 1,24,-1
 639 159 l 1,25,-1
 614 156 l 1,26,-1
 614 579 l 2,27,28
 614 583 614 583 608 585 c 128,-1,29
 602 587 602 587 593 588 c 128,-1,30
 584 589 584 589 574 589 c 2,31,-1
 561 589 l 1,32,-1
 561 710 l 1,33,-1
 792 710 l 1,34,-1
 792 589 l 1,35,-1
 782 589 l 2,36,37
 767 589 767 589 757 587 c 128,-1,38
 747 585 747 585 743 578.5 c 128,-1,39
 739 572 739 572 739 557 c 2,40,-1
 739 0 l 1,41,-1
 511 0 l 1,42,-1
 182 666 l 1,43,-1
 230 655 l 1,44,-1
 230 130 l 2,45,46
 230 128 230 128 235.5 125.5 c 128,-1,47
 241 123 241 123 250.5 122 c 128,-1,48
 260 121 260 121 270 121 c 2,49,-1
 283 121 l 1,50,-1
 283 0 l 1,51,-1
 44 0 l 1,10,-1
EndSplineSet
EndChar

StartChar: O
Encoding: 79 79 114
Width: 838
GlyphClass: 2
Flags: W
AnchorPoint: "Anchor-2" 462 0 basechar 0
AnchorPoint: "Anchor-1" 419 0 basechar 0
AnchorPoint: "Anchor-0" 419 741 basechar 0
LayerCount: 2
Fore
SplineSet
420 -25 m 0,0,1
 335 -25 335 -25 267 -1 c 128,-1,2
 199 23 199 23 149.5 70.5 c 128,-1,3
 100 118 100 118 74 189 c 128,-1,4
 48 260 48 260 48 355 c 256,5,6
 48 450 48 450 74 521.5 c 128,-1,7
 100 593 100 593 149.5 640 c 128,-1,8
 199 687 199 687 267 711 c 128,-1,9
 335 735 335 735 420 735 c 0,10,11
 504 735 504 735 572.5 711 c 128,-1,12
 641 687 641 687 689.5 640 c 128,-1,13
 738 593 738 593 764 521.5 c 128,-1,14
 790 450 790 450 790 355 c 256,15,16
 790 260 790 260 764 189 c 128,-1,17
 738 118 738 118 689.5 70.5 c 128,-1,18
 641 23 641 23 572.5 -1 c 128,-1,19
 504 -25 504 -25 420 -25 c 0,0,1
420 101 m 256,20,21
 463 101 463 101 494.5 114 c 128,-1,22
 526 127 526 127 546.5 155.5 c 128,-1,23
 567 184 567 184 576.5 232.5 c 128,-1,24
 586 281 586 281 586 355 c 0,25,26
 586 428 586 428 576.5 477 c 128,-1,27
 567 526 567 526 546.5 554.5 c 128,-1,28
 526 583 526 583 494.5 596 c 128,-1,29
 463 609 463 609 420 609 c 0,30,31
 376 609 376 609 344.5 596.5 c 128,-1,32
 313 584 313 584 292.5 555 c 128,-1,33
 272 526 272 526 262 477 c 128,-1,34
 252 428 252 428 252 355 c 256,35,36
 252 282 252 282 262 233 c 128,-1,37
 272 184 272 184 292.5 155.5 c 128,-1,38
 313 127 313 127 345 114 c 128,-1,39
 377 101 377 101 420 101 c 256,20,21
EndSplineSet
EndChar

StartChar: Ohorn
Encoding: 416 416 123
Width: 939
GlyphClass: 2
Flags: W
AnchorPoint: "Anchor-1" 466 -35 basechar 0
AnchorPoint: "Anchor-0" 466 742 basechar 0
LayerCount: 2
Fore
SplineSet
420 101 m 0,0,1
 463 101 463 101 494.5 113.5 c 128,-1,2
 526 126 526 126 546.5 154.5 c 128,-1,3
 567 183 567 183 576.5 232.5 c 128,-1,4
 586 282 586 282 586 355 c 0,5,6
 586 429 586 429 576.5 478 c 128,-1,7
 567 527 567 527 546.5 555.5 c 128,-1,8
 526 584 526 584 494.5 596.5 c 128,-1,9
 463 609 463 609 420 609 c 0,10,11
 376 609 376 609 344.5 596.5 c 128,-1,12
 313 584 313 584 292 555.5 c 128,-1,13
 271 527 271 527 261.5 477.5 c 128,-1,14
 252 428 252 428 252 355 c 0,15,16
 252 281 252 281 261.5 232 c 128,-1,17
 271 183 271 183 291.5 154.5 c 128,-1,18
 312 126 312 126 344 113.5 c 128,-1,19
 376 101 376 101 420 101 c 0,0,1
659 544 m 1,20,-1
 623 612 l 1,21,22
 660 589 660 589 690.5 563 c 128,-1,23
 721 537 721 537 743.5 506.5 c 128,-1,24
 766 476 766 476 778 437 c 128,-1,25
 790 398 790 398 790 349 c 0,26,27
 790 257 790 257 764 187 c 128,-1,28
 738 117 738 117 689.5 70 c 128,-1,29
 641 23 641 23 572.5 -1 c 128,-1,30
 504 -25 504 -25 420 -25 c 0,31,32
 335 -25 335 -25 267 -1 c 128,-1,33
 199 23 199 23 149.5 70 c 128,-1,34
 100 117 100 117 74 188.5 c 128,-1,35
 48 260 48 260 48 355 c 256,36,37
 48 450 48 450 74 521.5 c 128,-1,38
 100 593 100 593 149.5 640 c 128,-1,39
 199 687 199 687 267 711 c 128,-1,40
 335 735 335 735 420 735 c 0,41,42
 468 735 468 735 506.5 729.5 c 128,-1,43
 545 724 545 724 577.5 717 c 128,-1,44
 610 710 610 710 638 704.5 c 128,-1,45
 666 699 666 699 692 699 c 0,46,47
 710 699 710 699 723 709 c 128,-1,48
 736 719 736 719 745 741 c 128,-1,49
 754 763 754 763 760 800.5 c 128,-1,50
 766 838 766 838 769 892 c 1,51,-1
 936 892 l 1,52,53
 935 807 935 807 921.5 744.5 c 128,-1,54
 908 682 908 682 884.5 642 c 128,-1,55
 861 602 861 602 829 582.5 c 128,-1,56
 797 563 797 563 760 563 c 0,57,58
 743 563 743 563 723.5 566 c 128,-1,59
 704 569 704 569 683.5 575.5 c 128,-1,60
 663 582 663 582 641.5 591 c 128,-1,61
 620 600 620 600 599 612 c 1,62,-1
 659 601 l 1,63,-1
 659 544 l 1,20,-1
EndSplineSet
EndChar

StartChar: Ocaron
Encoding: 465 465 124
Width: 832
GlyphClass: 1
Flags: W
LayerCount: 2
Fore
SplineSet
352 790 m 1,0,-1
 480 790 l 1,1,-1
 626 943 l 1,2,-1
 626 998 l 1,3,-1
 545 998 l 1,4,-1
 379 890 l 1,5,-1
 460 891 l 1,6,-1
 290 998 l 1,7,-1
 207 998 l 1,8,-1
 207 943 l 1,9,-1
 352 790 l 1,0,-1
420 -25 m 0,10,11
 335 -25 335 -25 267 -1 c 128,-1,12
 199 23 199 23 149.5 70.5 c 128,-1,13
 100 118 100 118 74 189 c 128,-1,14
 48 260 48 260 48 355 c 256,15,16
 48 450 48 450 74 521.5 c 128,-1,17
 100 593 100 593 149.5 640 c 128,-1,18
 199 687 199 687 267 711 c 128,-1,19
 335 735 335 735 420 735 c 0,20,21
 504 735 504 735 572.5 711 c 128,-1,22
 641 687 641 687 689.5 640 c 128,-1,23
 738 593 738 593 764 521.5 c 128,-1,24
 790 450 790 450 790 355 c 256,25,26
 790 260 790 260 764 189 c 128,-1,27
 738 118 738 118 689.5 70.5 c 128,-1,28
 641 23 641 23 572.5 -1 c 128,-1,29
 504 -25 504 -25 420 -25 c 0,10,11
420 101 m 0,30,31
 463 101 463 101 494.5 114 c 128,-1,32
 526 127 526 127 546.5 155.5 c 128,-1,33
 567 184 567 184 576.5 233 c 128,-1,34
 586 282 586 282 586 355 c 256,35,36
 586 428 586 428 576.5 477 c 128,-1,37
 567 526 567 526 546.5 554.5 c 128,-1,38
 526 583 526 583 494.5 596 c 128,-1,39
 463 609 463 609 420 609 c 0,40,41
 376 609 376 609 344.5 596 c 128,-1,42
 313 583 313 583 292.5 554.5 c 128,-1,43
 272 526 272 526 262 477 c 128,-1,44
 252 428 252 428 252 355 c 256,45,46
 252 282 252 282 262 233 c 128,-1,47
 272 184 272 184 292.5 155.5 c 128,-1,48
 313 127 313 127 344.5 114 c 128,-1,49
 376 101 376 101 420 101 c 0,30,31
EndSplineSet
EndChar

StartChar: Oogonek
Encoding: 490 490 125
Width: 838
GlyphClass: 1
Flags: W
LayerCount: 2
Fore
SplineSet
420 101 m 0,0,1
 463 101 463 101 494.5 113.5 c 128,-1,2
 526 126 526 126 546.5 154.5 c 128,-1,3
 567 183 567 183 576.5 232 c 128,-1,4
 586 281 586 281 586 355 c 256,5,6
 586 429 586 429 576.5 478 c 128,-1,7
 567 527 567 527 546.5 555.5 c 128,-1,8
 526 584 526 584 494.5 596.5 c 128,-1,9
 463 609 463 609 420 609 c 0,10,11
 376 609 376 609 344.5 596.5 c 128,-1,12
 313 584 313 584 292.5 555.5 c 128,-1,13
 272 527 272 527 262 478 c 128,-1,14
 252 429 252 429 252 355 c 256,15,16
 252 281 252 281 262 232 c 128,-1,17
 272 183 272 183 292 154.5 c 128,-1,18
 312 126 312 126 344 113.5 c 128,-1,19
 376 101 376 101 420 101 c 0,0,1
690 72 m 0,20,21
 667 48 667 48 638 27.5 c 128,-1,22
 609 7 609 7 580 -12.5 c 128,-1,23
 551 -32 551 -32 527 -50 c 128,-1,24
 503 -68 503 -68 488 -86.5 c 128,-1,25
 473 -105 473 -105 473 -123 c 256,26,27
 473 -141 473 -141 484.5 -151.5 c 128,-1,28
 496 -162 496 -162 521 -162 c 0,29,30
 543 -162 543 -162 563.5 -149 c 128,-1,31
 584 -136 584 -136 599 -122 c 1,32,-1
 648 -183 l 1,33,34
 632 -198 632 -198 608 -214 c 128,-1,35
 584 -230 584 -230 550 -241 c 128,-1,36
 516 -252 516 -252 468 -252 c 0,37,38
 422 -252 422 -252 385 -240 c 128,-1,39
 348 -228 348 -228 326.5 -204.5 c 128,-1,40
 305 -181 305 -181 305 -147 c 0,41,42
 305 -121 305 -121 315 -101 c 128,-1,43
 325 -81 325 -81 352 -62 c 128,-1,44
 379 -43 379 -43 427.5 -18.5 c 128,-1,45
 476 6 476 6 554 42 c 1,46,-1
 560 -6 l 1,47,48
 539 -12 539 -12 516.5 -16 c 128,-1,49
 494 -20 494 -20 469.5 -22.5 c 128,-1,50
 445 -25 445 -25 420 -25 c 0,51,52
 335 -25 335 -25 267 -1 c 128,-1,53
 199 23 199 23 149.5 70 c 128,-1,54
 100 117 100 117 74 188.5 c 128,-1,55
 48 260 48 260 48 355 c 256,56,57
 48 450 48 450 74 521.5 c 128,-1,58
 100 593 100 593 149.5 640 c 128,-1,59
 199 687 199 687 267 711 c 128,-1,60
 335 735 335 735 420 735 c 0,61,62
 504 735 504 735 572.5 711 c 128,-1,63
 641 687 641 687 689.5 640 c 128,-1,64
 738 593 738 593 764 521.5 c 128,-1,65
 790 450 790 450 790 355 c 0,66,67
 790 293 790 293 778.5 241 c 128,-1,68
 767 189 767 189 744.5 146.5 c 128,-1,69
 722 104 722 104 690 72 c 0,20,21
EndSplineSet
EndChar

StartChar: Odblgrave
Encoding: 524 524 126
Width: 838
GlyphClass: 1
Flags: W
LayerCount: 2
Fore
SplineSet
576 927 m 2,0,-1
 620 838 l 1,1,-1
 620 783 l 1,2,-1
 552 783 l 1,3,-1
 470 830 l 2,4,5
 437 850 437 850 413.5 876.5 c 128,-1,6
 390 903 390 903 390 939 c 0,7,8
 390 970 390 970 412 989.5 c 128,-1,9
 434 1009 434 1009 471 1009 c 0,10,11
 498 1009 498 1009 517.5 998 c 128,-1,12
 537 987 537 987 551 968.5 c 128,-1,13
 565 950 565 950 576 927 c 2,0,-1
339 927 m 2,14,-1
 382 838 l 1,15,-1
 382 783 l 1,16,-1
 314 783 l 1,17,-1
 232 830 l 2,18,19
 199 850 199 850 175.5 876.5 c 128,-1,20
 152 903 152 903 152 939 c 0,21,22
 152 970 152 970 174 989.5 c 128,-1,23
 196 1009 196 1009 233 1009 c 0,24,25
 260 1009 260 1009 280 998 c 128,-1,26
 300 987 300 987 314 968.5 c 128,-1,27
 328 950 328 950 339 927 c 2,14,-1
420 -25 m 0,28,29
 335 -25 335 -25 267 -1 c 128,-1,30
 199 23 199 23 149.5 70.5 c 128,-1,31
 100 118 100 118 74 189 c 128,-1,32
 48 260 48 260 48 355 c 256,33,34
 48 450 48 450 74 521.5 c 128,-1,35
 100 593 100 593 149.5 640 c 128,-1,36
 199 687 199 687 267 711 c 128,-1,37
 335 735 335 735 420 735 c 0,38,39
 504 735 504 735 572.5 711 c 128,-1,40
 641 687 641 687 689.5 640 c 128,-1,41
 738 593 738 593 764 521.5 c 128,-1,42
 790 450 790 450 790 355 c 256,43,44
 790 260 790 260 764 189 c 128,-1,45
 738 118 738 118 689.5 70.5 c 128,-1,46
 641 23 641 23 572.5 -1 c 128,-1,47
 504 -25 504 -25 420 -25 c 0,28,29
420 101 m 0,48,49
 463 101 463 101 494.5 114 c 128,-1,50
 526 127 526 127 546.5 155.5 c 128,-1,51
 567 184 567 184 576.5 233 c 128,-1,52
 586 282 586 282 586 355 c 256,53,54
 586 428 586 428 576.5 477 c 128,-1,55
 567 526 567 526 546.5 554.5 c 128,-1,56
 526 583 526 583 494.5 596 c 128,-1,57
 463 609 463 609 420 609 c 0,58,59
 376 609 376 609 344.5 596 c 128,-1,60
 313 583 313 583 292.5 554.5 c 128,-1,61
 272 526 272 526 262 477 c 128,-1,62
 252 428 252 428 252 355 c 256,63,64
 252 282 252 282 262 233 c 128,-1,65
 272 184 272 184 292.5 155.5 c 128,-1,66
 313 127 313 127 344.5 114 c 128,-1,67
 376 101 376 101 420 101 c 0,48,49
EndSplineSet
EndChar

StartChar: Oinvertedbreve
Encoding: 526 526 127
Width: 838
GlyphClass: 1
Flags: W
LayerCount: 2
Fore
SplineSet
419 974 m 0,0,1
 343 974 343 974 296 953.5 c 128,-1,2
 249 933 249 933 227 888.5 c 128,-1,3
 205 844 205 844 205 771 c 1,4,-1
 319 771 l 1,5,6
 321 803 321 803 329.5 820 c 128,-1,7
 338 837 338 837 358.5 844 c 128,-1,8
 379 851 379 851 417 851 c 256,9,10
 455 851 455 851 475 844 c 128,-1,11
 495 837 495 837 504 820 c 128,-1,12
 513 803 513 803 514 771 c 1,13,-1
 633 771 l 1,14,15
 634 844 634 844 611 888.5 c 128,-1,16
 588 933 588 933 541 953.5 c 128,-1,17
 494 974 494 974 419 974 c 0,0,1
420 -25 m 0,18,19
 335 -25 335 -25 267 -1 c 128,-1,20
 199 23 199 23 149.5 70.5 c 128,-1,21
 100 118 100 118 74 189 c 128,-1,22
 48 260 48 260 48 355 c 256,23,24
 48 450 48 450 74 521.5 c 128,-1,25
 100 593 100 593 149.5 640 c 128,-1,26
 199 687 199 687 267 711 c 128,-1,27
 335 735 335 735 420 735 c 0,28,29
 504 735 504 735 572.5 711 c 128,-1,30
 641 687 641 687 689.5 640 c 128,-1,31
 738 593 738 593 764 521.5 c 128,-1,32
 790 450 790 450 790 355 c 256,33,34
 790 260 790 260 764 189 c 128,-1,35
 738 118 738 118 689.5 70.5 c 128,-1,36
 641 23 641 23 572.5 -1 c 128,-1,37
 504 -25 504 -25 420 -25 c 0,18,19
420 101 m 0,38,39
 463 101 463 101 494.5 114 c 128,-1,40
 526 127 526 127 546.5 155.5 c 128,-1,41
 567 184 567 184 576.5 233 c 128,-1,42
 586 282 586 282 586 355 c 256,43,44
 586 428 586 428 576.5 477 c 128,-1,45
 567 526 567 526 546.5 554.5 c 128,-1,46
 526 583 526 583 494.5 596 c 128,-1,47
 463 609 463 609 420 609 c 0,48,49
 376 609 376 609 344.5 596 c 128,-1,50
 313 583 313 583 292.5 554.5 c 128,-1,51
 272 526 272 526 262 477 c 128,-1,52
 252 428 252 428 252 355 c 256,53,54
 252 282 252 282 262 233 c 128,-1,55
 272 184 272 184 292.5 155.5 c 128,-1,56
 313 127 313 127 344.5 114 c 128,-1,57
 376 101 376 101 420 101 c 0,38,39
EndSplineSet
EndChar

StartChar: P
Encoding: 80 80 147
Width: 738
GlyphClass: 2
Flags: W
AnchorPoint: "Anchor-0" 319 741 basechar 0
LayerCount: 2
Fore
SplineSet
306 130 m 2,0,-1
 306 590 l 1,1,-1
 414 590 l 2,2,3
 446 590 446 590 467.5 579.5 c 128,-1,4
 489 569 489 569 500 547 c 128,-1,5
 511 525 511 525 511 491 c 0,6,7
 511 455 511 455 500 432 c 128,-1,8
 489 409 489 409 466.5 398.5 c 128,-1,9
 444 388 444 388 411 388 c 2,10,-1
 281 388 l 1,11,-1
 281 268 l 1,12,-1
 447 268 l 2,13,14
 523 268 523 268 580.5 294.5 c 128,-1,15
 638 321 638 321 670.5 372 c 128,-1,16
 703 423 703 423 703 496 c 0,17,18
 703 602 703 602 635 656 c 128,-1,19
 567 710 567 710 450 710 c 2,20,-1
 43 710 l 1,21,-1
 43 596 l 1,22,-1
 53 596 l 2,23,24
 77 596 77 596 93.5 589 c 128,-1,25
 110 582 110 582 110 560 c 2,26,-1
 110 150 l 2,27,28
 110 128 110 128 93.5 121 c 128,-1,29
 77 114 77 114 53 114 c 2,30,-1
 43 114 l 1,31,-1
 43 0 l 1,32,-1
 395 0 l 1,33,-1
 395 121 l 1,34,-1
 371 121 l 2,35,36
 358 121 358 121 346 121.5 c 128,-1,37
 334 122 334 122 325.5 123 c 128,-1,38
 317 124 317 124 311.5 125.5 c 128,-1,39
 306 127 306 127 306 130 c 2,0,-1
EndSplineSet
EndChar

StartChar: Q
Encoding: 81 81 148
Width: 838
GlyphClass: 1
Flags: W
LayerCount: 2
Fore
SplineSet
352 -3 m 1,0,-1
 486 24 l 1,1,2
 488 -30 488 -30 498.5 -62.5 c 128,-1,3
 509 -95 509 -95 539 -109.5 c 128,-1,4
 569 -124 569 -124 626 -124 c 0,5,6
 659 -124 659 -124 688 -119 c 128,-1,7
 717 -114 717 -114 743.5 -107 c 128,-1,8
 770 -100 770 -100 793 -93 c 1,9,-1
 793 -256 l 1,10,11
 762 -262 762 -262 719 -266.5 c 128,-1,12
 676 -271 676 -271 634 -271 c 0,13,14
 544 -271 544 -271 480.5 -244.5 c 128,-1,15
 417 -218 417 -218 384.5 -158.5 c 128,-1,16
 352 -99 352 -99 352 -3 c 1,0,-1
420 -25 m 0,17,18
 335 -25 335 -25 267 -1 c 128,-1,19
 199 23 199 23 149.5 70.5 c 128,-1,20
 100 118 100 118 74 189 c 128,-1,21
 48 260 48 260 48 355 c 256,22,23
 48 450 48 450 74 521.5 c 128,-1,24
 100 593 100 593 149.5 640 c 128,-1,25
 199 687 199 687 267 711 c 128,-1,26
 335 735 335 735 420 735 c 0,27,28
 504 735 504 735 572.5 711 c 128,-1,29
 641 687 641 687 689.5 640 c 128,-1,30
 738 593 738 593 764 521.5 c 128,-1,31
 790 450 790 450 790 355 c 256,32,33
 790 260 790 260 764 189 c 128,-1,34
 738 118 738 118 689.5 70.5 c 128,-1,35
 641 23 641 23 572.5 -1 c 128,-1,36
 504 -25 504 -25 420 -25 c 0,17,18
420 101 m 256,37,38
 463 101 463 101 495 114 c 128,-1,39
 527 127 527 127 547.5 155.5 c 128,-1,40
 568 184 568 184 578.5 232.5 c 128,-1,41
 589 281 589 281 589 355 c 0,42,43
 590 428 590 428 579.5 477 c 128,-1,44
 569 526 569 526 548 554.5 c 128,-1,45
 527 583 527 583 495 596 c 128,-1,46
 463 609 463 609 419 609 c 0,47,48
 376 609 376 609 344.5 596.5 c 128,-1,49
 313 584 313 584 292.5 555 c 128,-1,50
 272 526 272 526 262 477 c 128,-1,51
 252 428 252 428 252 355 c 256,52,53
 252 282 252 282 262 233 c 128,-1,54
 272 184 272 184 292.5 155.5 c 128,-1,55
 313 127 313 127 345 114 c 128,-1,56
 377 101 377 101 420 101 c 256,37,38
EndSplineSet
EndChar

StartChar: R
Encoding: 82 82 149
Width: 815
GlyphClass: 2
Flags: W
AnchorPoint: "Anchor-1" 457 0 basechar 0
AnchorPoint: "Anchor-0" 457 741 basechar 0
LayerCount: 2
Fore
SplineSet
402 320 m 1,0,-1
 556 0 l 1,1,-1
 784 0 l 1,2,-1
 784 121 l 1,3,-1
 774 121 l 2,4,5
 753 121 753 121 737 125.5 c 128,-1,6
 721 130 721 130 707.5 143.5 c 128,-1,7
 694 157 694 157 680 182 c 2,8,-1
 568 383 l 1,9,-1
 402 320 l 1,0,-1
306 131 m 2,10,-1
 306 594 l 1,11,-1
 426 594 l 2,12,13
 460 594 460 594 481 583 c 128,-1,14
 502 572 502 572 511.5 552 c 128,-1,15
 521 532 521 532 521 507 c 0,16,17
 521 477 521 477 510.5 450.5 c 128,-1,18
 500 424 500 424 477.5 408.5 c 128,-1,19
 455 393 455 393 420 393 c 2,20,-1
 276 393 l 1,21,-1
 276 278 l 1,22,-1
 487 278 l 1,23,24
 491 284 491 284 492.5 289 c 128,-1,25
 494 294 494 294 496.5 299.5 c 128,-1,26
 499 305 499 305 506 314 c 1,27,28
 573 326 573 326 620 352 c 128,-1,29
 667 378 667 378 693 420.5 c 128,-1,30
 719 463 719 463 719 520 c 0,31,32
 719 586 719 586 689 628 c 128,-1,33
 659 670 659 670 601 690 c 128,-1,34
 543 710 543 710 459 710 c 2,35,-1
 43 710 l 1,36,-1
 43 589 l 1,37,-1
 54 589 l 2,38,39
 77 589 77 589 94 582 c 128,-1,40
 111 575 111 575 111 553 c 2,41,-1
 111 157 l 2,42,43
 111 135 111 135 94 128 c 128,-1,44
 77 121 77 121 54 121 c 2,45,-1
 43 121 l 1,46,-1
 43 0 l 1,47,-1
 386 0 l 1,48,-1
 386 121 l 1,49,-1
 371 121 l 2,50,51
 358 121 358 121 346 121.5 c 128,-1,52
 334 122 334 122 325 123.5 c 128,-1,53
 316 125 316 125 311 126.5 c 128,-1,54
 306 128 306 128 306 131 c 2,10,-1
EndSplineSet
EndChar

StartChar: Rcaron
Encoding: 344 344 152
Width: 815
GlyphClass: 1
Flags: W
LayerCount: 2
Fore
SplineSet
329 790 m 1,0,-1
 456 790 l 1,1,-1
 602 943 l 1,2,-1
 602 998 l 1,3,-1
 521 998 l 1,4,-1
 356 890 l 1,5,-1
 436 891 l 1,6,-1
 266 998 l 1,7,-1
 183 998 l 1,8,-1
 183 943 l 1,9,-1
 329 790 l 1,0,-1
402 320 m 1,10,-1
 556 0 l 1,11,-1
 784 0 l 1,12,-1
 784 121 l 1,13,-1
 774 121 l 2,14,15
 753 121 753 121 737 125.5 c 128,-1,16
 721 130 721 130 707.5 143.5 c 128,-1,17
 694 157 694 157 680 182 c 2,18,-1
 568 383 l 1,19,-1
 402 320 l 1,10,-1
306 131 m 2,20,-1
 306 594 l 1,21,-1
 426 594 l 2,22,23
 460 594 460 594 480.5 583 c 128,-1,24
 501 572 501 572 511 552 c 128,-1,25
 521 532 521 532 521 507 c 0,26,27
 521 477 521 477 510.5 450.5 c 128,-1,28
 500 424 500 424 477.5 408.5 c 128,-1,29
 455 393 455 393 420 393 c 2,30,-1
 276 393 l 1,31,-1
 276 278 l 1,32,-1
 487 278 l 1,33,34
 491 284 491 284 492.5 289 c 128,-1,35
 494 294 494 294 496.5 299.5 c 128,-1,36
 499 305 499 305 506 314 c 1,37,38
 573 326 573 326 620 352 c 128,-1,39
 667 378 667 378 693 420.5 c 128,-1,40
 719 463 719 463 719 520 c 0,41,42
 719 586 719 586 689 628 c 128,-1,43
 659 670 659 670 601 690 c 128,-1,44
 543 710 543 710 459 710 c 2,45,-1
 43 710 l 1,46,-1
 43 589 l 1,47,-1
 54 589 l 2,48,49
 78 589 78 589 94.5 582 c 128,-1,50
 111 575 111 575 111 553 c 2,51,-1
 111 157 l 2,52,53
 111 135 111 135 94.5 128 c 128,-1,54
 78 121 78 121 54 121 c 2,55,-1
 43 121 l 1,56,-1
 43 0 l 1,57,-1
 386 0 l 1,58,-1
 386 121 l 1,59,-1
 371 121 l 2,60,61
 358 121 358 121 346 121.5 c 128,-1,62
 334 122 334 122 325 123.5 c 128,-1,63
 316 125 316 125 311 126.5 c 128,-1,64
 306 128 306 128 306 131 c 2,20,-1
EndSplineSet
EndChar

StartChar: Rdblgrave
Encoding: 528 528 153
Width: 815
GlyphClass: 1
Flags: W
LayerCount: 2
Fore
SplineSet
535 927 m 2,0,-1
 580 838 l 1,1,-1
 580 783 l 1,2,-1
 512 783 l 1,3,-1
 429 830 l 2,4,5
 397 850 397 850 373 876.5 c 128,-1,6
 349 903 349 903 349 939 c 0,7,8
 349 970 349 970 371.5 989.5 c 128,-1,9
 394 1009 394 1009 431 1009 c 0,10,11
 457 1009 457 1009 476.5 998 c 128,-1,12
 496 987 496 987 510.5 968.5 c 128,-1,13
 525 950 525 950 535 927 c 2,0,-1
298 927 m 2,14,-1
 342 838 l 1,15,-1
 342 783 l 1,16,-1
 274 783 l 1,17,-1
 191 830 l 2,18,19
 159 850 159 850 135.5 876.5 c 128,-1,20
 112 903 112 903 112 939 c 0,21,22
 112 970 112 970 134 989.5 c 128,-1,23
 156 1009 156 1009 193 1009 c 0,24,25
 220 1009 220 1009 239.5 998 c 128,-1,26
 259 987 259 987 273.5 968.5 c 128,-1,27
 288 950 288 950 298 927 c 2,14,-1
402 320 m 1,28,-1
 556 0 l 1,29,-1
 784 0 l 1,30,-1
 784 121 l 1,31,-1
 774 121 l 2,32,33
 753 121 753 121 737 125.5 c 128,-1,34
 721 130 721 130 707.5 143.5 c 128,-1,35
 694 157 694 157 680 182 c 2,36,-1
 568 383 l 1,37,-1
 402 320 l 1,28,-1
306 131 m 2,38,-1
 306 594 l 1,39,-1
 426 594 l 2,40,41
 460 594 460 594 480.5 583 c 128,-1,42
 501 572 501 572 511 552 c 128,-1,43
 521 532 521 532 521 507 c 0,44,45
 521 477 521 477 510.5 450.5 c 128,-1,46
 500 424 500 424 477.5 408.5 c 128,-1,47
 455 393 455 393 420 393 c 2,48,-1
 276 393 l 1,49,-1
 276 278 l 1,50,-1
 487 278 l 1,51,52
 491 284 491 284 492.5 289 c 128,-1,53
 494 294 494 294 496.5 299.5 c 128,-1,54
 499 305 499 305 506 314 c 1,55,56
 573 326 573 326 620 352 c 128,-1,57
 667 378 667 378 693 420.5 c 128,-1,58
 719 463 719 463 719 520 c 0,59,60
 719 586 719 586 689 628 c 128,-1,61
 659 670 659 670 601 690 c 128,-1,62
 543 710 543 710 459 710 c 2,63,-1
 43 710 l 1,64,-1
 43 589 l 1,65,-1
 54 589 l 2,66,67
 78 589 78 589 94.5 582 c 128,-1,68
 111 575 111 575 111 553 c 2,69,-1
 111 157 l 2,70,71
 111 135 111 135 94.5 128 c 128,-1,72
 78 121 78 121 54 121 c 2,73,-1
 43 121 l 1,74,-1
 43 0 l 1,75,-1
 386 0 l 1,76,-1
 386 121 l 1,77,-1
 371 121 l 2,78,79
 358 121 358 121 346 121.5 c 128,-1,80
 334 122 334 122 325 123.5 c 128,-1,81
 316 125 316 125 311 126.5 c 128,-1,82
 306 128 306 128 306 131 c 2,38,-1
EndSplineSet
EndChar

StartChar: Rinvertedbreve
Encoding: 530 530 154
Width: 815
GlyphClass: 1
Flags: W
LayerCount: 2
Fore
SplineSet
397 974 m 0,0,1
 322 974 322 974 274.5 953.5 c 128,-1,2
 227 933 227 933 205 888.5 c 128,-1,3
 183 844 183 844 183 771 c 1,4,-1
 297 771 l 1,5,6
 299 803 299 803 307.5 820 c 128,-1,7
 316 837 316 837 336.5 844 c 128,-1,8
 357 851 357 851 395 851 c 256,9,10
 433 851 433 851 453.5 844 c 128,-1,11
 474 837 474 837 482.5 820 c 128,-1,12
 491 803 491 803 493 771 c 1,13,-1
 612 771 l 1,14,15
 612 844 612 844 589.5 888.5 c 128,-1,16
 567 933 567 933 520 953.5 c 128,-1,17
 473 974 473 974 397 974 c 0,0,1
402 320 m 1,18,-1
 556 0 l 1,19,-1
 784 0 l 1,20,-1
 784 121 l 1,21,-1
 774 121 l 2,22,23
 753 121 753 121 737 125.5 c 128,-1,24
 721 130 721 130 707.5 143.5 c 128,-1,25
 694 157 694 157 680 182 c 2,26,-1
 568 383 l 1,27,-1
 402 320 l 1,18,-1
306 131 m 2,28,-1
 306 594 l 1,29,-1
 426 594 l 2,30,31
 460 594 460 594 480.5 583 c 128,-1,32
 501 572 501 572 511 552 c 128,-1,33
 521 532 521 532 521 507 c 0,34,35
 521 477 521 477 510.5 450.5 c 128,-1,36
 500 424 500 424 477.5 408.5 c 128,-1,37
 455 393 455 393 420 393 c 2,38,-1
 276 393 l 1,39,-1
 276 278 l 1,40,-1
 487 278 l 1,41,42
 491 284 491 284 492.5 289 c 128,-1,43
 494 294 494 294 496.5 299.5 c 128,-1,44
 499 305 499 305 506 314 c 1,45,46
 573 326 573 326 620 352 c 128,-1,47
 667 378 667 378 693 420.5 c 128,-1,48
 719 463 719 463 719 520 c 0,49,50
 719 586 719 586 689 628 c 128,-1,51
 659 670 659 670 601 690 c 128,-1,52
 543 710 543 710 459 710 c 2,53,-1
 43 710 l 1,54,-1
 43 589 l 1,55,-1
 54 589 l 2,56,57
 78 589 78 589 94.5 582 c 128,-1,58
 111 575 111 575 111 553 c 2,59,-1
 111 157 l 2,60,61
 111 135 111 135 94.5 128 c 128,-1,62
 78 121 78 121 54 121 c 2,63,-1
 43 121 l 1,64,-1
 43 0 l 1,65,-1
 386 0 l 1,66,-1
 386 121 l 1,67,-1
 371 121 l 2,68,69
 358 121 358 121 346 121.5 c 128,-1,70
 334 122 334 122 325 123.5 c 128,-1,71
 316 125 316 125 311 126.5 c 128,-1,72
 306 128 306 128 306 131 c 2,28,-1
EndSplineSet
EndChar

StartChar: S
Encoding: 83 83 157
Width: 697
GlyphClass: 2
Flags: W
AnchorPoint: "Anchor-1" 383 0 basechar 0
AnchorPoint: "Anchor-0" 383 741 basechar 0
LayerCount: 2
Fore
SplineSet
361 78 m 0,0,1
 403 78 403 78 428.5 84.5 c 128,-1,2
 454 91 454 91 465.5 107 c 128,-1,3
 477 123 477 123 477 154 c 0,4,5
 477 180 477 180 466 199 c 128,-1,6
 455 218 455 218 433 231 c 128,-1,7
 411 244 411 244 376.5 255 c 128,-1,8
 342 266 342 266 295 277 c 0,9,10
 246 288 246 288 204.5 303 c 128,-1,11
 163 318 163 318 131.5 343 c 128,-1,12
 100 368 100 368 82.5 408.5 c 128,-1,13
 65 449 65 449 65 512 c 0,14,15
 65 589 65 589 94.5 638.5 c 128,-1,16
 124 688 124 688 182 711.5 c 128,-1,17
 240 735 240 735 325 735 c 0,18,19
 401 735 401 735 446 713 c 128,-1,20
 491 691 491 691 513 646 c 128,-1,21
 535 601 535 601 541 532 c 1,22,-1
 503 595 l 1,23,-1
 520 720 l 1,24,-1
 619 720 l 1,25,-1
 619 503 l 1,26,-1
 503 503 l 1,27,28
 493 541 493 541 472.5 570 c 128,-1,29
 452 599 452 599 419.5 616 c 128,-1,30
 387 633 387 633 337 633 c 0,31,32
 306 633 306 633 284.5 625.5 c 128,-1,33
 263 618 263 618 252.5 601.5 c 128,-1,34
 242 585 242 585 242 557 c 0,35,36
 242 531 242 531 251 515.5 c 128,-1,37
 260 500 260 500 279 489.5 c 128,-1,38
 298 479 298 479 329.5 471 c 128,-1,39
 361 463 361 463 406 453 c 0,40,41
 456 443 456 443 501.5 428.5 c 128,-1,42
 547 414 547 414 582 389.5 c 128,-1,43
 617 365 617 365 637.5 324.5 c 128,-1,44
 658 284 658 284 658 220 c 0,45,46
 658 135 658 135 626.5 81 c 128,-1,47
 595 27 595 27 534 1 c 128,-1,48
 473 -25 473 -25 382 -25 c 0,49,50
 305 -25 305 -25 251.5 -5 c 128,-1,51
 198 15 198 15 168.5 63.5 c 128,-1,52
 139 112 139 112 132 198 c 1,53,-1
 171 141 l 1,54,-1
 150 -3 l 1,55,-1
 50 -3 l 1,56,-1
 50 235 l 1,57,-1
 175 235 l 1,58,59
 191 180 191 180 215 145.5 c 128,-1,60
 239 111 239 111 275 94.5 c 128,-1,61
 311 78 311 78 361 78 c 0,0,1
EndSplineSet
EndChar

StartChar: Scaron
Encoding: 352 352 161
Width: 697
GlyphClass: 1
Flags: W
LayerCount: 2
Fore
SplineSet
286 790 m 1,0,-1
 413 790 l 1,1,-1
 559 943 l 1,2,-1
 559 998 l 1,3,-1
 479 998 l 1,4,-1
 313 890 l 1,5,-1
 394 891 l 1,6,-1
 224 998 l 1,7,-1
 140 998 l 1,8,-1
 140 943 l 1,9,-1
 286 790 l 1,0,-1
361 78 m 0,10,11
 403 78 403 78 428.5 84.5 c 128,-1,12
 454 91 454 91 465.5 107 c 128,-1,13
 477 123 477 123 477 154 c 0,14,15
 477 180 477 180 466 199 c 128,-1,16
 455 218 455 218 433 231 c 128,-1,17
 411 244 411 244 376.5 255 c 128,-1,18
 342 266 342 266 295 277 c 0,19,20
 246 288 246 288 204.5 303 c 128,-1,21
 163 318 163 318 131.5 343 c 128,-1,22
 100 368 100 368 82.5 408.5 c 128,-1,23
 65 449 65 449 65 512 c 0,24,25
 65 589 65 589 94.5 638.5 c 128,-1,26
 124 688 124 688 182 711.5 c 128,-1,27
 240 735 240 735 325 735 c 0,28,29
 401 735 401 735 446 713 c 128,-1,30
 491 691 491 691 513 646 c 128,-1,31
 535 601 535 601 541 532 c 1,32,-1
 503 595 l 1,33,-1
 520 720 l 1,34,-1
 619 720 l 1,35,-1
 619 503 l 1,36,-1
 503 503 l 1,37,38
 493 541 493 541 472.5 570 c 128,-1,39
 452 599 452 599 419.5 616 c 128,-1,40
 387 633 387 633 337 633 c 0,41,42
 306 633 306 633 284.5 625.5 c 128,-1,43
 263 618 263 618 252.5 601.5 c 128,-1,44
 242 585 242 585 242 557 c 0,45,46
 242 531 242 531 251 515.5 c 128,-1,47
 260 500 260 500 279 489.5 c 128,-1,48
 298 479 298 479 329.5 471 c 128,-1,49
 361 463 361 463 406 453 c 0,50,51
 456 443 456 443 501.5 428.5 c 128,-1,52
 547 414 547 414 582 389.5 c 128,-1,53
 617 365 617 365 637.5 324.5 c 128,-1,54
 658 284 658 284 658 220 c 0,55,56
 658 135 658 135 626.5 81 c 128,-1,57
 595 27 595 27 534 1 c 128,-1,58
 473 -25 473 -25 382 -25 c 0,59,60
 305 -25 305 -25 251.5 -5 c 128,-1,61
 198 15 198 15 168.5 63.5 c 128,-1,62
 139 112 139 112 132 198 c 1,63,-1
 171 141 l 1,64,-1
 150 -3 l 1,65,-1
 50 -3 l 1,66,-1
 50 235 l 1,67,-1
 175 235 l 1,68,69
 191 180 191 180 215 145.5 c 128,-1,70
 239 111 239 111 275 94.5 c 128,-1,71
 311 78 311 78 361 78 c 0,10,11
EndSplineSet
EndChar

StartChar: Scarondotaccent
Encoding: 7782 7782 166
Width: 697
GlyphClass: 1
Flags: W
LayerCount: 2
Fore
SplineSet
285 790 m 1,0,-1
 412 790 l 1,1,-1
 559 943 l 1,2,-1
 559 998 l 1,3,-1
 478 998 l 1,4,-1
 312 890 l 1,5,-1
 393 891 l 1,6,-1
 223 998 l 1,7,-1
 139 998 l 1,8,-1
 139 943 l 1,9,-1
 285 790 l 1,0,-1
361 78 m 0,10,11
 403 78 403 78 428.5 84.5 c 128,-1,12
 454 91 454 91 465.5 107 c 128,-1,13
 477 123 477 123 477 154 c 0,14,15
 477 180 477 180 466 199 c 128,-1,16
 455 218 455 218 433 231 c 128,-1,17
 411 244 411 244 376.5 255 c 128,-1,18
 342 266 342 266 295 277 c 0,19,20
 246 288 246 288 204.5 303 c 128,-1,21
 163 318 163 318 131.5 343 c 128,-1,22
 100 368 100 368 82.5 408.5 c 128,-1,23
 65 449 65 449 65 512 c 0,24,25
 65 589 65 589 94.5 638.5 c 128,-1,26
 124 688 124 688 182 711.5 c 128,-1,27
 240 735 240 735 325 735 c 0,28,29
 401 735 401 735 446 713 c 128,-1,30
 491 691 491 691 513 646 c 128,-1,31
 535 601 535 601 541 532 c 1,32,-1
 503 595 l 1,33,-1
 520 720 l 1,34,-1
 619 720 l 1,35,-1
 619 503 l 1,36,-1
 503 503 l 1,37,38
 493 541 493 541 472.5 570 c 128,-1,39
 452 599 452 599 419.5 616 c 128,-1,40
 387 633 387 633 337 633 c 0,41,42
 306 633 306 633 284.5 625.5 c 128,-1,43
 263 618 263 618 252.5 601.5 c 128,-1,44
 242 585 242 585 242 557 c 0,45,46
 242 531 242 531 251 515.5 c 128,-1,47
 260 500 260 500 279 489.5 c 128,-1,48
 298 479 298 479 329.5 471 c 128,-1,49
 361 463 361 463 406 453 c 0,50,51
 456 443 456 443 501.5 428.5 c 128,-1,52
 547 414 547 414 582 389.5 c 128,-1,53
 617 365 617 365 637.5 324.5 c 128,-1,54
 658 284 658 284 658 220 c 0,55,56
 658 135 658 135 626.5 81 c 128,-1,57
 595 27 595 27 534 1 c 128,-1,58
 473 -25 473 -25 382 -25 c 0,59,60
 305 -25 305 -25 251.5 -5 c 128,-1,61
 198 15 198 15 168.5 63.5 c 128,-1,62
 139 112 139 112 132 198 c 1,63,-1
 171 141 l 1,64,-1
 150 -3 l 1,65,-1
 50 -3 l 1,66,-1
 50 235 l 1,67,-1
 175 235 l 1,68,69
 191 180 191 180 215 145.5 c 128,-1,70
 239 111 239 111 275 94.5 c 128,-1,71
 311 78 311 78 361 78 c 0,10,11
349 1002 m 256,72,73
 295 1002 295 1002 265 1026.5 c 128,-1,74
 235 1051 235 1051 235 1100 c 256,75,76
 235 1149 235 1149 265 1174 c 128,-1,77
 295 1199 295 1199 349 1199 c 256,78,79
 403 1199 403 1199 432.5 1174 c 128,-1,80
 462 1149 462 1149 462 1100 c 256,81,82
 462 1051 462 1051 432.5 1026.5 c 128,-1,83
 403 1002 403 1002 349 1002 c 256,72,73
EndSplineSet
EndChar

StartChar: T
Encoding: 84 84 168
Width: 774
GlyphClass: 2
Flags: W
AnchorPoint: "Anchor-1" 392 0 basechar 0
AnchorPoint: "Anchor-0" 392 741 basechar 0
LayerCount: 2
Fore
SplineSet
289 157 m 2,0,-1
 289 588 l 1,1,-1
 244 588 l 2,2,3
 214 588 214 588 199.5 582 c 128,-1,4
 185 576 185 576 180.5 564 c 128,-1,5
 176 552 176 552 174 534 c 2,6,-1
 164 423 l 1,7,-1
 42 423 l 1,8,-1
 42 710 l 1,9,-1
 732 710 l 1,10,-1
 732 423 l 1,11,-1
 610 423 l 1,12,-1
 600 534 l 2,13,14
 599 552 599 552 594 564 c 128,-1,15
 589 576 589 576 574.5 582 c 128,-1,16
 560 588 560 588 530 588 c 2,17,-1
 485 588 l 1,18,-1
 485 157 l 2,19,20
 485 135 485 135 504 128 c 128,-1,21
 523 121 523 121 547 121 c 2,22,-1
 567 121 l 1,23,-1
 567 0 l 1,24,-1
 207 0 l 1,25,-1
 207 121 l 1,26,-1
 226 121 l 2,27,28
 251 121 251 121 270 128 c 128,-1,29
 289 135 289 135 289 157 c 2,0,-1
EndSplineSet
EndChar

StartChar: Tcaron
Encoding: 356 356 170
Width: 774
GlyphClass: 1
Flags: W
LayerCount: 2
Fore
SplineSet
318 790 m 1,0,-1
 445 790 l 1,1,-1
 591 943 l 1,2,-1
 591 998 l 1,3,-1
 510 998 l 1,4,-1
 345 890 l 1,5,-1
 425 891 l 1,6,-1
 255 998 l 1,7,-1
 172 998 l 1,8,-1
 172 943 l 1,9,-1
 318 790 l 1,0,-1
289 157 m 2,10,-1
 289 588 l 1,11,-1
 244 588 l 2,12,13
 214 588 214 588 199 582 c 128,-1,14
 184 576 184 576 180 564 c 128,-1,15
 176 552 176 552 173 534 c 2,16,-1
 164 423 l 1,17,-1
 42 423 l 1,18,-1
 42 710 l 1,19,-1
 732 710 l 1,20,-1
 732 423 l 1,21,-1
 610 423 l 1,22,-1
 600 534 l 2,23,24
 599 552 599 552 594 564 c 128,-1,25
 589 576 589 576 574.5 582 c 128,-1,26
 560 588 560 588 530 588 c 2,27,-1
 485 588 l 1,28,-1
 485 157 l 2,29,30
 485 135 485 135 504 128 c 128,-1,31
 523 121 523 121 547 121 c 2,32,-1
 567 121 l 1,33,-1
 567 0 l 1,34,-1
 207 0 l 1,35,-1
 207 121 l 1,36,-1
 226 121 l 2,37,38
 251 121 251 121 270 128 c 128,-1,39
 289 135 289 135 289 157 c 2,10,-1
EndSplineSet
EndChar

StartChar: U
Encoding: 85 85 174
Width: 794
GlyphClass: 2
Flags: W
AnchorPoint: "Anchor-2" 456 0 basechar 0
AnchorPoint: "Anchor-1" 402 0 basechar 0
AnchorPoint: "Anchor-0" 402 741 basechar 0
LayerCount: 2
Fore
SplineSet
301 302 m 2,0,1
 301 250 301 250 310.5 214.5 c 128,-1,2
 320 179 320 179 338 157 c 128,-1,3
 356 135 356 135 382 125 c 128,-1,4
 408 115 408 115 440 115 c 0,5,6
 477 115 477 115 504 125.5 c 128,-1,7
 531 136 531 136 548.5 158.5 c 128,-1,8
 566 181 566 181 574.5 216 c 128,-1,9
 583 251 583 251 583 302 c 2,10,-1
 583 572 l 2,11,12
 583 577 583 577 577.5 580 c 128,-1,13
 572 583 572 583 564 585 c 128,-1,14
 556 587 556 587 545.5 588 c 128,-1,15
 535 589 535 589 524 589 c 2,16,-1
 512 589 l 1,17,-1
 512 710 l 1,18,-1
 757 710 l 1,19,-1
 757 589 l 1,20,-1
 746 589 l 2,21,22
 734 589 734 589 724.5 586.5 c 128,-1,23
 715 584 715 584 709 575.5 c 128,-1,24
 703 567 703 567 703 551 c 2,25,-1
 703 256 l 2,26,27
 703 179 703 179 679.5 125.5 c 128,-1,28
 656 72 656 72 616 38.5 c 128,-1,29
 576 5 576 5 525.5 -10 c 128,-1,30
 475 -25 475 -25 420 -25 c 0,31,32
 348 -25 348 -25 290 -8.5 c 128,-1,33
 232 8 232 8 190.5 43 c 128,-1,34
 149 78 149 78 127.5 132.5 c 128,-1,35
 106 187 106 187 106 262 c 2,36,-1
 106 553 l 2,37,38
 106 575 106 575 89 582 c 128,-1,39
 72 589 72 589 48 589 c 2,40,-1
 37 589 l 1,41,-1
 37 710 l 1,42,-1
 373 710 l 1,43,-1
 373 590 l 1,44,-1
 361 590 l 2,45,46
 351 590 351 590 340.5 589 c 128,-1,47
 330 588 330 588 321 586.5 c 128,-1,48
 312 585 312 585 306.5 583.5 c 128,-1,49
 301 582 301 582 301 579 c 2,50,-1
 301 302 l 2,0,1
EndSplineSet
EndChar

StartChar: Uogonek
Encoding: 370 370 184
Width: 794
GlyphClass: 1
Flags: W
LayerCount: 2
Fore
SplineSet
548 35 m 1,0,-1
 540 0 l 1,1,2
 511 -12 511 -12 484 -18.5 c 128,-1,3
 457 -25 457 -25 420 -25 c 0,4,5
 347 -25 347 -25 289 -8.5 c 128,-1,6
 231 8 231 8 189.5 43 c 128,-1,7
 148 78 148 78 127 132.5 c 128,-1,8
 106 187 106 187 106 262 c 2,9,-1
 106 553 l 2,10,11
 106 575 106 575 90 582 c 128,-1,12
 74 589 74 589 48 589 c 2,13,-1
 37 589 l 1,14,-1
 37 710 l 1,15,-1
 373 710 l 1,16,-1
 373 590 l 1,17,-1
 361 590 l 2,18,19
 351 590 351 590 340.5 589 c 128,-1,20
 330 588 330 588 321 587 c 128,-1,21
 312 586 312 586 306.5 584.5 c 128,-1,22
 301 583 301 583 301 580 c 2,23,-1
 301 297 l 2,24,25
 301 248 301 248 310 213 c 128,-1,26
 319 178 319 178 337.5 156.5 c 128,-1,27
 356 135 356 135 382 125.5 c 128,-1,28
 408 116 408 116 442 116 c 0,29,30
 478 116 478 116 504.5 125.5 c 128,-1,31
 531 135 531 135 548.5 156.5 c 128,-1,32
 566 178 566 178 574.5 213 c 128,-1,33
 583 248 583 248 583 297 c 2,34,-1
 583 572 l 2,35,36
 583 577 583 577 578 580 c 128,-1,37
 573 583 573 583 565 585 c 128,-1,38
 557 587 557 587 546.5 588 c 128,-1,39
 536 589 536 589 524 589 c 2,40,-1
 512 589 l 1,41,-1
 512 710 l 1,42,-1
 757 710 l 1,43,-1
 757 589 l 1,44,-1
 746 589 l 2,45,46
 733 589 733 589 723.5 586.5 c 128,-1,47
 714 584 714 584 709 575.5 c 128,-1,48
 704 567 704 567 704 551 c 2,49,-1
 704 255 l 2,50,51
 704 204 704 204 690.5 163 c 128,-1,52
 677 122 677 122 656 90.5 c 128,-1,53
 635 59 635 59 610 35 c 0,54,55
 586 12 586 12 557.5 -7 c 128,-1,56
 529 -26 529 -26 504 -44 c 128,-1,57
 479 -62 479 -62 463 -81.5 c 128,-1,58
 447 -101 447 -101 447 -124 c 0,59,60
 447 -140 447 -140 458 -150 c 128,-1,61
 469 -160 469 -160 494 -160 c 0,62,63
 517 -160 517 -160 535 -149 c 128,-1,64
 553 -138 553 -138 568 -125 c 1,65,-1
 621 -184 l 1,66,67
 591 -215 591 -215 551.5 -233.5 c 128,-1,68
 512 -252 512 -252 441 -252 c 0,69,70
 392 -252 392 -252 356 -242.5 c 128,-1,71
 320 -233 320 -233 300 -210.5 c 128,-1,72
 280 -188 280 -188 280 -150 c 0,73,74
 280 -125 280 -125 292 -105.5 c 128,-1,75
 304 -86 304 -86 333 -66.5 c 128,-1,76
 362 -47 362 -47 414.5 -22.5 c 128,-1,77
 467 2 467 2 548 35 c 1,0,-1
EndSplineSet
EndChar

StartChar: Uhorn
Encoding: 431 431 185
Width: 949
GlyphClass: 2
Flags: W
AnchorPoint: "Anchor-1" 479 -35 basechar 0
AnchorPoint: "Anchor-0" 479 663 basechar 0
LayerCount: 2
Fore
SplineSet
106 262 m 2,0,-1
 106 553 l 2,1,2
 106 575 106 575 90 582 c 128,-1,3
 74 589 74 589 48 589 c 2,4,-1
 37 589 l 1,5,-1
 37 710 l 1,6,-1
 373 710 l 1,7,-1
 373 590 l 1,8,-1
 361 590 l 2,9,10
 351 590 351 590 340.5 589 c 128,-1,11
 330 588 330 588 321 587 c 128,-1,12
 312 586 312 586 306.5 584.5 c 128,-1,13
 301 583 301 583 301 580 c 2,14,-1
 301 297 l 2,15,16
 301 247 301 247 310.5 212 c 128,-1,17
 320 177 320 177 338 155.5 c 128,-1,18
 356 134 356 134 382 124.5 c 128,-1,19
 408 115 408 115 441 115 c 0,20,21
 490 115 490 115 521 133.5 c 128,-1,22
 552 152 552 152 567.5 192 c 128,-1,23
 583 232 583 232 583 297 c 2,24,-1
 583 572 l 2,25,26
 583 577 583 577 578 580 c 128,-1,27
 573 583 573 583 565 585 c 128,-1,28
 557 587 557 587 546.5 588 c 128,-1,29
 536 589 536 589 524 589 c 2,30,-1
 512 589 l 1,31,-1
 512 710 l 1,32,-1
 663 710 l 2,33,34
 711 710 711 710 740 718 c 128,-1,35
 769 726 769 726 784.5 746 c 128,-1,36
 800 766 800 766 806 801 c 128,-1,37
 812 836 812 836 815 892 c 1,38,-1
 961 892 l 1,39,40
 960 828 960 828 951 780.5 c 128,-1,41
 942 733 942 733 925.5 699.5 c 128,-1,42
 909 666 909 666 885 645 c 128,-1,43
 861 624 861 624 830 612 c 128,-1,44
 799 600 799 600 761 595 c 0,45,46
 743 593 743 593 730.5 589.5 c 128,-1,47
 718 586 718 586 711 578 c 128,-1,48
 704 570 704 570 704 555 c 2,49,-1
 704 255 l 2,50,51
 704 179 704 179 680.5 125.5 c 128,-1,52
 657 72 657 72 617 38.5 c 128,-1,53
 577 5 577 5 526 -10 c 128,-1,54
 475 -25 475 -25 420 -25 c 0,55,56
 347 -25 347 -25 289 -8.5 c 128,-1,57
 231 8 231 8 189.5 43 c 128,-1,58
 148 78 148 78 127 132.5 c 128,-1,59
 106 187 106 187 106 262 c 2,0,-1
EndSplineSet
EndChar

StartChar: Ucaron
Encoding: 467 467 186
Width: 794
GlyphClass: 1
Flags: W
LayerCount: 2
Fore
SplineSet
380 790 m 1,0,-1
 507 790 l 1,1,-1
 653 943 l 1,2,-1
 653 998 l 1,3,-1
 572 998 l 1,4,-1
 407 890 l 1,5,-1
 487 891 l 1,6,-1
 317 998 l 1,7,-1
 234 998 l 1,8,-1
 234 943 l 1,9,-1
 380 790 l 1,0,-1
301 302 m 2,10,11
 301 250 301 250 310.5 214.5 c 128,-1,12
 320 179 320 179 338 157 c 128,-1,13
 356 135 356 135 382 125 c 128,-1,14
 408 115 408 115 440 115 c 0,15,16
 477 115 477 115 504 125.5 c 128,-1,17
 531 136 531 136 548.5 158.5 c 128,-1,18
 566 181 566 181 574.5 216 c 128,-1,19
 583 251 583 251 583 302 c 2,20,-1
 583 572 l 2,21,22
 583 577 583 577 577.5 580 c 128,-1,23
 572 583 572 583 563.5 585 c 128,-1,24
 555 587 555 587 545 588 c 128,-1,25
 535 589 535 589 524 589 c 2,26,-1
 512 589 l 1,27,-1
 512 710 l 1,28,-1
 757 710 l 1,29,-1
 757 589 l 1,30,-1
 746 589 l 2,31,32
 734 589 734 589 724.5 586.5 c 128,-1,33
 715 584 715 584 709 575.5 c 128,-1,34
 703 567 703 567 703 551 c 2,35,-1
 703 256 l 2,36,37
 703 179 703 179 679.5 125.5 c 128,-1,38
 656 72 656 72 615.5 38.5 c 128,-1,39
 575 5 575 5 525 -10 c 128,-1,40
 475 -25 475 -25 420 -25 c 0,41,42
 348 -25 348 -25 290 -8.5 c 128,-1,43
 232 8 232 8 190.5 43 c 128,-1,44
 149 78 149 78 127.5 132.5 c 128,-1,45
 106 187 106 187 106 262 c 2,46,-1
 106 553 l 2,47,48
 106 575 106 575 89 582 c 128,-1,49
 72 589 72 589 48 589 c 2,50,-1
 37 589 l 1,51,-1
 37 710 l 1,52,-1
 373 710 l 1,53,-1
 373 590 l 1,54,-1
 361 590 l 2,55,56
 351 590 351 590 340.5 589 c 128,-1,57
 330 588 330 588 321 586.5 c 128,-1,58
 312 585 312 585 306.5 583.5 c 128,-1,59
 301 582 301 582 301 579 c 2,60,-1
 301 302 l 2,10,11
EndSplineSet
EndChar

StartChar: Udieresiscaron
Encoding: 473 473 187
Width: 834
GlyphClass: 1
Flags: W
LayerCount: 2
Fore
SplineSet
366 1019 m 1,0,-1
 494 1019 l 1,1,-1
 640 1172 l 1,2,-1
 640 1227 l 1,3,-1
 559 1227 l 1,4,-1
 393 1120 l 1,5,-1
 474 1121 l 1,6,-1
 304 1227 l 1,7,-1
 220 1227 l 1,8,-1
 220 1172 l 1,9,-1
 366 1019 l 1,0,-1
301 302 m 2,10,11
 301 250 301 250 310.5 214.5 c 128,-1,12
 320 179 320 179 338 157 c 128,-1,13
 356 135 356 135 382 125 c 128,-1,14
 408 115 408 115 440 115 c 0,15,16
 477 115 477 115 504 125.5 c 128,-1,17
 531 136 531 136 548.5 158.5 c 128,-1,18
 566 181 566 181 574.5 216 c 128,-1,19
 583 251 583 251 583 302 c 2,20,-1
 583 572 l 2,21,22
 583 577 583 577 577.5 580 c 128,-1,23
 572 583 572 583 564 585 c 128,-1,24
 556 587 556 587 545.5 588 c 128,-1,25
 535 589 535 589 524 589 c 2,26,-1
 512 589 l 1,27,-1
 512 710 l 1,28,-1
 757 710 l 1,29,-1
 757 589 l 1,30,-1
 746 589 l 2,31,32
 735 589 735 589 725 586.5 c 128,-1,33
 715 584 715 584 709 575.5 c 128,-1,34
 703 567 703 567 703 551 c 2,35,-1
 703 256 l 2,36,37
 703 179 703 179 679.5 125.5 c 128,-1,38
 656 72 656 72 616 38.5 c 128,-1,39
 576 5 576 5 525.5 -10 c 128,-1,40
 475 -25 475 -25 420 -25 c 0,41,42
 348 -25 348 -25 290 -8.5 c 128,-1,43
 232 8 232 8 190.5 43 c 128,-1,44
 149 78 149 78 127.5 132.5 c 128,-1,45
 106 187 106 187 106 262 c 2,46,-1
 106 553 l 2,47,48
 106 575 106 575 89 582 c 128,-1,49
 72 589 72 589 48 589 c 2,50,-1
 37 589 l 1,51,-1
 37 710 l 1,52,-1
 373 710 l 1,53,-1
 373 590 l 1,54,-1
 361 590 l 2,55,56
 351 590 351 590 340.5 589 c 128,-1,57
 330 588 330 588 321 586.5 c 128,-1,58
 312 585 312 585 306.5 583.5 c 128,-1,59
 301 582 301 582 301 579 c 2,60,-1
 301 302 l 2,10,11
392 896 m 256,61,62
 392 848 392 848 362.5 824.5 c 128,-1,63
 333 801 333 801 279 801 c 256,64,65
 225 801 225 801 195 824 c 128,-1,66
 165 847 165 847 165 896 c 0,67,68
 165 944 165 944 195 966.5 c 128,-1,69
 225 989 225 989 279 989 c 256,70,71
 333 989 333 989 362.5 966.5 c 128,-1,72
 392 944 392 944 392 896 c 256,61,62
692 896 m 256,73,74
 692 848 692 848 662.5 824.5 c 128,-1,75
 633 801 633 801 579 801 c 0,76,77
 526 801 526 801 496 824 c 128,-1,78
 466 847 466 847 466 896 c 0,79,80
 466 944 466 944 496 966.5 c 128,-1,81
 526 989 526 989 579 989 c 0,82,83
 633 989 633 989 662.5 966.5 c 128,-1,84
 692 944 692 944 692 896 c 256,73,74
EndSplineSet
EndChar

StartChar: Udblgrave
Encoding: 532 532 188
Width: 794
GlyphClass: 1
Flags: W
LayerCount: 2
Fore
SplineSet
563 927 m 2,0,-1
 607 838 l 1,1,-1
 607 783 l 1,2,-1
 539 783 l 1,3,-1
 457 830 l 2,4,5
 424 850 424 850 400.5 876.5 c 128,-1,6
 377 903 377 903 377 939 c 0,7,8
 377 970 377 970 399 989.5 c 128,-1,9
 421 1009 421 1009 458 1009 c 0,10,11
 485 1009 485 1009 504.5 998 c 128,-1,12
 524 987 524 987 538 968.5 c 128,-1,13
 552 950 552 950 563 927 c 2,0,-1
326 927 m 2,14,-1
 369 838 l 1,15,-1
 369 783 l 1,16,-1
 301 783 l 1,17,-1
 219 830 l 2,18,19
 186 850 186 850 162.5 876.5 c 128,-1,20
 139 903 139 903 139 939 c 0,21,22
 139 970 139 970 161 989.5 c 128,-1,23
 183 1009 183 1009 220 1009 c 0,24,25
 247 1009 247 1009 267 998 c 128,-1,26
 287 987 287 987 301 968.5 c 128,-1,27
 315 950 315 950 326 927 c 2,14,-1
301 302 m 2,28,29
 301 250 301 250 310.5 214.5 c 128,-1,30
 320 179 320 179 338 157 c 128,-1,31
 356 135 356 135 382 125 c 128,-1,32
 408 115 408 115 440 115 c 0,33,34
 477 115 477 115 504 125.5 c 128,-1,35
 531 136 531 136 548.5 158.5 c 128,-1,36
 566 181 566 181 574.5 216 c 128,-1,37
 583 251 583 251 583 302 c 2,38,-1
 583 572 l 2,39,40
 583 577 583 577 577.5 580 c 128,-1,41
 572 583 572 583 563.5 585 c 128,-1,42
 555 587 555 587 545 588 c 128,-1,43
 535 589 535 589 524 589 c 2,44,-1
 512 589 l 1,45,-1
 512 710 l 1,46,-1
 757 710 l 1,47,-1
 757 589 l 1,48,-1
 746 589 l 2,49,50
 734 589 734 589 724.5 586.5 c 128,-1,51
 715 584 715 584 709 575.5 c 128,-1,52
 703 567 703 567 703 551 c 2,53,-1
 703 256 l 2,54,55
 703 179 703 179 679.5 125.5 c 128,-1,56
 656 72 656 72 615.5 38.5 c 128,-1,57
 575 5 575 5 525 -10 c 128,-1,58
 475 -25 475 -25 420 -25 c 0,59,60
 348 -25 348 -25 290 -8.5 c 128,-1,61
 232 8 232 8 190.5 43 c 128,-1,62
 149 78 149 78 127.5 132.5 c 128,-1,63
 106 187 106 187 106 262 c 2,64,-1
 106 553 l 2,65,66
 106 575 106 575 89 582 c 128,-1,67
 72 589 72 589 48 589 c 2,68,-1
 37 589 l 1,69,-1
 37 710 l 1,70,-1
 373 710 l 1,71,-1
 373 590 l 1,72,-1
 361 590 l 2,73,74
 351 590 351 590 340.5 589 c 128,-1,75
 330 588 330 588 321 586.5 c 128,-1,76
 312 585 312 585 306.5 583.5 c 128,-1,77
 301 582 301 582 301 579 c 2,78,-1
 301 302 l 2,28,29
EndSplineSet
EndChar

StartChar: Uinvertedbreve
Encoding: 534 534 189
Width: 794
GlyphClass: 1
Flags: W
LayerCount: 2
Fore
SplineSet
432 974 m 0,0,1
 356 974 356 974 308.5 953.5 c 128,-1,2
 261 933 261 933 239.5 888.5 c 128,-1,3
 218 844 218 844 217 771 c 1,4,-1
 332 771 l 1,5,6
 334 803 334 803 342 820 c 128,-1,7
 350 837 350 837 371 844 c 128,-1,8
 392 851 392 851 430 851 c 0,9,10
 467 851 467 851 487.5 844 c 128,-1,11
 508 837 508 837 517 820 c 128,-1,12
 526 803 526 803 527 771 c 1,13,-1
 646 771 l 1,14,15
 647 844 647 844 624 888.5 c 128,-1,16
 601 933 601 933 554 953.5 c 128,-1,17
 507 974 507 974 432 974 c 0,0,1
301 302 m 2,18,19
 301 250 301 250 310.5 214.5 c 128,-1,20
 320 179 320 179 338 157 c 128,-1,21
 356 135 356 135 382 125 c 128,-1,22
 408 115 408 115 440 115 c 0,23,24
 477 115 477 115 504 125.5 c 128,-1,25
 531 136 531 136 548.5 158.5 c 128,-1,26
 566 181 566 181 574.5 216 c 128,-1,27
 583 251 583 251 583 302 c 2,28,-1
 583 572 l 2,29,30
 583 577 583 577 577.5 580 c 128,-1,31
 572 583 572 583 563.5 585 c 128,-1,32
 555 587 555 587 545 588 c 128,-1,33
 535 589 535 589 524 589 c 2,34,-1
 512 589 l 1,35,-1
 512 710 l 1,36,-1
 757 710 l 1,37,-1
 757 589 l 1,38,-1
 746 589 l 2,39,40
 734 589 734 589 724.5 586.5 c 128,-1,41
 715 584 715 584 709 575.5 c 128,-1,42
 703 567 703 567 703 551 c 2,43,-1
 703 256 l 2,44,45
 703 179 703 179 679.5 125.5 c 128,-1,46
 656 72 656 72 615.5 38.5 c 128,-1,47
 575 5 575 5 525 -10 c 128,-1,48
 475 -25 475 -25 420 -25 c 0,49,50
 348 -25 348 -25 290 -8.5 c 128,-1,51
 232 8 232 8 190.5 43 c 128,-1,52
 149 78 149 78 127.5 132.5 c 128,-1,53
 106 187 106 187 106 262 c 2,54,-1
 106 553 l 2,55,56
 106 575 106 575 89 582 c 128,-1,57
 72 589 72 589 48 589 c 2,58,-1
 37 589 l 1,59,-1
 37 710 l 1,60,-1
 373 710 l 1,61,-1
 373 590 l 1,62,-1
 361 590 l 2,63,64
 351 590 351 590 340.5 589 c 128,-1,65
 330 588 330 588 321 586.5 c 128,-1,66
 312 585 312 585 306.5 583.5 c 128,-1,67
 301 582 301 582 301 579 c 2,68,-1
 301 302 l 2,18,19
EndSplineSet
EndChar

StartChar: V
Encoding: 86 86 199
Width: 771
GlyphClass: 2
Flags: W
AnchorPoint: "Anchor-0" 360 741 basechar 0
LayerCount: 2
Fore
SplineSet
449 60 m 1,0,-1
 404 62 l 1,1,-1
 561 566 l 2,2,3
 561 573 561 573 556 578 c 128,-1,4
 551 583 551 583 539 586 c 128,-1,5
 527 589 527 589 505 589 c 2,6,-1
 495 589 l 1,7,-1
 495 710 l 1,8,-1
 748 710 l 1,9,-1
 748 589 l 1,10,-1
 742 589 l 2,11,12
 721 589 721 589 703.5 576 c 128,-1,13
 686 563 686 563 674 525 c 2,14,-1
 507 -4 l 1,15,-1
 274 -4 l 1,16,-1
 107 525 l 2,17,18
 95 564 95 564 73.5 576.5 c 128,-1,19
 52 589 52 589 28 589 c 2,20,-1
 23 589 l 1,21,-1
 23 710 l 1,22,-1
 359 710 l 1,23,-1
 359 589 l 1,24,-1
 349 589 l 2,25,26
 325 589 325 589 312.5 587.5 c 128,-1,27
 300 586 300 586 295.5 584 c 128,-1,28
 291 582 291 582 291 578 c 2,29,-1
 449 60 l 1,0,-1
EndSplineSet
EndChar

StartChar: W
Encoding: 87 87 200
Width: 1101
GlyphClass: 2
Flags: W
AnchorPoint: "Anchor-0" 565 741 basechar 0
LayerCount: 2
Fore
SplineSet
23 710 m 1,0,-1
 346 710 l 1,1,-1
 346 589 l 1,2,-1
 334 589 l 2,3,4
 321 589 321 589 309.5 587.5 c 128,-1,5
 298 586 298 586 291 584 c 128,-1,6
 284 582 284 582 284 578 c 2,7,-1
 387 110 l 1,8,-1
 357 125 l 1,9,-1
 508 710 l 1,10,-1
 702 710 l 1,11,-1
 839 115 l 1,12,-1
 804 103 l 1,13,-1
 921 569 l 2,14,15
 921 575 921 575 916 579 c 128,-1,16
 911 583 911 583 901 586 c 128,-1,17
 891 589 891 589 876 589 c 2,18,-1
 864 589 l 1,19,-1
 864 710 l 1,20,-1
 1079 710 l 1,21,-1
 1079 589 l 1,22,-1
 1071 589 l 2,23,24
 1052 589 1052 589 1040.5 578 c 128,-1,25
 1029 567 1029 567 1023 544 c 2,26,-1
 891 0 l 1,27,-1
 684 0 l 1,28,-1
 549 583 l 1,29,-1
 590 582 l 1,30,-1
 437 0 l 1,31,-1
 222 0 l 1,32,-1
 87 563 l 2,33,34
 83 580 83 580 67.5 584.5 c 128,-1,35
 52 589 52 589 31 589 c 2,36,-1
 23 589 l 1,37,-1
 23 710 l 1,0,-1
EndSplineSet
EndChar

StartChar: X
Encoding: 88 88 205
Width: 774
GlyphClass: 2
Flags: W
AnchorPoint: "Anchor-1" 355 0 basechar 0
AnchorPoint: "Anchor-0" 378 741 basechar 0
LayerCount: 2
Fore
SplineSet
31 589 m 1,0,-1
 31 710 l 1,1,-1
 373 710 l 1,2,-1
 373 589 l 1,3,-1
 358 589 l 2,4,5
 347 589 347 589 336 588.5 c 128,-1,6
 325 588 325 588 318.5 586 c 128,-1,7
 312 584 312 584 312 580 c 2,8,-1
 455 397 l 1,9,-1
 486 389 l 1,10,-1
 667 155 l 2,11,12
 685 133 685 133 699 127 c 128,-1,13
 713 121 713 121 734 121 c 2,14,-1
 748 121 l 1,15,-1
 748 0 l 1,16,-1
 399 0 l 1,17,-1
 399 121 l 1,18,-1
 414 121 l 2,19,20
 425 121 425 121 436 121.5 c 128,-1,21
 447 122 447 122 454 124.5 c 128,-1,22
 461 127 461 127 461 130 c 2,23,-1
 303 332 l 1,24,-1
 274 339 l 1,25,-1
 106 555 l 2,26,27
 88 578 88 578 74 583.5 c 128,-1,28
 60 589 60 589 38 589 c 2,29,-1
 31 589 l 1,0,-1
28 0 m 1,30,-1
 28 121 l 1,31,-1
 40 121 l 2,32,33
 59 121 59 121 71 130.5 c 128,-1,34
 83 140 83 140 102 167 c 2,35,-1
 264 394 l 1,36,-1
 369 351 l 1,37,-1
 220 137 l 2,38,39
 220 133 220 133 226 129.5 c 128,-1,40
 232 126 232 126 241 123.5 c 128,-1,41
 250 121 250 121 258 121 c 2,42,-1
 272 121 l 1,43,-1
 272 0 l 1,44,-1
 28 0 l 1,30,-1
494 332 m 1,45,-1
 408 401 l 1,46,-1
 532 572 l 2,47,48
 532 578 532 578 525.5 581.5 c 128,-1,49
 519 585 519 585 510 587 c 128,-1,50
 501 589 501 589 492 589 c 2,51,-1
 482 589 l 1,52,-1
 482 710 l 1,53,-1
 721 710 l 1,54,-1
 721 589 l 1,55,-1
 714 589 l 2,56,57
 696 589 696 589 682 579.5 c 128,-1,58
 668 570 668 570 650 544 c 2,59,-1
 494 332 l 1,45,-1
EndSplineSet
EndChar

StartChar: Y
Encoding: 89 89 206
Width: 740
GlyphClass: 2
Flags: W
AnchorPoint: "Anchor-1" 374 0 basechar 0
AnchorPoint: "Anchor-0" 374 741 basechar 0
LayerCount: 2
Fore
SplineSet
277 290 m 1,0,-1
 285 239 l 1,1,-1
 108 534 l 2,2,3
 96 554 96 554 85.5 566 c 128,-1,4
 75 578 75 578 63 583.5 c 128,-1,5
 51 589 51 589 33 589 c 2,6,-1
 26 589 l 1,7,-1
 26 710 l 1,8,-1
 355 710 l 1,9,-1
 355 589 l 1,10,-1
 343 589 l 2,11,12
 327 589 327 589 315.5 587.5 c 128,-1,13
 304 586 304 586 298 584 c 128,-1,14
 292 582 292 582 292 578 c 2,15,-1
 446 297 l 1,16,-1
 367 288 l 1,17,-1
 528 571 l 2,18,19
 528 577 528 577 522 580.5 c 128,-1,20
 516 584 516 584 507 586.5 c 128,-1,21
 498 589 498 589 488 589 c 2,22,-1
 479 589 l 1,23,-1
 479 710 l 1,24,-1
 714 710 l 1,25,-1
 714 589 l 1,26,-1
 706 589 l 2,27,28
 693 589 693 589 682.5 583.5 c 128,-1,29
 672 578 672 578 662 565.5 c 128,-1,30
 652 553 652 553 640 534 c 2,31,-1
 461 232 l 1,32,-1
 473 290 l 1,33,-1
 473 157 l 2,34,35
 473 135 473 135 491 128 c 128,-1,36
 509 121 509 121 535 121 c 2,37,-1
 554 121 l 1,38,-1
 554 0 l 1,39,-1
 196 0 l 1,40,-1
 196 121 l 1,41,-1
 215 121 l 2,42,43
 241 121 241 121 259 128 c 128,-1,44
 277 135 277 135 277 157 c 2,45,-1
 277 290 l 1,0,-1
EndSplineSet
EndChar

StartChar: Z
Encoding: 90 90 216
Width: 699
GlyphClass: 2
Flags: W
AnchorPoint: "Anchor-1" 370 0 basechar 0
AnchorPoint: "Anchor-0" 370 741 basechar 0
LayerCount: 2
Fore
SplineSet
258 590 m 2,0,1
 237 590 237 590 224 588.5 c 128,-1,2
 211 587 211 587 204 582.5 c 128,-1,3
 197 578 197 578 193.5 569.5 c 128,-1,4
 190 561 190 561 188 547 c 2,5,-1
 179 477 l 1,6,-1
 58 477 l 1,7,-1
 58 710 l 1,8,-1
 633 710 l 1,9,-1
 633 572 l 1,10,-1
 191 42 l 1,11,-1
 159 120 l 1,12,-1
 430 120 l 2,13,14
 463 120 463 120 480 123.5 c 128,-1,15
 497 127 497 127 504.5 136 c 128,-1,16
 512 145 512 145 514 163 c 2,17,-1
 528 263 l 1,18,-1
 650 263 l 1,19,-1
 650 0 l 1,20,-1
 43 0 l 1,21,-1
 43 142 l 1,22,-1
 472 655 l 1,23,-1
 501 590 l 1,24,-1
 258 590 l 2,0,1
EndSplineSet
EndChar

StartChar: Zcaron
Encoding: 381 381 219
Width: 699
GlyphClass: 1
Flags: W
LayerCount: 2
Fore
SplineSet
292 790 m 1,0,-1
 419 790 l 1,1,-1
 565 943 l 1,2,-1
 565 998 l 1,3,-1
 484 998 l 1,4,-1
 319 890 l 1,5,-1
 399 891 l 1,6,-1
 229 998 l 1,7,-1
 146 998 l 1,8,-1
 146 943 l 1,9,-1
 292 790 l 1,0,-1
258 590 m 2,10,11
 237 590 237 590 224 588.5 c 128,-1,12
 211 587 211 587 204 582.5 c 128,-1,13
 197 578 197 578 193.5 569.5 c 128,-1,14
 190 561 190 561 188 547 c 2,15,-1
 179 477 l 1,16,-1
 58 477 l 1,17,-1
 58 710 l 1,18,-1
 633 710 l 1,19,-1
 633 572 l 1,20,-1
 191 42 l 1,21,-1
 159 120 l 1,22,-1
 430 120 l 2,23,24
 463 120 463 120 480 123.5 c 128,-1,25
 497 127 497 127 504.5 136 c 128,-1,26
 512 145 512 145 514 163 c 2,27,-1
 528 263 l 1,28,-1
 650 263 l 1,29,-1
 650 0 l 1,30,-1
 43 0 l 1,31,-1
 43 142 l 1,32,-1
 472 655 l 1,33,-1
 501 590 l 1,34,-1
 258 590 l 2,10,11
EndSplineSet
EndChar

StartChar: AE
Encoding: 198 198 221
Width: 1110
GlyphClass: 2
Flags: W
AnchorPoint: "Anchor-0" 685 741 basechar 0
LayerCount: 2
Fore
SplineSet
194 308 m 1,0,-1
 528 308 l 1,1,-1
 540 199 l 1,2,-1
 184 199 l 1,3,-1
 194 308 l 1,0,-1
666 414 m 1,4,5
 710 417 710 417 757 421.5 c 128,-1,6
 804 426 804 426 852 431 c 128,-1,7
 900 436 900 436 945 440 c 1,8,-1
 945 289 l 1,9,10
 902 293 902 293 855 296 c 128,-1,11
 808 299 808 299 760 303.5 c 128,-1,12
 712 308 712 308 666 311 c 1,13,-1
 666 414 l 1,4,5
432 0 m 1,14,-1
 432 121 l 1,15,-1
 442 121 l 2,16,17
 460 121 460 121 473.5 124 c 128,-1,18
 487 127 487 127 494 134 c 128,-1,19
 501 141 501 141 501 152 c 2,20,-1
 501 599 l 1,21,-1
 462 593 l 1,22,-1
 200 143 l 2,23,24
 200 138 200 138 202.5 132.5 c 128,-1,25
 205 127 205 127 214 124 c 128,-1,26
 223 121 223 121 242 121 c 2,27,-1
 251 121 l 1,28,-1
 251 0 l 1,29,-1
 9 0 l 1,30,-1
 9 121 l 1,31,-1
 15 121 l 2,32,33
 30 121 30 121 41 127 c 128,-1,34
 52 133 52 133 63.5 147 c 128,-1,35
 75 161 75 161 89 185 c 2,36,-1
 312 564 l 1,37,38
 312 576 312 576 310 581 c 128,-1,39
 308 586 308 586 302 587.5 c 128,-1,40
 296 589 296 589 283 589 c 2,41,-1
 278 589 l 1,42,-1
 278 710 l 1,43,-1
 1036 710 l 1,44,-1
 1036 510 l 1,45,-1
 912 510 l 1,46,-1
 902 547 l 2,47,48
 897 565 897 565 888.5 574.5 c 128,-1,49
 880 584 880 584 865 587.5 c 128,-1,50
 850 591 850 591 824 591 c 2,51,-1
 697 591 l 1,52,-1
 697 119 l 1,53,-1
 820 119 l 2,54,55
 847 119 847 119 864.5 121 c 128,-1,56
 882 123 882 123 892 128 c 128,-1,57
 902 133 902 133 906.5 142 c 128,-1,58
 911 151 911 151 914 164 c 2,59,-1
 927 225 l 1,60,-1
 1053 225 l 1,61,-1
 1053 0 l 1,62,-1
 432 0 l 1,14,-1
EndSplineSet
EndChar

StartChar: Eth
Encoding: 208 208 223
Width: 840
GlyphClass: 1
Flags: W
LayerCount: 2
Fore
SplineSet
40 424 m 1,0,-1
 455 424 l 1,1,-1
 455 304 l 1,2,-1
 40 304 l 1,3,-1
 40 424 l 1,0,-1
43 589 m 1,4,-1
 43 710 l 1,5,-1
 426 710 l 2,6,7
 508 710 508 710 575.5 689.5 c 128,-1,8
 643 669 643 669 691.5 626.5 c 128,-1,9
 740 584 740 584 766 517.5 c 128,-1,10
 792 451 792 451 792 359 c 0,11,12
 792 268 792 268 766 200 c 128,-1,13
 740 132 740 132 691.5 88 c 128,-1,14
 643 44 643 44 575.5 22 c 128,-1,15
 508 0 508 0 426 0 c 2,16,-1
 43 0 l 1,17,-1
 43 121 l 1,18,-1
 55 121 l 2,19,20
 78 121 78 121 94.5 128 c 128,-1,21
 111 135 111 135 111 157 c 2,22,-1
 111 553 l 2,23,24
 111 575 111 575 94.5 582 c 128,-1,25
 78 589 78 589 55 589 c 2,26,-1
 43 589 l 1,4,-1
402 590 m 2,27,-1
 306 590 l 1,28,-1
 306 120 l 1,29,-1
 402 120 l 2,30,31
 450 120 450 120 485 133.5 c 128,-1,32
 520 147 520 147 543 175.5 c 128,-1,33
 566 204 566 204 577 249.5 c 128,-1,34
 588 295 588 295 588 359 c 256,35,36
 588 423 588 423 577 467.5 c 128,-1,37
 566 512 566 512 543 539 c 128,-1,38
 520 566 520 566 485 578 c 128,-1,39
 450 590 450 590 402 590 c 2,27,-1
EndSplineSet
EndChar

StartChar: Oslash
Encoding: 216 216 224
Width: 838
GlyphClass: 2
Flags: W
AnchorPoint: "Anchor-0" 419 731 basechar 0
LayerCount: 2
Fore
SplineSet
420 609 m 0,0,1
 377 609 377 609 346.5 596 c 128,-1,2
 316 583 316 583 296.5 554.5 c 128,-1,3
 277 526 277 526 267 477 c 128,-1,4
 257 428 257 428 257 355 c 0,5,6
 257 278 257 278 265.5 228 c 128,-1,7
 274 178 274 178 293 150.5 c 128,-1,8
 312 123 312 123 343 112 c 128,-1,9
 374 101 374 101 420 101 c 0,10,11
 462 101 462 101 492 114 c 128,-1,12
 522 127 522 127 542 155.5 c 128,-1,13
 562 184 562 184 571 233 c 128,-1,14
 580 282 580 282 580 355 c 0,15,16
 580 432 580 432 571.5 482 c 128,-1,17
 563 532 563 532 544.5 559.5 c 128,-1,18
 526 587 526 587 495 598 c 128,-1,19
 464 609 464 609 420 609 c 0,0,1
420 -25 m 0,20,21
 341 -25 341 -25 273 1.5 c 128,-1,22
 205 28 205 28 154.5 77 c 128,-1,23
 104 126 104 126 76 196.5 c 128,-1,24
 48 267 48 267 48 355 c 0,25,26
 48 450 48 450 74 521.5 c 128,-1,27
 100 593 100 593 149.5 640 c 128,-1,28
 199 687 199 687 267 711 c 128,-1,29
 335 735 335 735 420 735 c 0,30,31
 499 735 499 735 566.5 708.5 c 128,-1,32
 634 682 634 682 684 632.5 c 128,-1,33
 734 583 734 583 762 513 c 128,-1,34
 790 443 790 443 790 355 c 0,35,36
 790 260 790 260 764 188.5 c 128,-1,37
 738 117 738 117 689.5 70 c 128,-1,38
 641 23 641 23 572.5 -1 c 128,-1,39
 504 -25 504 -25 420 -25 c 0,20,21
-14 -25 m 1,40,-1
 719 735 l 1,41,-1
 852 735 l 1,42,-1
 119 -25 l 1,43,-1
 -14 -25 l 1,40,-1
EndSplineSet
EndChar

StartChar: Thorn
Encoding: 222 222 226
Width: 773
GlyphClass: 1
Flags: W
LayerCount: 2
Fore
SplineSet
395 710 m 1,0,-1
 43 710 l 1,1,-1
 43 596 l 1,2,-1
 53 596 l 2,3,4
 80 596 80 596 95 589 c 128,-1,5
 110 582 110 582 110 560 c 2,6,-1
 110 150 l 2,7,8
 110 128 110 128 95 121 c 128,-1,9
 80 114 80 114 53 114 c 2,10,-1
 43 114 l 1,11,-1
 43 0 l 1,12,-1
 395 0 l 1,13,-1
 395 120 l 1,14,-1
 371 120 l 2,15,16
 358 120 358 120 346 121 c 128,-1,17
 334 122 334 122 325.5 123 c 128,-1,18
 317 124 317 124 311.5 125.5 c 128,-1,19
 306 127 306 127 306 130 c 2,20,-1
 306 581 l 2,21,22
 306 583 306 583 311.5 584 c 128,-1,23
 317 585 317 585 325.5 586.5 c 128,-1,24
 334 588 334 588 346 588.5 c 128,-1,25
 358 589 358 589 371 589 c 2,26,-1
 395 589 l 1,27,-1
 395 710 l 1,0,-1
728 364 m 0,28,29
 728 423 728 423 700.5 462 c 128,-1,30
 673 501 673 501 619.5 520.5 c 128,-1,31
 566 540 566 540 488 540 c 2,32,-1
 221 540 l 1,33,-1
 228 434 l 1,34,-1
 442 434 l 2,35,36
 475 434 475 434 495 426.5 c 128,-1,37
 515 419 515 419 524.5 403 c 128,-1,38
 534 387 534 387 534 361 c 256,39,40
 534 335 534 335 524.5 318 c 128,-1,41
 515 301 515 301 494 292.5 c 128,-1,42
 473 284 473 284 440 284 c 2,43,-1
 249 284 l 1,44,-1
 249 179 l 1,45,-1
 484 179 l 2,46,47
 561 179 561 179 615.5 200.5 c 128,-1,48
 670 222 670 222 699 263 c 128,-1,49
 728 304 728 304 728 364 c 0,28,29
EndSplineSet
EndChar

StartChar: Hbar
Encoding: 294 294 228
Width: 861
GlyphClass: 1
Flags: W
LayerCount: 2
Fore
SplineSet
207 364 m 1,0,-1
 624 364 l 1,1,-1
 624 260 l 1,2,-1
 207 260 l 1,3,-1
 207 364 l 1,0,-1
43 0 m 1,4,-1
 43 121 l 1,5,-1
 54 121 l 2,6,7
 78 121 78 121 94.5 128 c 128,-1,8
 111 135 111 135 111 157 c 2,9,-1
 111 553 l 2,10,11
 111 575 111 575 94.5 582 c 128,-1,12
 78 589 78 589 54 589 c 2,13,-1
 43 589 l 1,14,-1
 43 710 l 1,15,-1
 372 710 l 1,16,-1
 372 591 l 1,17,-1
 363 591 l 2,18,19
 354 591 354 591 344.5 589.5 c 128,-1,20
 335 588 335 588 326 587 c 128,-1,21
 317 586 317 586 311.5 584.5 c 128,-1,22
 306 583 306 583 306 580 c 2,23,-1
 306 129 l 2,24,25
 306 127 306 127 311.5 125.5 c 128,-1,26
 317 124 317 124 326 122.5 c 128,-1,27
 335 121 335 121 344.5 121 c 128,-1,28
 354 121 354 121 363 121 c 2,29,-1
 372 121 l 1,30,-1
 372 0 l 1,31,-1
 43 0 l 1,4,-1
489 0 m 1,32,-1
 489 119 l 1,33,-1
 498 119 l 2,34,35
 507 119 507 119 517 120.5 c 128,-1,36
 527 122 527 122 535.5 123 c 128,-1,37
 544 124 544 124 549.5 125.5 c 128,-1,38
 555 127 555 127 555 130 c 2,39,-1
 555 581 l 2,40,41
 555 583 555 583 549.5 584.5 c 128,-1,42
 544 586 544 586 535.5 587.5 c 128,-1,43
 527 589 527 589 517 589 c 128,-1,44
 507 589 507 589 498 589 c 2,45,-1
 489 589 l 1,46,-1
 489 710 l 1,47,-1
 818 710 l 1,48,-1
 818 589 l 1,49,-1
 807 589 l 2,50,51
 783 589 783 589 766.5 582 c 128,-1,52
 750 575 750 575 750 553 c 2,53,-1
 750 157 l 2,54,55
 750 135 750 135 766.5 128 c 128,-1,56
 783 121 783 121 807 121 c 2,57,-1
 818 121 l 1,58,-1
 818 0 l 1,59,-1
 489 0 l 1,32,-1
26 427 m 1,60,-1
 26 531 l 1,61,-1
 835 531 l 1,62,-1
 835 427 l 1,63,-1
 26 427 l 1,60,-1
EndSplineSet
EndChar

StartChar: Ldot
Encoding: 319 319 230
Width: 719
GlyphClass: 1
Flags: W
LayerCount: 2
Fore
SplineSet
395 710 m 1,0,-1
 43 710 l 1,1,-1
 43 589 l 1,2,-1
 54 589 l 2,3,4
 78 589 78 589 94.5 582 c 128,-1,5
 111 575 111 575 111 553 c 2,6,-1
 111 157 l 2,7,8
 111 135 111 135 94.5 128 c 128,-1,9
 78 121 78 121 54 121 c 2,10,-1
 43 121 l 1,11,-1
 43 0 l 1,12,-1
 660 0 l 1,13,-1
 660 246 l 1,14,-1
 534 246 l 1,15,-1
 521 164 l 2,16,17
 518 146 518 146 510.5 136 c 128,-1,18
 503 126 503 126 485 122.5 c 128,-1,19
 467 119 467 119 431 119 c 2,20,-1
 306 119 l 1,21,-1
 306 553 l 2,22,23
 306 575 306 575 325 582 c 128,-1,24
 344 589 344 589 375 589 c 2,25,-1
 395 589 l 1,26,-1
 395 710 l 1,0,-1
578 328 m 0,27,28
 523 328 523 328 489.5 357 c 128,-1,29
 456 386 456 386 456 442 c 256,30,31
 456 498 456 498 489.5 526.5 c 128,-1,32
 523 555 523 555 578 555 c 0,33,34
 635 555 635 555 668.5 526.5 c 128,-1,35
 702 498 702 498 702 442 c 256,36,37
 702 386 702 386 668.5 357 c 128,-1,38
 635 328 635 328 578 328 c 0,27,28
EndSplineSet
Ligature2: "Ligature Substitution lookup 5 subtable" L periodcentered
EndChar

StartChar: Lslash
Encoding: 321 321 231
Width: 712
GlyphClass: 1
Flags: W
LayerCount: 2
Fore
SplineSet
23 160 m 1,0,-1
 531 446 l 1,1,-1
 531 573 l 1,2,-1
 23 287 l 1,3,-1
 23 160 l 1,0,-1
405 710 m 1,4,-1
 54 710 l 1,5,-1
 54 589 l 1,6,-1
 65 589 l 2,7,8
 88 589 88 589 104.5 582 c 128,-1,9
 121 575 121 575 121 553 c 2,10,-1
 121 157 l 2,11,12
 121 135 121 135 104.5 128 c 128,-1,13
 88 121 88 121 65 121 c 2,14,-1
 54 121 l 1,15,-1
 54 0 l 1,16,-1
 670 0 l 1,17,-1
 670 265 l 1,18,-1
 545 265 l 1,19,-1
 531 164 l 2,20,21
 529 146 529 146 522 136 c 128,-1,22
 515 126 515 126 496.5 122.5 c 128,-1,23
 478 119 478 119 441 119 c 2,24,-1
 317 119 l 1,25,-1
 317 553 l 2,26,27
 317 575 317 575 335.5 582 c 128,-1,28
 354 589 354 589 386 589 c 2,29,-1
 405 589 l 1,30,-1
 405 710 l 1,4,-1
EndSplineSet
EndChar

StartChar: Eng
Encoding: 330 330 232
Width: 832
GlyphClass: 1
Flags: W
LayerCount: 2
Fore
SplineSet
739 -26 m 2,0,1
 739 -83 739 -83 721.5 -126 c 128,-1,2
 704 -169 704 -169 671.5 -196 c 128,-1,3
 639 -223 639 -223 593.5 -236.5 c 128,-1,4
 548 -250 548 -250 494 -250 c 0,5,6
 444 -250 444 -250 407 -243 c 128,-1,7
 370 -236 370 -236 345 -227 c 1,8,-1
 345 -105 l 1,9,10
 358 -109 358 -109 377.5 -115 c 128,-1,11
 397 -121 397 -121 421.5 -125.5 c 128,-1,12
 446 -130 446 -130 475 -130 c 0,13,14
 521 -130 521 -130 550 -118.5 c 128,-1,15
 579 -107 579 -107 593.5 -80 c 128,-1,16
 608 -53 608 -53 608 -7 c 2,17,-1
 608 71 l 1,18,-1
 644 -83 l 1,19,-1
 176 666 l 1,20,-1
 230 655 l 1,21,-1
 230 130 l 2,22,23
 230 128 230 128 235 125.5 c 128,-1,24
 240 123 240 123 249.5 122 c 128,-1,25
 259 121 259 121 270 121 c 2,26,-1
 283 121 l 1,27,-1
 283 0 l 1,28,-1
 44 0 l 1,29,-1
 44 121 l 1,30,-1
 55 121 l 2,31,32
 72 121 72 121 83 124 c 128,-1,33
 94 127 94 127 99.5 135 c 128,-1,34
 105 143 105 143 105 157 c 2,35,-1
 105 553 l 2,36,37
 105 568 105 568 99.5 575.5 c 128,-1,38
 94 583 94 583 83 586 c 128,-1,39
 72 589 72 589 55 589 c 2,40,-1
 44 589 l 1,41,-1
 44 710 l 1,42,-1
 363 710 l 1,43,-1
 694 173 l 1,44,-1
 614 156 l 1,45,-1
 614 580 l 2,46,47
 614 584 614 584 608.5 585.5 c 128,-1,48
 603 587 603 587 594 588 c 128,-1,49
 585 589 585 589 574 589 c 2,50,-1
 561 589 l 1,51,-1
 561 710 l 1,52,-1
 792 710 l 1,53,-1
 792 589 l 1,54,-1
 782 589 l 2,55,56
 765 589 765 589 755.5 587.5 c 128,-1,57
 746 586 746 586 742.5 579 c 128,-1,58
 739 572 739 572 739 557 c 2,59,-1
 739 -26 l 2,0,1
EndSplineSet
Substitution2: "'ss07' Style Set 7 lookup 67 subtable" Eng.afr
EndChar

StartChar: OE
Encoding: 338 338 233
Width: 1140
GlyphClass: 1
Flags: W
LayerCount: 2
Fore
SplineSet
696 415 m 1,0,1
 743 420 743 420 789 424 c 128,-1,2
 835 428 835 428 881 432.5 c 128,-1,3
 927 437 927 437 974 441 c 1,4,-1
 974 289 l 1,5,6
 927 294 927 294 881 297.5 c 128,-1,7
 835 301 835 301 789 305.5 c 128,-1,8
 743 310 743 310 696 313 c 1,9,-1
 696 415 l 1,0,1
438 120 m 2,10,-1
 532 120 l 1,11,-1
 532 590 l 1,12,-1
 438 590 l 2,13,14
 390 590 390 590 355 578 c 128,-1,15
 320 566 320 566 297.5 538.5 c 128,-1,16
 275 511 275 511 263.5 465 c 128,-1,17
 252 419 252 419 252 351 c 256,18,19
 252 283 252 283 263.5 238 c 128,-1,20
 275 193 275 193 297.5 167 c 128,-1,21
 320 141 320 141 355 130.5 c 128,-1,22
 390 120 390 120 438 120 c 2,10,-1
414 0 m 2,23,24
 332 0 332 0 264.5 20.5 c 128,-1,25
 197 41 197 41 148.5 83.5 c 128,-1,26
 100 126 100 126 74 192.5 c 128,-1,27
 48 259 48 259 48 351 c 0,28,29
 48 442 48 442 74 510 c 128,-1,30
 100 578 100 578 148.5 622 c 128,-1,31
 197 666 197 666 264.5 688 c 128,-1,32
 332 710 332 710 414 710 c 2,33,-1
 1068 710 l 1,34,-1
 1068 510 l 1,35,-1
 933 510 l 1,36,-1
 924 546 l 2,37,38
 921 564 921 564 914 573.5 c 128,-1,39
 907 583 907 583 892 587 c 128,-1,40
 877 591 877 591 848 591 c 2,41,-1
 728 591 l 1,42,-1
 728 119 l 1,43,-1
 846 119 l 2,44,45
 873 119 873 119 889.5 121 c 128,-1,46
 906 123 906 123 915 128 c 128,-1,47
 924 133 924 133 928 142 c 128,-1,48
 932 151 932 151 935 164 c 2,49,-1
 948 225 l 1,50,-1
 1084 225 l 1,51,-1
 1084 0 l 1,52,-1
 414 0 l 2,23,24
EndSplineSet
EndChar

StartChar: Tbar
Encoding: 358 358 234
Width: 774
GlyphClass: 1
Flags: W
LayerCount: 2
Fore
SplineSet
144 344 m 1,0,-1
 629 344 l 1,1,-1
 629 218 l 1,2,-1
 144 218 l 1,3,-1
 144 344 l 1,0,-1
289 157 m 2,4,-1
 289 588 l 1,5,-1
 244 588 l 2,6,7
 214 588 214 588 199.5 582 c 128,-1,8
 185 576 185 576 180.5 564 c 128,-1,9
 176 552 176 552 174 534 c 2,10,-1
 164 423 l 1,11,-1
 42 423 l 1,12,-1
 42 710 l 1,13,-1
 732 710 l 1,14,-1
 732 423 l 1,15,-1
 610 423 l 1,16,-1
 600 534 l 2,17,18
 599 552 599 552 594 564 c 128,-1,19
 589 576 589 576 574.5 582 c 128,-1,20
 560 588 560 588 530 588 c 2,21,-1
 485 588 l 1,22,-1
 485 157 l 2,23,24
 485 135 485 135 504 128 c 128,-1,25
 523 121 523 121 547 121 c 2,26,-1
 567 121 l 1,27,-1
 567 0 l 1,28,-1
 207 0 l 1,29,-1
 207 121 l 1,30,-1
 226 121 l 2,31,32
 251 121 251 121 270 128 c 128,-1,33
 289 135 289 135 289 157 c 2,4,-1
EndSplineSet
EndChar

StartChar: Bhook
Encoding: 385 385 235
Width: 885
GlyphClass: 2
Flags: W
AnchorPoint: "Anchor-1" 478 0 basechar 0
AnchorPoint: "Anchor-0" 443 741 basechar 0
LayerCount: 2
Fore
SplineSet
360 426 m 1,0,-1
 523 426 l 2,1,2
 553 426 553 426 572 434.5 c 128,-1,3
 591 443 591 443 600.5 462.5 c 128,-1,4
 610 482 610 482 610 515 c 0,5,6
 610 540 610 540 601 557 c 128,-1,7
 592 574 592 574 573 583.5 c 128,-1,8
 554 593 554 593 525 593 c 2,9,-1
 414 593 l 1,10,-1
 414 117 l 1,11,-1
 529 117 l 2,12,13
 564 117 564 117 586.5 128 c 128,-1,14
 609 139 609 139 620.5 161.5 c 128,-1,15
 632 184 632 184 632 216 c 0,16,17
 632 250 632 250 620 272 c 128,-1,18
 608 294 608 294 582.5 304.5 c 128,-1,19
 557 315 557 315 517 315 c 2,20,-1
 360 315 l 1,21,-1
 360 426 l 1,0,-1
190 710 m 2,22,-1
 566 710 l 2,23,24
 626 710 626 710 670.5 701 c 128,-1,25
 715 692 715 692 745.5 671.5 c 128,-1,26
 776 651 776 651 791 619 c 128,-1,27
 806 587 806 587 806 542 c 0,28,29
 806 488 806 488 782 453.5 c 128,-1,30
 758 419 758 419 711 401.5 c 128,-1,31
 664 384 664 384 597 379 c 1,32,-1
 603 409 l 1,33,-1
 603 332 l 1,34,-1
 596 370 l 1,35,36
 672 362 672 362 725 343.5 c 128,-1,37
 778 325 778 325 805.5 290 c 128,-1,38
 833 255 833 255 833 196 c 0,39,40
 833 145 833 145 816 107.5 c 128,-1,41
 799 70 799 70 766 46.5 c 128,-1,42
 733 23 733 23 685 11.5 c 128,-1,43
 637 0 637 0 573 0 c 2,44,-1
 151 0 l 1,45,-1
 151 121 l 1,46,-1
 162 121 l 2,47,48
 185 121 185 121 202 128 c 128,-1,49
 219 135 219 135 219 157 c 2,50,-1
 219 593 l 1,51,-1
 188 593 l 2,52,53
 168 593 168 593 154.5 586 c 128,-1,54
 141 579 141 579 134.5 561.5 c 128,-1,55
 128 544 128 544 128 511 c 0,56,57
 128 484 128 484 131.5 463.5 c 128,-1,58
 135 443 135 443 140 427 c 1,59,-1
 15 427 l 1,60,61
 11 443 11 443 8.5 467 c 128,-1,62
 6 491 6 491 6 514 c 0,63,64
 6 578 6 578 25.5 621 c 128,-1,65
 45 664 45 664 85 687 c 128,-1,66
 125 710 125 710 190 710 c 2,22,-1
EndSplineSet
EndChar

StartChar: Dhook
Encoding: 394 394 236
Width: 948
GlyphClass: 2
Flags: W
AnchorPoint: "Anchor-1" 474 0 basechar 0
AnchorPoint: "Anchor-0" 446 741 basechar 0
LayerCount: 2
Fore
SplineSet
191 710 m 2,0,-1
 536 710 l 2,1,2
 617 710 617 710 684.5 689.5 c 128,-1,3
 752 669 752 669 800.5 626.5 c 128,-1,4
 849 584 849 584 875 517.5 c 128,-1,5
 901 451 901 451 901 359 c 0,6,7
 901 268 901 268 875 200 c 128,-1,8
 849 132 849 132 800.5 88 c 128,-1,9
 752 44 752 44 684.5 22 c 128,-1,10
 617 0 617 0 536 0 c 2,11,-1
 152 0 l 1,12,-1
 152 121 l 1,13,-1
 164 121 l 2,14,15
 187 121 187 121 203.5 128 c 128,-1,16
 220 135 220 135 220 157 c 2,17,-1
 220 591 l 1,18,-1
 190 591 l 2,19,20
 169 591 169 591 156 584 c 128,-1,21
 143 577 143 577 136.5 559.5 c 128,-1,22
 130 542 130 542 130 510 c 0,23,24
 130 484 130 484 133.5 464 c 128,-1,25
 137 444 137 444 141 427 c 1,26,-1
 16 427 l 1,27,28
 13 443 13 443 10 467 c 128,-1,29
 7 491 7 491 7 514 c 0,30,31
 7 578 7 578 26.5 621.5 c 128,-1,32
 46 665 46 665 86 687.5 c 128,-1,33
 126 710 126 710 191 710 c 2,0,-1
511 590 m 2,34,-1
 416 590 l 1,35,-1
 416 120 l 1,36,-1
 511 120 l 2,37,38
 559 120 559 120 594 133.5 c 128,-1,39
 629 147 629 147 652 175.5 c 128,-1,40
 675 204 675 204 686 249.5 c 128,-1,41
 697 295 697 295 697 359 c 256,42,43
 697 423 697 423 686 467.5 c 128,-1,44
 675 512 675 512 652 539 c 128,-1,45
 629 566 629 566 594 578 c 128,-1,46
 559 590 559 590 511 590 c 2,34,-1
EndSplineSet
EndChar

StartChar: Schwa
Encoding: 399 399 237
Width: 786
GlyphClass: 1
Flags: W
LayerCount: 2
Fore
SplineSet
377 739 m 0,0,1
 492 739 492 739 572.5 698.5 c 128,-1,2
 653 658 653 658 695.5 575 c 128,-1,3
 738 492 738 492 738 363 c 0,4,5
 738 275 738 275 713.5 203.5 c 128,-1,6
 689 132 689 132 643.5 81 c 128,-1,7
 598 30 598 30 532 3 c 128,-1,8
 466 -24 466 -24 382 -24 c 0,9,10
 261 -24 261 -24 188.5 23.5 c 128,-1,11
 116 71 116 71 84 168 c 128,-1,12
 52 265 52 265 49 414 c 1,13,-1
 631 414 l 1,14,-1
 631 297 l 1,15,-1
 222 297 l 1,16,-1
 245 339 l 1,17,18
 247 268 247 268 254 221.5 c 128,-1,19
 261 175 261 175 276 149 c 128,-1,20
 291 123 291 123 316.5 112.5 c 128,-1,21
 342 102 342 102 380 102 c 0,22,23
 420 102 420 102 448.5 114 c 128,-1,24
 477 126 477 126 496 155.5 c 128,-1,25
 515 185 515 185 524 237 c 128,-1,26
 533 289 533 289 533 369 c 256,27,28
 533 449 533 449 522.5 497 c 128,-1,29
 512 545 512 545 491 570.5 c 128,-1,30
 470 596 470 596 438 604.5 c 128,-1,31
 406 613 406 613 362 613 c 0,32,33
 315 613 315 613 281.5 606 c 128,-1,34
 248 599 248 599 220 575.5 c 128,-1,35
 192 552 192 552 163 505 c 1,36,-1
 59 575 l 1,37,38
 94 629 94 629 138.5 665.5 c 128,-1,39
 183 702 183 702 241.5 720.5 c 128,-1,40
 300 739 300 739 377 739 c 0,0,1
EndSplineSet
EndChar

StartChar: Khook
Encoding: 408 408 238
Width: 891
GlyphClass: 2
Flags: W
AnchorPoint: "Anchor-1" 454 0 basechar 0
AnchorPoint: "Anchor-0" 508 741 basechar 0
LayerCount: 2
Fore
SplineSet
43 0 m 1,0,-1
 43 121 l 1,1,-1
 54 121 l 2,2,3
 78 121 78 121 94.5 128 c 128,-1,4
 111 135 111 135 111 157 c 2,5,-1
 111 553 l 2,6,7
 111 575 111 575 94.5 582 c 128,-1,8
 78 589 78 589 54 589 c 2,9,-1
 43 589 l 1,10,-1
 43 710 l 1,11,-1
 379 710 l 1,12,-1
 379 589 l 1,13,-1
 367 589 l 2,14,15
 355 589 355 589 344 589 c 128,-1,16
 333 589 333 589 324.5 587.5 c 128,-1,17
 316 586 316 586 311 584.5 c 128,-1,18
 306 583 306 583 306 580 c 2,19,-1
 306 130 l 2,20,21
 306 127 306 127 311 126 c 128,-1,22
 316 125 316 125 323.5 123.5 c 128,-1,23
 331 122 331 122 340 121.5 c 128,-1,24
 349 121 349 121 357 121 c 2,25,-1
 365 121 l 1,26,-1
 365 0 l 1,27,-1
 43 0 l 1,0,-1
767 719 m 0,28,29
 810 719 810 719 836 701.5 c 128,-1,30
 862 684 862 684 873.5 651.5 c 128,-1,31
 885 619 885 619 885 574 c 0,32,33
 885 538 885 538 880 501.5 c 128,-1,34
 875 465 875 465 871 447 c 1,35,-1
 743 447 l 1,36,37
 748 458 748 458 751.5 473 c 128,-1,38
 755 488 755 488 758 505.5 c 128,-1,39
 761 523 761 523 761 540 c 0,40,41
 761 562 761 562 753 572 c 128,-1,42
 745 582 745 582 729 582 c 0,43,44
 719 582 719 582 709.5 577 c 128,-1,45
 700 572 700 572 685 559 c 128,-1,46
 670 546 670 546 645 520 c 2,47,-1
 484 356 l 1,48,-1
 497 448 l 1,49,-1
 766 142 l 2,50,51
 774 133 774 133 782 128.5 c 128,-1,52
 790 124 790 124 798.5 122.5 c 128,-1,53
 807 121 807 121 816 121 c 2,54,-1
 829 121 l 1,55,-1
 829 0 l 1,56,-1
 471 0 l 1,57,-1
 471 121 l 1,58,-1
 483 121 l 2,59,60
 496 121 496 121 506 122 c 128,-1,61
 516 123 516 123 522.5 125.5 c 128,-1,62
 529 128 529 128 529 131 c 2,63,-1
 339 349 l 1,64,-1
 339 372 l 1,65,-1
 578 606 l 2,66,67
 613 641 613 641 638.5 663 c 128,-1,68
 664 685 664 685 684.5 697.5 c 128,-1,69
 705 710 705 710 724.5 714.5 c 128,-1,70
 744 719 744 719 767 719 c 0,28,29
EndSplineSet
EndChar

StartChar: Yhook
Encoding: 435 435 239
Width: 844
GlyphClass: 2
Flags: W
AnchorPoint: "Anchor-1" 396 0 basechar 0
AnchorPoint: "Anchor-0" 430 741 basechar 0
LayerCount: 2
Fore
SplineSet
540 589 m 2,0,1
 565 633 565 633 590 661.5 c 128,-1,2
 615 690 615 690 645 704.5 c 128,-1,3
 675 719 675 719 716 719 c 0,4,5
 763 719 763 719 793 701 c 128,-1,6
 823 683 823 683 837 651 c 128,-1,7
 851 619 851 619 851 576 c 0,8,9
 851 540 851 540 845.5 502 c 128,-1,10
 840 464 840 464 835 447 c 1,11,-1
 706 447 l 1,12,13
 711 459 711 459 716 474.5 c 128,-1,14
 721 490 721 490 724 507.5 c 128,-1,15
 727 525 727 525 727 541 c 0,16,17
 727 561 727 561 720.5 571 c 128,-1,18
 714 581 714 581 697 581 c 0,19,20
 687 581 687 581 677.5 576 c 128,-1,21
 668 571 668 571 659 559 c 128,-1,22
 650 547 650 547 638 528 c 2,23,-1
 461 232 l 1,24,-1
 473 290 l 1,25,-1
 473 157 l 2,26,27
 473 135 473 135 491.5 128 c 128,-1,28
 510 121 510 121 535 121 c 2,29,-1
 554 121 l 1,30,-1
 554 0 l 1,31,-1
 196 0 l 1,32,-1
 196 121 l 1,33,-1
 215 121 l 2,34,35
 240 121 240 121 258.5 128 c 128,-1,36
 277 135 277 135 277 157 c 2,37,-1
 277 290 l 1,38,-1
 285 239 l 1,39,-1
 108 534 l 2,40,41
 96 554 96 554 85.5 566 c 128,-1,42
 75 578 75 578 63 583.5 c 128,-1,43
 51 589 51 589 33 589 c 2,44,-1
 26 589 l 1,45,-1
 26 710 l 1,46,-1
 355 710 l 1,47,-1
 355 589 l 1,48,-1
 343 589 l 2,49,50
 327 589 327 589 315.5 587.5 c 128,-1,51
 304 586 304 586 298 584 c 128,-1,52
 292 582 292 582 292 578 c 2,53,-1
 446 297 l 1,54,-1
 367 288 l 1,55,-1
 540 589 l 2,0,1
EndSplineSet
EndChar

StartChar: Germandbls
Encoding: 7838 7838 240
Width: 910
GlyphClass: 1
Flags: W
LayerCount: 2
Fore
SplineSet
590 100 m 0,0,1
 618 100 618 100 632.5 108 c 128,-1,2
 647 116 647 116 652.5 136 c 128,-1,3
 658 156 658 156 658 194 c 0,4,5
 658 226 658 226 650.5 247 c 128,-1,6
 643 268 643 268 624.5 283 c 128,-1,7
 606 298 606 298 572.5 312 c 128,-1,8
 539 326 539 326 485 343 c 1,9,-1
 485 446 l 1,10,-1
 631 623 l 1,11,-1
 657 587 l 1,12,-1
 447 587 l 2,13,14
 402 587 402 587 374 577.5 c 128,-1,15
 346 568 346 568 330 550 c 128,-1,16
 314 532 314 532 307.5 503.5 c 128,-1,17
 301 475 301 475 301 436 c 2,18,-1
 301 0 l 1,19,-1
 37 0 l 1,20,-1
 37 121 l 1,21,-1
 48 121 l 2,22,23
 73 121 73 121 89.5 128 c 128,-1,24
 106 135 106 135 106 157 c 2,25,-1
 106 467 l 2,26,27
 106 523 106 523 120 567.5 c 128,-1,28
 134 612 134 612 165 644 c 128,-1,29
 196 676 196 676 247 693 c 128,-1,30
 298 710 298 710 373 710 c 2,31,-1
 789 710 l 1,32,-1
 789 577 l 1,33,-1
 616 371 l 1,34,-1
 597 433 l 1,35,36
 666 412 666 412 716 390.5 c 128,-1,37
 766 369 766 369 799.5 342.5 c 128,-1,38
 833 316 833 316 849.5 277 c 128,-1,39
 866 238 866 238 866 183 c 0,40,41
 866 119 866 119 844.5 75 c 128,-1,42
 823 31 823 31 775.5 8.5 c 128,-1,43
 728 -14 728 -14 652 -14 c 0,44,45
 582 -14 582 -14 542 5.5 c 128,-1,46
 502 25 502 25 484.5 68 c 128,-1,47
 467 111 467 111 460 179 c 1,48,-1
 501 133 l 1,49,-1
 484 0 l 1,50,-1
 385 0 l 1,51,-1
 385 223 l 1,52,-1
 498 223 l 1,53,54
 503 190 503 190 508.5 167 c 128,-1,55
 514 144 514 144 522.5 129 c 128,-1,56
 531 114 531 114 547 107 c 128,-1,57
 563 100 563 100 590 100 c 0,0,1
EndSplineSet
EndChar

StartChar: Delta
Encoding: 916 916 241
Width: 776
GlyphClass: 1
Flags: W
LayerCount: 2
Fore
SplineSet
45 0 m 1,0,-1
 45 143 l 1,1,-1
 311 710 l 1,2,-1
 465 710 l 1,3,-1
 731 143 l 1,4,-1
 731 0 l 1,5,-1
 45 0 l 1,0,-1
566 100 m 1,6,-1
 323 642 l 1,7,-1
 418 686 l 1,8,-1
 145 101 l 1,9,-1
 76 148 l 1,10,-1
 670 148 l 1,11,-1
 566 100 l 1,6,-1
EndSplineSet
EndChar

StartChar: Omega
Encoding: 937 937 242
Width: 923
GlyphClass: 1
Flags: W
LayerCount: 2
Fore
SplineSet
462 735 m 256,0,1
 363 735 363 735 293 717 c 128,-1,2
 223 699 223 699 179.5 665.5 c 128,-1,3
 136 632 136 632 115.5 585 c 128,-1,4
 95 538 95 538 95 479 c 0,5,6
 95 438 95 438 107.5 403 c 128,-1,7
 120 368 120 368 144 334.5 c 128,-1,8
 168 301 168 301 202.5 264.5 c 128,-1,9
 237 228 237 228 280.5 186.5 c 128,-1,10
 324 145 324 145 375 93 c 1,11,-1
 387 126 l 1,12,-1
 264 126 l 2,13,14
 232 126 232 126 212 129 c 128,-1,15
 192 132 192 132 181.5 141.5 c 128,-1,16
 171 151 171 151 168 169 c 2,17,-1
 158 235 l 1,18,-1
 61 235 l 1,19,-1
 61 0 l 1,20,-1
 413 0 l 1,21,-1
 413 178 l 1,22,23
 381 221 381 221 355.5 253.5 c 128,-1,24
 330 286 330 286 312 316.5 c 128,-1,25
 294 347 294 347 285 383.5 c 128,-1,26
 276 420 276 420 276 471 c 0,27,28
 276 521 276 521 295 552.5 c 128,-1,29
 314 584 314 584 355 598.5 c 128,-1,30
 396 613 396 613 462 613 c 256,31,32
 528 613 528 613 569 598.5 c 128,-1,33
 610 584 610 584 629 552.5 c 128,-1,34
 648 521 648 521 648 471 c 0,35,36
 648 420 648 420 638.5 383.5 c 128,-1,37
 629 347 629 347 611 316.5 c 128,-1,38
 593 286 593 286 567.5 253.5 c 128,-1,39
 542 221 542 221 510 178 c 1,40,-1
 510 0 l 1,41,-1
 863 0 l 1,42,-1
 863 235 l 1,43,-1
 766 235 l 1,44,-1
 755 169 l 2,45,46
 752 151 752 151 742 141.5 c 128,-1,47
 732 132 732 132 712 129 c 128,-1,48
 692 126 692 126 659 126 c 2,49,-1
 537 126 l 1,50,-1
 548 93 l 1,51,52
 600 145 600 145 643.5 186.5 c 128,-1,53
 687 228 687 228 721 264.5 c 128,-1,54
 755 301 755 301 779 334.5 c 128,-1,55
 803 368 803 368 815.5 403 c 128,-1,56
 828 438 828 438 828 479 c 0,57,58
 828 538 828 538 807.5 585 c 128,-1,59
 787 632 787 632 743.5 665.5 c 128,-1,60
 700 699 700 699 630.5 717 c 128,-1,61
 561 735 561 735 462 735 c 256,0,1
EndSplineSet
EndChar

StartChar: Djecyr
Encoding: 1026 1026 244
Width: 942
GlyphClass: 2
Flags: W
AnchorPoint: "Anchor-0" 367 741 basechar 0
LayerCount: 2
Fore
SplineSet
898 200 m 0,0,1
 898 142 898 142 879.5 99.5 c 128,-1,2
 861 57 861 57 824 29 c 128,-1,3
 787 1 787 1 732 -12 c 128,-1,4
 677 -25 677 -25 606 -25 c 1,5,-1
 606 95 l 1,6,7
 637 95 637 95 657 106.5 c 128,-1,8
 677 118 677 118 687.5 141 c 128,-1,9
 698 164 698 164 698 200 c 0,10,11
 698 249 698 249 667.5 276 c 128,-1,12
 637 303 637 303 575 303 c 0,13,14
 540 303 540 303 510 297 c 128,-1,15
 480 291 480 291 448 275 c 1,16,-1
 448 390 l 1,17,18
 483 405 483 405 533 415 c 128,-1,19
 583 425 583 425 646 425 c 0,20,21
 726 425 726 425 783 400.5 c 128,-1,22
 840 376 840 376 869 326.5 c 128,-1,23
 898 277 898 277 898 200 c 0,0,1
194 0 m 1,24,-1
 194 121 l 1,25,-1
 213 121 l 2,26,27
 239 121 239 121 257.5 128 c 128,-1,28
 276 135 276 135 276 157 c 2,29,-1
 276 588 l 1,30,-1
 244 588 l 2,31,32
 214 588 214 588 199.5 582 c 128,-1,33
 185 576 185 576 180.5 564 c 128,-1,34
 176 552 176 552 174 534 c 2,35,-1
 164 423 l 1,36,-1
 42 423 l 1,37,-1
 42 710 l 1,38,-1
 739 710 l 1,39,-1
 739 478 l 1,40,-1
 617 478 l 1,41,-1
 609 534 l 2,42,43
 607 552 607 552 602 564 c 128,-1,44
 597 576 597 576 583 582 c 128,-1,45
 569 588 569 588 542 588 c 2,46,-1
 472 588 l 1,47,-1
 472 130 l 2,48,49
 472 128 472 128 480.5 125.5 c 128,-1,50
 489 123 489 123 501.5 122 c 128,-1,51
 514 121 514 121 525 121 c 2,52,-1
 541 121 l 1,53,-1
 541 0 l 1,54,-1
 194 0 l 1,24,-1
EndSplineSet
EndChar

StartChar: Eukrcyr
Encoding: 1028 1028 245
Width: 777
GlyphClass: 2
Flags: W
AnchorPoint: "Anchor-1" 404 0 basechar 0
AnchorPoint: "Anchor-0" 404 741 basechar 0
LayerCount: 2
Fore
SplineSet
233 415 m 1,0,1
 258 418 258 418 283 420 c 128,-1,2
 308 422 308 422 332.5 424 c 128,-1,3
 357 426 357 426 382 428.5 c 128,-1,4
 407 431 407 431 431.5 433 c 128,-1,5
 456 435 456 435 480.5 437 c 128,-1,6
 505 439 505 439 530 441 c 1,7,-1
 530 289 l 1,8,9
 505 291 505 291 480.5 293 c 128,-1,10
 456 295 456 295 431.5 297 c 128,-1,11
 407 299 407 299 382 301 c 128,-1,12
 357 303 357 303 332.5 305 c 128,-1,13
 308 307 308 307 283 309.5 c 128,-1,14
 258 312 258 312 233 313 c 1,15,-1
 233 415 l 1,0,1
422 610 m 256,16,17
 375 610 375 610 342.5 597.5 c 128,-1,18
 310 585 310 585 290 555.5 c 128,-1,19
 270 526 270 526 261 477 c 128,-1,20
 252 428 252 428 252 355 c 0,21,22
 252 280 252 280 262 230 c 128,-1,23
 272 180 272 180 292.5 151.5 c 128,-1,24
 313 123 313 123 346 111 c 128,-1,25
 379 99 379 99 425 99 c 0,26,27
 484 99 484 99 522 117 c 128,-1,28
 560 135 560 135 584 170 c 128,-1,29
 608 205 608 205 624 256 c 1,30,-1
 726 211 l 1,31,32
 703 135 703 135 662.5 82.5 c 128,-1,33
 622 30 622 30 558.5 2.5 c 128,-1,34
 495 -25 495 -25 403 -25 c 0,35,36
 323 -25 323 -25 258 -2 c 128,-1,37
 193 21 193 21 146 68 c 128,-1,38
 99 115 99 115 73.5 186.5 c 128,-1,39
 48 258 48 258 48 355 c 0,40,41
 48 454 48 454 74 526 c 128,-1,42
 100 598 100 598 147 644 c 128,-1,43
 194 690 194 690 258 712.5 c 128,-1,44
 322 735 322 735 397 735 c 0,45,46
 473 735 473 735 523 705 c 128,-1,47
 573 675 573 675 601.5 619.5 c 128,-1,48
 630 564 630 564 637 486 c 1,49,-1
 591 537 l 1,50,-1
 611 720 l 1,51,-1
 715 720 l 1,52,-1
 715 460 l 1,53,-1
 592 460 l 1,54,55
 581 505 581 505 559 538.5 c 128,-1,56
 537 572 537 572 503 591 c 128,-1,57
 469 610 469 610 422 610 c 256,16,17
EndSplineSet
Substitution2: "'ss01' Style Set 1 lookup 61 subtable" Ieukran.alt1
EndChar

StartChar: Yukrcyr
Encoding: 1031 1031 248
Width: 438
GlyphClass: 2
Flags: W
AnchorPoint: "Anchor-1" 220 0 basechar 0
AnchorPoint: "Anchor-0" 220 969 basechar 0
LayerCount: 2
Fore
SplineSet
202 885 m 256,0,1
 202 837 202 837 177.5 814 c 128,-1,2
 153 791 153 791 109 791 c 0,3,4
 66 791 66 791 41.5 813.5 c 128,-1,5
 17 836 17 836 17 885 c 0,6,7
 17 933 17 933 41.5 956 c 128,-1,8
 66 979 66 979 109 979 c 0,9,10
 153 979 153 979 177.5 956 c 128,-1,11
 202 933 202 933 202 885 c 256,0,1
421 885 m 256,12,13
 421 837 421 837 396.5 814 c 128,-1,14
 372 791 372 791 330 791 c 0,15,16
 286 791 286 791 261.5 813.5 c 128,-1,17
 237 836 237 836 237 885 c 0,18,19
 237 933 237 933 261.5 956 c 128,-1,20
 286 979 286 979 329 979 c 256,21,22
 372 979 372 979 396.5 956 c 128,-1,23
 421 933 421 933 421 885 c 256,12,13
121 157 m 2,24,-1
 121 553 l 2,25,26
 121 575 121 575 104.5 582 c 128,-1,27
 88 589 88 589 63 589 c 2,28,-1
 43 589 l 1,29,-1
 43 710 l 1,30,-1
 395 710 l 1,31,-1
 395 589 l 1,32,-1
 375 589 l 2,33,34
 350 589 350 589 333.5 582 c 128,-1,35
 317 575 317 575 317 553 c 2,36,-1
 317 157 l 2,37,38
 317 135 317 135 333.5 128 c 128,-1,39
 350 121 350 121 375 121 c 2,40,-1
 395 121 l 1,41,-1
 395 0 l 1,42,-1
 43 0 l 1,43,-1
 43 121 l 1,44,-1
 63 121 l 2,45,46
 88 121 88 121 104.5 128 c 128,-1,47
 121 135 121 135 121 157 c 2,24,-1
EndSplineSet
EndChar

StartChar: Ljecyr
Encoding: 1033 1033 250
Width: 1098
GlyphClass: 2
Flags: W
AnchorPoint: "Anchor-0" 439 741 basechar 0
LayerCount: 2
Fore
SplineSet
254 710 m 1,0,-1
 556 710 l 1,1,-1
 556 589 l 1,2,-1
 254 589 l 1,3,-1
 254 710 l 1,0,-1
165 326 m 2,4,-1
 176 553 l 2,5,6
 177 575 177 575 162.5 582 c 128,-1,7
 148 589 148 589 127 589 c 2,8,-1
 116 589 l 1,9,-1
 116 710 l 1,10,-1
 314 710 l 1,11,-1
 298 325 l 2,12,13
 293 208 293 208 270.5 132.5 c 128,-1,14
 248 57 248 57 205 21 c 128,-1,15
 162 -15 162 -15 93 -15 c 0,16,17
 66 -15 66 -15 47.5 -10 c 128,-1,18
 29 -5 29 -5 19 0 c 1,19,-1
 19 177 l 1,20,21
 26 174 26 174 41.5 168 c 128,-1,22
 57 162 57 162 77 162 c 0,23,24
 105 162 105 162 123.5 179.5 c 128,-1,25
 142 197 142 197 152 233.5 c 128,-1,26
 162 270 162 270 165 326 c 2,4,-1
809 0 m 2,27,-1
 409 0 l 1,28,-1
 409 121 l 1,29,-1
 417 121 l 2,30,31
 430 121 430 121 443 122 c 128,-1,32
 456 123 456 123 464.5 125 c 128,-1,33
 473 127 473 127 473 131 c 2,34,-1
 473 710 l 1,35,-1
 740 710 l 1,36,-1
 740 617 l 1,37,-1
 723 617 l 2,38,39
 701 617 701 617 684.5 610 c 128,-1,40
 668 603 668 603 668 581 c 2,41,-1
 668 121 l 1,42,-1
 774 121 l 2,43,44
 806 121 806 121 828 131.5 c 128,-1,45
 850 142 850 142 860.5 165 c 128,-1,46
 871 188 871 188 871 225 c 0,47,48
 871 264 871 264 860.5 288 c 128,-1,49
 850 312 850 312 827.5 323.5 c 128,-1,50
 805 335 805 335 771 335 c 2,51,-1
 632 335 l 1,52,-1
 632 456 l 1,53,-1
 812 456 l 2,54,55
 891 456 891 456 947.5 431 c 128,-1,56
 1004 406 1004 406 1033.5 355 c 128,-1,57
 1063 304 1063 304 1063 226 c 0,58,59
 1063 156 1063 156 1032 105.5 c 128,-1,60
 1001 55 1001 55 943.5 27.5 c 128,-1,61
 886 0 886 0 809 0 c 2,27,-1
EndSplineSet
EndChar

StartChar: Njecyr
Encoding: 1034 1034 251
Width: 1159
GlyphClass: 2
Flags: W
AnchorPoint: "Anchor-0" 429 741 basechar 0
LayerCount: 2
Fore
SplineSet
207 448 m 1,0,-1
 603 448 l 1,1,-1
 603 327 l 1,2,-1
 207 327 l 1,3,-1
 207 448 l 1,0,-1
43 0 m 1,4,-1
 43 121 l 1,5,-1
 54 121 l 2,6,7
 78 121 78 121 94.5 128 c 128,-1,8
 111 135 111 135 111 157 c 2,9,-1
 111 553 l 2,10,11
 111 575 111 575 94.5 582 c 128,-1,12
 78 589 78 589 54 589 c 2,13,-1
 43 589 l 1,14,-1
 43 710 l 1,15,-1
 372 710 l 1,16,-1
 372 589 l 1,17,-1
 363 589 l 2,18,19
 352 589 352 589 338.5 588.5 c 128,-1,20
 325 588 325 588 315.5 586 c 128,-1,21
 306 584 306 584 306 580 c 2,22,-1
 306 129 l 2,23,24
 306 127 306 127 315.5 124.5 c 128,-1,25
 325 122 325 122 338.5 121.5 c 128,-1,26
 352 121 352 121 364 121 c 2,27,-1
 372 121 l 1,28,-1
 372 0 l 1,29,-1
 43 0 l 1,4,-1
469 0 m 1,30,-1
 469 121 l 1,31,-1
 477 121 l 2,32,33
 489 121 489 121 502 121.5 c 128,-1,34
 515 122 515 122 524 124.5 c 128,-1,35
 533 127 533 127 533 130 c 2,36,-1
 533 581 l 2,37,38
 533 584 533 584 524 586 c 128,-1,39
 515 588 515 588 502 588.5 c 128,-1,40
 489 589 489 589 477 589 c 2,41,-1
 469 589 l 1,42,-1
 469 710 l 1,43,-1
 803 710 l 1,44,-1
 803 589 l 1,45,-1
 786 589 l 2,46,47
 771 589 771 589 757.5 586 c 128,-1,48
 744 583 744 583 736 575.5 c 128,-1,49
 728 568 728 568 728 553 c 2,50,-1
 728 121 l 1,51,-1
 835 121 l 2,52,53
 866 121 866 121 888 131 c 128,-1,54
 910 141 910 141 921 163 c 128,-1,55
 932 185 932 185 932 221 c 0,56,57
 932 258 932 258 920 281.5 c 128,-1,58
 908 305 908 305 886 316 c 128,-1,59
 864 327 864 327 831 327 c 2,60,-1
 664 327 l 1,61,-1
 664 448 l 1,62,-1
 873 448 l 2,63,64
 951 448 951 448 1007.5 423 c 128,-1,65
 1064 398 1064 398 1094 347.5 c 128,-1,66
 1124 297 1124 297 1124 221 c 0,67,68
 1124 153 1124 153 1092.5 103 c 128,-1,69
 1061 53 1061 53 1004 26.5 c 128,-1,70
 947 0 947 0 869 0 c 2,71,-1
 469 0 l 1,30,-1
EndSplineSet
EndChar

StartChar: Tshecyr
Encoding: 1035 1035 252
Width: 985
GlyphClass: 2
Flags: W
AnchorPoint: "Anchor-0" 355 741 basechar 0
LayerCount: 2
Fore
SplineSet
648 425 m 0,0,1
 728 425 728 425 781 404.5 c 128,-1,2
 834 384 834 384 860.5 337.5 c 128,-1,3
 887 291 887 291 887 212 c 2,4,-1
 887 157 l 2,5,6
 887 135 887 135 903.5 128 c 128,-1,7
 920 121 920 121 944 121 c 2,8,-1
 955 121 l 1,9,-1
 955 0 l 1,10,-1
 692 0 l 1,11,-1
 692 204 l 2,12,13
 692 245 692 245 680 266.5 c 128,-1,14
 668 288 668 288 643 295.5 c 128,-1,15
 618 303 618 303 578 303 c 0,16,17
 544 303 544 303 511.5 297 c 128,-1,18
 479 291 479 291 448 275 c 1,19,-1
 448 390 l 1,20,21
 484 405 484 405 535.5 415 c 128,-1,22
 587 425 587 425 648 425 c 0,0,1
194 0 m 1,23,-1
 194 121 l 1,24,-1
 213 121 l 2,25,26
 239 121 239 121 257.5 128 c 128,-1,27
 276 135 276 135 276 157 c 2,28,-1
 276 588 l 1,29,-1
 244 588 l 2,30,31
 214 588 214 588 199.5 582 c 128,-1,32
 185 576 185 576 180.5 564 c 128,-1,33
 176 552 176 552 174 534 c 2,34,-1
 164 423 l 1,35,-1
 42 423 l 1,36,-1
 42 710 l 1,37,-1
 739 710 l 1,38,-1
 739 478 l 1,39,-1
 617 478 l 1,40,-1
 609 534 l 2,41,42
 607 552 607 552 602 564 c 128,-1,43
 597 576 597 576 583 582 c 128,-1,44
 569 588 569 588 542 588 c 2,45,-1
 472 588 l 1,46,-1
 472 130 l 2,47,48
 472 128 472 128 481.5 125.5 c 128,-1,49
 491 123 491 123 505 122 c 128,-1,50
 519 121 519 121 532 121 c 2,51,-1
 554 121 l 1,52,-1
 554 0 l 1,53,-1
 194 0 l 1,23,-1
EndSplineSet
EndChar

StartChar: Dzhecyr
Encoding: 1039 1039 253
Width: 851
GlyphClass: 2
Flags: W
AnchorPoint: "Anchor-0" 426 741 basechar 0
LayerCount: 2
Fore
SplineSet
43 710 m 1,0,-1
 372 710 l 1,1,-1
 372 589 l 1,2,-1
 363 589 l 2,3,4
 352 589 352 589 338.5 588.5 c 128,-1,5
 325 588 325 588 315.5 586 c 128,-1,6
 306 584 306 584 306 580 c 2,7,-1
 306 0 l 1,8,-1
 43 0 l 1,9,-1
 43 121 l 1,10,-1
 54 121 l 2,11,12
 78 121 78 121 94.5 128 c 128,-1,13
 111 135 111 135 111 157 c 2,14,-1
 111 553 l 2,15,16
 111 575 111 575 94.5 582 c 128,-1,17
 78 589 78 589 54 589 c 2,18,-1
 43 589 l 1,19,-1
 43 710 l 1,0,-1
479 710 m 1,20,-1
 808 710 l 1,21,-1
 808 589 l 1,22,-1
 797 589 l 2,23,24
 773 589 773 589 756.5 582 c 128,-1,25
 740 575 740 575 740 553 c 2,26,-1
 740 157 l 2,27,28
 740 135 740 135 756.5 128 c 128,-1,29
 773 121 773 121 797 121 c 2,30,-1
 808 121 l 1,31,-1
 808 0 l 1,32,-1
 545 0 l 1,33,-1
 545 580 l 2,34,35
 545 584 545 584 535.5 586 c 128,-1,36
 526 588 526 588 513 588.5 c 128,-1,37
 500 589 500 589 488 589 c 2,38,-1
 479 589 l 1,39,-1
 479 710 l 1,20,-1
213 0 m 1,40,-1
 213 121 l 1,41,-1
 638 121 l 1,42,-1
 638 0 l 1,43,-1
 609 0 l 2,44,45
 566 0 566 0 542.5 -5.5 c 128,-1,46
 519 -11 519 -11 509.5 -23 c 128,-1,47
 500 -35 500 -35 498 -53 c 2,48,-1
 486 -189 l 1,49,-1
 365 -189 l 1,50,-1
 353 -53 l 2,51,52
 352 -35 352 -35 342 -23 c 128,-1,53
 332 -11 332 -11 308.5 -5.5 c 128,-1,54
 285 0 285 0 242 0 c 2,55,-1
 213 0 l 1,40,-1
EndSplineSet
EndChar

StartChar: Becyr
Encoding: 1041 1041 257
Width: 755
GlyphClass: 2
Flags: W
AnchorPoint: "Anchor-0" 385 741 basechar 0
LayerCount: 2
Fore
SplineSet
43 710 m 1,0,-1
 653 710 l 1,1,-1
 653 502 l 1,2,-1
 533 502 l 1,3,-1
 527 546 l 2,4,5
 525 564 525 564 512.5 573 c 128,-1,6
 500 582 500 582 477.5 585.5 c 128,-1,7
 455 589 455 589 422 589 c 2,8,-1
 306 589 l 1,9,-1
 306 121 l 1,10,-1
 413 121 l 2,11,12
 445 121 445 121 466.5 131 c 128,-1,13
 488 141 488 141 499 162.5 c 128,-1,14
 510 184 510 184 510 218 c 0,15,16
 510 256 510 256 499 277.5 c 128,-1,17
 488 299 488 299 466 308.5 c 128,-1,18
 444 318 444 318 410 318 c 2,19,-1
 209 318 l 1,20,-1
 209 439 l 1,21,-1
 453 439 l 2,22,23
 534 439 534 439 592 415.5 c 128,-1,24
 650 392 650 392 680.5 343 c 128,-1,25
 711 294 711 294 711 218 c 0,26,27
 711 151 711 151 679 102 c 128,-1,28
 647 53 647 53 588.5 26.5 c 128,-1,29
 530 0 530 0 450 0 c 2,30,-1
 43 0 l 1,31,-1
 43 114 l 1,32,-1
 53 114 l 2,33,34
 78 114 78 114 94 121 c 128,-1,35
 110 128 110 128 110 150 c 2,36,-1
 110 561 l 2,37,38
 110 582 110 582 94 589 c 128,-1,39
 78 596 78 596 53 596 c 2,40,-1
 43 596 l 1,41,-1
 43 710 l 1,0,-1
EndSplineSet
EndChar

StartChar: Gecyr
Encoding: 1043 1043 259
Width: 683
GlyphClass: 2
Flags: W
AnchorPoint: "Anchor-0" 348 741 basechar 0
LayerCount: 2
Fore
SplineSet
306 589 m 1,0,-1
 306 157 l 2,1,2
 306 143 306 143 314 135 c 128,-1,3
 322 127 322 127 335.5 124 c 128,-1,4
 349 121 349 121 366 121 c 2,5,-1
 398 121 l 1,6,-1
 398 0 l 1,7,-1
 43 0 l 1,8,-1
 43 121 l 1,9,-1
 54 121 l 2,10,11
 77 121 77 121 94 128 c 128,-1,12
 111 135 111 135 111 157 c 2,13,-1
 111 553 l 2,14,15
 111 575 111 575 94 582 c 128,-1,16
 77 589 77 589 54 589 c 2,17,-1
 43 589 l 1,18,-1
 43 710 l 1,19,-1
 642 710 l 1,20,-1
 642 423 l 1,21,-1
 519 423 l 1,22,-1
 509 535 l 2,23,24
 508 554 508 554 497.5 566.5 c 128,-1,25
 487 579 487 579 466.5 584 c 128,-1,26
 446 589 446 589 412 589 c 2,27,-1
 306 589 l 1,0,-1
EndSplineSet
EndChar

StartChar: Decyr
Encoding: 1044 1044 261
Width: 830
GlyphClass: 2
Flags: W
AnchorPoint: "Anchor-0" 449 741 basechar 0
LayerCount: 2
Fore
SplineSet
235 710 m 1,0,-1
 605 710 l 1,1,-1
 605 589 l 1,2,-1
 235 589 l 1,3,-1
 235 710 l 1,0,-1
705 0 m 1,4,-1
 510 0 l 1,5,-1
 510 710 l 1,6,-1
 773 710 l 1,7,-1
 773 589 l 1,8,-1
 762 589 l 2,9,10
 738 589 738 589 721.5 582 c 128,-1,11
 705 575 705 575 705 553 c 2,12,-1
 705 0 l 1,4,-1
666 -53 m 2,13,14
 665 -35 665 -35 654.5 -23 c 128,-1,15
 644 -11 644 -11 620.5 -5.5 c 128,-1,16
 597 0 597 0 555 0 c 2,17,-1
 263 0 l 2,18,19
 221 0 221 0 197.5 -5.5 c 128,-1,20
 174 -11 174 -11 164 -23 c 128,-1,21
 154 -35 154 -35 152 -52 c 2,22,-1
 140 -189 l 1,23,-1
 17 -189 l 1,24,-1
 17 121 l 1,25,-1
 800 121 l 1,26,-1
 800 -189 l 1,27,-1
 678 -189 l 1,28,-1
 666 -53 l 2,13,14
206 53 m 1,29,-1
 55 53 l 1,30,31
 78 83 78 83 95.5 115 c 128,-1,32
 113 147 113 147 126 185.5 c 128,-1,33
 139 224 139 224 146.5 276 c 128,-1,34
 154 328 154 328 158 398 c 2,35,-1
 166 553 l 2,36,37
 168 575 168 575 153.5 582 c 128,-1,38
 139 589 139 589 117 589 c 2,39,-1
 106 589 l 1,40,-1
 106 710 l 1,41,-1
 304 710 l 1,42,-1
 291 395 l 2,43,44
 287 299 287 299 276 235.5 c 128,-1,45
 265 172 265 172 247.5 129.5 c 128,-1,46
 230 87 230 87 206 53 c 1,29,-1
EndSplineSet
Substitution2: "'locl' Localized Forms in Cyrillic lookup 12 subtable" De.bgr
EndChar

StartChar: Zhecyr
Encoding: 1046 1046 266
Width: 1249
GlyphClass: 2
Flags: W
AnchorPoint: "Anchor-1" 612 0 basechar 0
AnchorPoint: "Anchor-0" 612 741 basechar 0
LayerCount: 2
Fore
SplineSet
869 0 m 1,0,-1
 869 121 l 1,1,-1
 882 121 l 2,2,3
 894 121 894 121 904 122 c 128,-1,4
 914 123 914 123 920.5 125.5 c 128,-1,5
 927 128 927 128 927 131 c 2,6,-1
 750 349 l 1,7,-1
 750 372 l 1,8,-1
 965 579 l 2,9,10
 965 582 965 582 958.5 584 c 128,-1,11
 952 586 952 586 940.5 587.5 c 128,-1,12
 929 589 929 589 913 589 c 2,13,-1
 897 589 l 1,14,-1
 897 710 l 1,15,-1
 1192 710 l 1,16,-1
 1192 589 l 1,17,-1
 1175 589 l 2,18,19
 1161 589 1161 589 1149.5 586.5 c 128,-1,20
 1138 584 1138 584 1127 577.5 c 128,-1,21
 1116 571 1116 571 1104 559 c 2,22,-1
 892 356 l 1,23,-1
 907 448 l 1,24,-1
 1160 141 l 2,25,26
 1167 132 1167 132 1175 127.5 c 128,-1,27
 1183 123 1183 123 1192 122 c 128,-1,28
 1201 121 1201 121 1210 121 c 2,29,-1
 1223 121 l 1,30,-1
 1223 0 l 1,31,-1
 869 0 l 1,0,-1
371 0 m 1,32,-1
 26 0 l 1,33,-1
 26 121 l 1,34,-1
 39 121 l 2,35,36
 48 121 48 121 56.5 122 c 128,-1,37
 65 123 65 123 73.5 127.5 c 128,-1,38
 82 132 82 132 89 141 c 2,39,-1
 341 448 l 1,40,-1
 343 356 l 1,41,-1
 132 559 l 2,42,43
 120 571 120 571 108.5 577.5 c 128,-1,44
 97 584 97 584 86 586.5 c 128,-1,45
 75 589 75 589 60 589 c 2,46,-1
 43 589 l 1,47,-1
 43 710 l 1,48,-1
 343 710 l 1,49,-1
 343 589 l 1,50,-1
 327 589 l 2,51,52
 311 589 311 589 299.5 587.5 c 128,-1,53
 288 586 288 586 281.5 584 c 128,-1,54
 275 582 275 582 275 578 c 2,55,-1
 490 372 l 1,56,-1
 490 349 l 1,57,-1
 313 130 l 2,58,59
 313 128 313 128 319.5 125.5 c 128,-1,60
 326 123 326 123 336.5 122 c 128,-1,61
 347 121 347 121 359 121 c 2,62,-1
 371 121 l 1,63,-1
 371 0 l 1,32,-1
459 0 m 1,64,-1
 459 120 l 1,65,-1
 467 120 l 2,66,67
 476 120 476 120 485.5 121 c 128,-1,68
 495 122 495 122 503.5 123 c 128,-1,69
 512 124 512 124 517 125.5 c 128,-1,70
 522 127 522 127 522 130 c 2,71,-1
 522 581 l 2,72,73
 522 583 522 583 517 584.5 c 128,-1,74
 512 586 512 586 503.5 587.5 c 128,-1,75
 495 589 495 589 485.5 589 c 128,-1,76
 476 589 476 589 467 589 c 2,77,-1
 459 589 l 1,78,-1
 459 710 l 1,79,-1
 781 710 l 1,80,-1
 781 590 l 1,81,-1
 773 590 l 2,82,83
 764 590 764 590 754.5 589 c 128,-1,84
 745 588 745 588 736.5 587 c 128,-1,85
 728 586 728 586 723 584.5 c 128,-1,86
 718 583 718 583 718 580 c 2,87,-1
 718 129 l 2,88,89
 718 127 718 127 723 125.5 c 128,-1,90
 728 124 728 124 736.5 122.5 c 128,-1,91
 745 121 745 121 754.5 121 c 128,-1,92
 764 121 764 121 774 121 c 2,93,-1
 781 121 l 1,94,-1
 781 0 l 1,95,-1
 459 0 l 1,64,-1
EndSplineSet
EndChar

StartChar: Zecyr
Encoding: 1047 1047 269
Width: 742
GlyphClass: 2
Flags: W
AnchorPoint: "Anchor-1" 401 0 basechar 0
AnchorPoint: "Anchor-0" 401 741 basechar 0
LayerCount: 2
Fore
SplineSet
418 -25 m 0,0,1
 338 -25 338 -25 280 -0.5 c 128,-1,2
 222 24 222 24 188 76 c 128,-1,3
 154 128 154 128 143 210 c 1,4,-1
 192 166 l 1,5,-1
 172 -10 l 1,6,-1
 67 -10 l 1,7,-1
 67 240 l 1,8,-1
 191 240 l 1,9,10
 203 199 203 199 226.5 167 c 128,-1,11
 250 135 250 135 285.5 117.5 c 128,-1,12
 321 100 321 100 369 100 c 0,13,14
 407 100 407 100 434.5 110 c 128,-1,15
 462 120 462 120 476 142.5 c 128,-1,16
 490 165 490 165 490 200 c 0,17,18
 490 229 490 229 477 252 c 128,-1,19
 464 275 464 275 435 286.5 c 128,-1,20
 406 298 406 298 357 295 c 0,21,22
 344 294 344 294 330 293 c 128,-1,23
 316 292 316 292 301.5 290.5 c 128,-1,24
 287 289 287 289 273 288 c 1,25,-1
 273 440 l 1,26,27
 287 439 287 439 300.5 437.5 c 128,-1,28
 314 436 314 436 327.5 435 c 128,-1,29
 341 434 341 434 354 433 c 0,30,31
 398 429 398 429 423.5 441 c 128,-1,32
 449 453 449 453 459.5 476.5 c 128,-1,33
 470 500 470 500 470 529 c 0,34,35
 470 555 470 555 460 573 c 128,-1,36
 450 591 450 591 428 601 c 128,-1,37
 406 611 406 611 369 611 c 0,38,39
 325 611 325 611 290 594.5 c 128,-1,40
 255 578 255 578 232.5 547 c 128,-1,41
 210 516 210 516 198 470 c 1,42,-1
 74 470 l 1,43,-1
 74 720 l 1,44,-1
 178 720 l 1,45,-1
 199 544 l 1,46,-1
 155 496 l 1,47,48
 161 561 161 561 181.5 606.5 c 128,-1,49
 202 652 202 652 236.5 680 c 128,-1,50
 271 708 271 708 316.5 721.5 c 128,-1,51
 362 735 362 735 418 735 c 0,52,53
 500 735 500 735 556 713 c 128,-1,54
 612 691 612 691 641 650 c 128,-1,55
 670 609 670 609 670 552 c 256,56,57
 670 495 670 495 642.5 456 c 128,-1,58
 615 417 615 417 567 397 c 128,-1,59
 519 377 519 377 457 377 c 1,60,-1
 465 406 l 1,61,-1
 465 330 l 1,62,-1
 456 368 l 1,63,64
 527 368 527 368 580 347 c 128,-1,65
 633 326 633 326 661.5 285 c 128,-1,66
 690 244 690 244 690 184 c 0,67,68
 690 126 690 126 668.5 86 c 128,-1,69
 647 46 647 46 609.5 21.5 c 128,-1,70
 572 -3 572 -3 522.5 -14 c 128,-1,71
 473 -25 473 -25 418 -25 c 0,0,1
EndSplineSet
EndChar

StartChar: Icyr
Encoding: 1048 1048 270
Width: 874
GlyphClass: 2
Flags: W
AnchorPoint: "Anchor-0" 437 741 basechar 0
LayerCount: 2
Fore
SplineSet
230 253 m 1,0,-1
 568 550 l 1,1,-1
 644 466 l 1,2,-1
 306 169 l 1,3,-1
 230 253 l 1,0,-1
43 0 m 1,4,-1
 43 121 l 1,5,-1
 54 121 l 2,6,7
 78 121 78 121 94.5 128 c 128,-1,8
 111 135 111 135 111 157 c 2,9,-1
 111 553 l 2,10,11
 111 575 111 575 94.5 582 c 128,-1,12
 78 589 78 589 54 589 c 2,13,-1
 43 589 l 1,14,-1
 43 710 l 1,15,-1
 372 710 l 1,16,-1
 372 589 l 1,17,-1
 363 589 l 2,18,19
 352 589 352 589 338.5 588.5 c 128,-1,20
 325 588 325 588 315.5 586 c 128,-1,21
 306 584 306 584 306 580 c 2,22,-1
 306 129 l 2,23,24
 306 127 306 127 315.5 124.5 c 128,-1,25
 325 122 325 122 338.5 121.5 c 128,-1,26
 352 121 352 121 364 121 c 2,27,-1
 372 121 l 1,28,-1
 372 0 l 1,29,-1
 43 0 l 1,4,-1
502 0 m 1,30,-1
 502 121 l 1,31,-1
 511 121 l 2,32,33
 523 121 523 121 536 121.5 c 128,-1,34
 549 122 549 122 558.5 124.5 c 128,-1,35
 568 127 568 127 568 130 c 2,36,-1
 568 581 l 2,37,38
 568 584 568 584 558.5 586 c 128,-1,39
 549 588 549 588 536 588.5 c 128,-1,40
 523 589 523 589 511 589 c 2,41,-1
 502 589 l 1,42,-1
 502 710 l 1,43,-1
 831 710 l 1,44,-1
 831 589 l 1,45,-1
 820 589 l 2,46,47
 796 589 796 589 779.5 582 c 128,-1,48
 763 575 763 575 763 553 c 2,49,-1
 763 157 l 2,50,51
 763 135 763 135 779.5 128 c 128,-1,52
 796 121 796 121 820 121 c 2,53,-1
 831 121 l 1,54,-1
 831 0 l 1,55,-1
 502 0 l 1,30,-1
EndSplineSet
EndChar

StartChar: Elcyr
Encoding: 1051 1051 276
Width: 804
GlyphClass: 2
Flags: W
AnchorPoint: "Anchor-0" 442 741 basechar 0
LayerCount: 2
Fore
SplineSet
268 710 m 1,0,-1
 580 710 l 1,1,-1
 580 589 l 1,2,-1
 268 589 l 1,3,-1
 268 710 l 1,0,-1
432 0 m 1,4,-1
 432 121 l 1,5,-1
 441 121 l 2,6,7
 453 121 453 121 466 121.5 c 128,-1,8
 479 122 479 122 488.5 124.5 c 128,-1,9
 498 127 498 127 498 130 c 2,10,-1
 498 710 l 1,11,-1
 761 710 l 1,12,-1
 761 589 l 1,13,-1
 750 589 l 2,14,15
 726 589 726 589 709.5 582 c 128,-1,16
 693 575 693 575 693 553 c 2,17,-1
 693 157 l 2,18,19
 693 135 693 135 709.5 128 c 128,-1,20
 726 121 726 121 750 121 c 2,21,-1
 761 121 l 1,22,-1
 761 0 l 1,23,-1
 432 0 l 1,4,-1
165 326 m 2,24,-1
 176 554 l 2,25,26
 177 575 177 575 163 582 c 128,-1,27
 149 589 149 589 127 589 c 2,28,-1
 116 589 l 1,29,-1
 116 710 l 1,30,-1
 314 710 l 1,31,-1
 298 325 l 2,32,33
 293 208 293 208 270.5 132.5 c 128,-1,34
 248 57 248 57 205 21 c 128,-1,35
 162 -15 162 -15 93 -15 c 0,36,37
 66 -15 66 -15 47.5 -10 c 128,-1,38
 29 -5 29 -5 19 0 c 1,39,-1
 19 177 l 1,40,41
 26 174 26 174 41.5 168 c 128,-1,42
 57 162 57 162 77 162 c 0,43,44
 105 162 105 162 123 179.5 c 128,-1,45
 141 197 141 197 151.5 233.5 c 128,-1,46
 162 270 162 270 165 326 c 2,24,-1
EndSplineSet
Substitution2: "'locl' Localized Forms in Cyrillic lookup 12 subtable" El.bgr
EndChar

StartChar: Pecyr
Encoding: 1055 1055 281
Width: 851
GlyphClass: 2
Flags: W
AnchorPoint: "Anchor-0" 426 741 basechar 0
LayerCount: 2
Fore
SplineSet
198 710 m 1,0,-1
 630 710 l 1,1,-1
 630 589 l 1,2,-1
 198 589 l 1,3,-1
 198 710 l 1,0,-1
43 0 m 1,4,-1
 43 121 l 1,5,-1
 54 121 l 2,6,7
 78 121 78 121 94.5 128 c 128,-1,8
 111 135 111 135 111 157 c 2,9,-1
 111 553 l 2,10,11
 111 575 111 575 94.5 582 c 128,-1,12
 78 589 78 589 54 589 c 2,13,-1
 43 589 l 1,14,-1
 43 710 l 1,15,-1
 306 710 l 1,16,-1
 306 130 l 2,17,18
 306 127 306 127 315.5 124.5 c 128,-1,19
 325 122 325 122 338.5 121.5 c 128,-1,20
 352 121 352 121 364 121 c 2,21,-1
 372 121 l 1,22,-1
 372 0 l 1,23,-1
 43 0 l 1,4,-1
479 0 m 1,24,-1
 479 121 l 1,25,-1
 488 121 l 2,26,27
 500 121 500 121 513 121.5 c 128,-1,28
 526 122 526 122 535.5 124.5 c 128,-1,29
 545 127 545 127 545 130 c 2,30,-1
 545 710 l 1,31,-1
 808 710 l 1,32,-1
 808 589 l 1,33,-1
 797 589 l 2,34,35
 773 589 773 589 756.5 582 c 128,-1,36
 740 575 740 575 740 553 c 2,37,-1
 740 157 l 2,38,39
 740 135 740 135 756.5 128 c 128,-1,40
 773 121 773 121 797 121 c 2,41,-1
 808 121 l 1,42,-1
 808 0 l 1,43,-1
 479 0 l 1,24,-1
EndSplineSet
EndChar

StartChar: Ucyr
Encoding: 1059 1059 285
Width: 740
GlyphClass: 2
Flags: W
AnchorPoint: "Anchor-1" 244 0 basechar 0
AnchorPoint: "Anchor-0" 377 741 basechar 0
LayerCount: 2
Fore
SplineSet
452 192 m 2,0,1
 419 135 419 135 393.5 95.5 c 128,-1,2
 368 56 368 56 342.5 31.5 c 128,-1,3
 317 7 317 7 287.5 -4 c 128,-1,4
 258 -15 258 -15 217 -15 c 0,5,6
 192 -15 192 -15 171.5 -10 c 128,-1,7
 151 -5 151 -5 140 0 c 1,8,-1
 140 159 l 1,9,10
 152 153 152 153 177.5 146 c 128,-1,11
 203 139 203 139 232 139 c 0,12,13
 263 139 263 139 283.5 148 c 128,-1,14
 304 157 304 157 320.5 181 c 128,-1,15
 337 205 337 205 360 248 c 2,16,-1
 531 575 l 2,17,18
 531 580 531 580 524.5 583 c 128,-1,19
 518 586 518 586 507.5 587.5 c 128,-1,20
 497 589 497 589 488 589 c 2,21,-1
 479 589 l 1,22,-1
 479 710 l 1,23,-1
 714 710 l 1,24,-1
 714 589 l 1,25,-1
 707 589 l 2,26,27
 692 589 692 589 682 583.5 c 128,-1,28
 672 578 672 578 662 565 c 128,-1,29
 652 552 652 552 641 531 c 2,30,-1
 452 192 l 2,0,1
454 289 m 1,31,-1
 336 153 l 1,32,-1
 108 534 l 2,33,34
 96 554 96 554 85.5 566 c 128,-1,35
 75 578 75 578 63 583.5 c 128,-1,36
 51 589 51 589 33 589 c 2,37,-1
 26 589 l 1,38,-1
 26 710 l 1,39,-1
 355 710 l 1,40,-1
 355 589 l 1,41,-1
 343 589 l 2,42,43
 327 589 327 589 315.5 588 c 128,-1,44
 304 587 304 587 298 585 c 128,-1,45
 292 583 292 583 292 579 c 2,46,-1
 454 289 l 1,31,-1
EndSplineSet
EndChar

StartChar: Efcyr
Encoding: 1060 1060 290
Width: 1020
GlyphClass: 2
Flags: W
AnchorPoint: "Anchor-1" 511 0 basechar 0
AnchorPoint: "Anchor-0" 511 741 basechar 0
LayerCount: 2
Fore
SplineSet
414 125 m 2,0,-1
 414 585 l 2,1,2
 414 607 414 607 397 614 c 128,-1,3
 380 621 380 621 354 621 c 2,4,-1
 334 621 l 1,5,-1
 334 735 l 1,6,-1
 686 735 l 1,7,-1
 686 621 l 1,8,-1
 666 621 l 2,9,10
 641 621 641 621 623.5 614 c 128,-1,11
 606 607 606 607 606 585 c 2,12,-1
 606 125 l 2,13,14
 606 103 606 103 623 96 c 128,-1,15
 640 89 640 89 666 89 c 2,16,-1
 686 89 l 1,17,-1
 686 -25 l 1,18,-1
 334 -25 l 1,19,-1
 334 89 l 1,20,-1
 354 89 l 2,21,22
 380 89 380 89 397 96 c 128,-1,23
 414 103 414 103 414 125 c 2,0,-1
419 578 m 1,24,-1
 419 452 l 1,25,26
 351 452 351 452 312 442 c 128,-1,27
 273 432 273 432 256.5 410.5 c 128,-1,28
 240 389 240 389 240 356 c 0,29,30
 240 324 240 324 256.5 302.5 c 128,-1,31
 273 281 273 281 312 271 c 128,-1,32
 351 261 351 261 419 261 c 1,33,-1
 419 135 l 1,34,35
 286 135 286 135 201.5 161.5 c 128,-1,36
 117 188 117 188 76.5 237.5 c 128,-1,37
 36 287 36 287 36 357 c 0,38,39
 36 426 36 426 76.5 475 c 128,-1,40
 117 524 117 524 201.5 551 c 128,-1,41
 286 578 286 578 419 578 c 1,24,-1
602 135 m 1,42,-1
 602 261 l 1,43,44
 669 261 669 261 708 271 c 128,-1,45
 747 281 747 281 764 302.5 c 128,-1,46
 781 324 781 324 781 356 c 0,47,48
 781 389 781 389 764 410.5 c 128,-1,49
 747 432 747 432 708 442 c 128,-1,50
 669 452 669 452 602 452 c 1,51,-1
 602 578 l 1,52,53
 735 578 735 578 819.5 551.5 c 128,-1,54
 904 525 904 525 944 475.5 c 128,-1,55
 984 426 984 426 984 356 c 0,56,57
 984 287 984 287 944 237.5 c 128,-1,58
 904 188 904 188 819 161.5 c 128,-1,59
 734 135 734 135 602 135 c 1,42,-1
EndSplineSet
EndChar

StartChar: Tsecyr
Encoding: 1062 1062 292
Width: 865
GlyphClass: 2
Flags: W
AnchorPoint: "Anchor-0" 433 741 basechar 0
LayerCount: 2
Fore
SplineSet
215 0 m 1,0,-1
 215 121 l 1,1,-1
 641 121 l 1,2,-1
 641 0 l 1,3,-1
 215 0 l 1,0,-1
43 710 m 1,4,-1
 372 710 l 1,5,-1
 372 589 l 1,6,-1
 363 589 l 2,7,8
 352 589 352 589 338.5 588.5 c 128,-1,9
 325 588 325 588 315.5 586 c 128,-1,10
 306 584 306 584 306 580 c 2,11,-1
 306 0 l 1,12,-1
 43 0 l 1,13,-1
 43 121 l 1,14,-1
 54 121 l 2,15,16
 78 121 78 121 94.5 128 c 128,-1,17
 111 135 111 135 111 157 c 2,18,-1
 111 553 l 2,19,20
 111 575 111 575 94.5 582 c 128,-1,21
 78 589 78 589 54 589 c 2,22,-1
 43 589 l 1,23,-1
 43 710 l 1,4,-1
479 710 m 1,24,-1
 808 710 l 1,25,-1
 808 589 l 1,26,-1
 797 589 l 2,27,28
 773 589 773 589 756.5 582 c 128,-1,29
 740 575 740 575 740 553 c 2,30,-1
 740 0 l 1,31,-1
 545 0 l 1,32,-1
 545 581 l 2,33,34
 545 584 545 584 535.5 586 c 128,-1,35
 526 588 526 588 513 588.5 c 128,-1,36
 500 589 500 589 488 589 c 2,37,-1
 479 589 l 1,38,-1
 479 710 l 1,24,-1
558 0 m 1,39,-1
 558 121 l 1,40,-1
 835 121 l 1,41,-1
 835 -189 l 1,42,-1
 713 -189 l 1,43,-1
 701 -53 l 2,44,45
 700 -35 700 -35 689.5 -23 c 128,-1,46
 679 -11 679 -11 655 -5.5 c 128,-1,47
 631 0 631 0 589 0 c 2,48,-1
 558 0 l 1,39,-1
EndSplineSet
EndChar

StartChar: Checyr
Encoding: 1063 1063 293
Width: 829
GlyphClass: 2
Flags: W
AnchorPoint: "Anchor-0" 406 741 basechar 0
LayerCount: 2
Fore
SplineSet
457 0 m 1,0,-1
 457 121 l 1,1,-1
 466 121 l 2,2,3
 478 121 478 121 491 121.5 c 128,-1,4
 504 122 504 122 513.5 124.5 c 128,-1,5
 523 127 523 127 523 130 c 2,6,-1
 523 581 l 2,7,8
 523 584 523 584 513.5 586 c 128,-1,9
 504 588 504 588 491 588.5 c 128,-1,10
 478 589 478 589 466 589 c 2,11,-1
 457 589 l 1,12,-1
 457 710 l 1,13,-1
 786 710 l 1,14,-1
 786 589 l 1,15,-1
 775 589 l 2,16,17
 751 589 751 589 734.5 582 c 128,-1,18
 718 575 718 575 718 553 c 2,19,-1
 718 157 l 2,20,21
 718 135 718 135 734.5 128 c 128,-1,22
 751 121 751 121 775 121 c 2,23,-1
 786 121 l 1,24,-1
 786 0 l 1,25,-1
 457 0 l 1,0,-1
340 252 m 0,26,27
 261 252 261 252 207 273.5 c 128,-1,28
 153 295 153 295 125.5 343.5 c 128,-1,29
 98 392 98 392 98 472 c 2,30,-1
 98 554 l 2,31,32
 98 576 98 576 81.5 582.5 c 128,-1,33
 65 589 65 589 41 589 c 2,34,-1
 30 589 l 1,35,-1
 30 710 l 1,36,-1
 359 710 l 1,37,-1
 359 589 l 1,38,-1
 350 589 l 2,39,40
 339 589 339 589 325.5 588 c 128,-1,41
 312 587 312 587 302.5 585 c 128,-1,42
 293 583 293 583 293 579 c 2,43,-1
 293 480 l 2,44,45
 293 440 293 440 304.5 417 c 128,-1,46
 316 394 316 394 341.5 383.5 c 128,-1,47
 367 373 367 373 411 373 c 0,48,49
 445 373 445 373 479.5 379.5 c 128,-1,50
 514 386 514 386 545 401 c 1,51,-1
 545 287 l 1,52,53
 509 272 509 272 455.5 262 c 128,-1,54
 402 252 402 252 340 252 c 0,26,27
EndSplineSet
EndChar

StartChar: Shacyr
Encoding: 1064 1064 294
Width: 1215
GlyphClass: 2
Flags: W
AnchorPoint: "Anchor-0" 595 741 basechar 0
LayerCount: 2
Fore
SplineSet
955 0 m 1,0,-1
 227 0 l 1,1,-1
 227 121 l 1,2,-1
 955 121 l 1,3,-1
 955 0 l 1,0,-1
1172 710 m 1,4,-1
 1172 589 l 1,5,-1
 1161 589 l 2,6,7
 1137 589 1137 589 1120.5 582 c 128,-1,8
 1104 575 1104 575 1104 553 c 2,9,-1
 1104 157 l 2,10,11
 1104 135 1104 135 1120.5 128 c 128,-1,12
 1137 121 1137 121 1161 121 c 2,13,-1
 1172 121 l 1,14,-1
 1172 0 l 1,15,-1
 908 0 l 1,16,-1
 908 580 l 2,17,18
 908 584 908 584 899 586 c 128,-1,19
 890 588 890 588 877 588.5 c 128,-1,20
 864 589 864 589 851 589 c 2,21,-1
 843 589 l 1,22,-1
 843 710 l 1,23,-1
 1172 710 l 1,4,-1
372 710 m 1,24,-1
 372 589 l 1,25,-1
 363 589 l 2,26,27
 352 589 352 589 338.5 588.5 c 128,-1,28
 325 588 325 588 315.5 586 c 128,-1,29
 306 584 306 584 306 580 c 2,30,-1
 306 0 l 1,31,-1
 43 0 l 1,32,-1
 43 121 l 1,33,-1
 54 121 l 2,34,35
 78 121 78 121 94.5 128 c 128,-1,36
 111 135 111 135 111 157 c 2,37,-1
 111 553 l 2,38,39
 111 575 111 575 94.5 582 c 128,-1,40
 78 589 78 589 54 589 c 2,41,-1
 43 589 l 1,42,-1
 43 710 l 1,43,-1
 372 710 l 1,24,-1
446 710 m 1,44,-1
 769 710 l 1,45,-1
 769 589 l 1,46,-1
 760 589 l 2,47,48
 749 589 749 589 736 588.5 c 128,-1,49
 723 588 723 588 714 586 c 128,-1,50
 705 584 705 584 705 580 c 2,51,-1
 705 0 l 1,52,-1
 510 0 l 1,53,-1
 510 580 l 2,54,55
 510 584 510 584 501 586 c 128,-1,56
 492 588 492 588 479 588.5 c 128,-1,57
 466 589 466 589 454 589 c 2,58,-1
 446 589 l 1,59,-1
 446 710 l 1,44,-1
EndSplineSet
EndChar

StartChar: Shchacyr
Encoding: 1065 1065 295
Width: 1229
GlyphClass: 2
Flags: W
AnchorPoint: "Anchor-0" 602 741 basechar 0
LayerCount: 2
Fore
SplineSet
988 0 m 1,0,-1
 227 0 l 1,1,-1
 227 121 l 1,2,-1
 988 121 l 1,3,-1
 988 0 l 1,0,-1
372 710 m 1,4,-1
 372 589 l 1,5,-1
 363 589 l 2,6,7
 352 589 352 589 338.5 588.5 c 128,-1,8
 325 588 325 588 315.5 586 c 128,-1,9
 306 584 306 584 306 580 c 2,10,-1
 306 0 l 1,11,-1
 43 0 l 1,12,-1
 43 121 l 1,13,-1
 54 121 l 2,14,15
 78 121 78 121 94.5 128 c 128,-1,16
 111 135 111 135 111 157 c 2,17,-1
 111 553 l 2,18,19
 111 575 111 575 94.5 582 c 128,-1,20
 78 589 78 589 54 589 c 2,21,-1
 43 589 l 1,22,-1
 43 710 l 1,23,-1
 372 710 l 1,4,-1
843 710 m 1,24,-1
 1172 710 l 1,25,-1
 1172 589 l 1,26,-1
 1161 589 l 2,27,28
 1137 589 1137 589 1120.5 582 c 128,-1,29
 1104 575 1104 575 1104 553 c 2,30,-1
 1104 0 l 1,31,-1
 908 0 l 1,32,-1
 908 581 l 2,33,34
 908 584 908 584 899 586 c 128,-1,35
 890 588 890 588 877 588.5 c 128,-1,36
 864 589 864 589 851 589 c 2,37,-1
 843 589 l 1,38,-1
 843 710 l 1,24,-1
953 0 m 2,39,-1
 922 0 l 1,40,-1
 922 121 l 1,41,-1
 1199 121 l 1,42,-1
 1199 -189 l 1,43,-1
 1077 -189 l 1,44,-1
 1064 -53 l 2,45,46
 1063 -35 1063 -35 1053 -23 c 128,-1,47
 1043 -11 1043 -11 1019 -5.5 c 128,-1,48
 995 0 995 0 953 0 c 2,39,-1
446 710 m 1,49,-1
 769 710 l 1,50,-1
 769 589 l 1,51,-1
 760 589 l 2,52,53
 749 589 749 589 736 588.5 c 128,-1,54
 723 588 723 588 714 586 c 128,-1,55
 705 584 705 584 705 580 c 2,56,-1
 705 0 l 1,57,-1
 510 0 l 1,58,-1
 510 580 l 2,59,60
 510 584 510 584 501 586 c 128,-1,61
 492 588 492 588 479 588.5 c 128,-1,62
 466 589 466 589 454 589 c 2,63,-1
 446 589 l 1,64,-1
 446 710 l 1,49,-1
EndSplineSet
EndChar

StartChar: Hardcyr
Encoding: 1066 1066 296
Width: 896
GlyphClass: 2
Flags: W
AnchorPoint: "Anchor-0" 314 741 basechar 0
LayerCount: 2
Fore
SplineSet
607 0 m 2,0,-1
 202 0 l 1,1,-1
 202 114 l 1,2,-1
 212 114 l 2,3,4
 236 114 236 114 252.5 121 c 128,-1,5
 269 128 269 128 269 150 c 2,6,-1
 269 588 l 1,7,-1
 244 588 l 2,8,9
 214 588 214 588 199.5 582 c 128,-1,10
 185 576 185 576 180.5 564 c 128,-1,11
 176 552 176 552 174 534 c 2,12,-1
 164 423 l 1,13,-1
 42 423 l 1,14,-1
 42 710 l 1,15,-1
 553 710 l 1,16,-1
 553 589 l 1,17,-1
 530 589 l 2,18,19
 512 589 512 589 497 588 c 128,-1,20
 482 587 482 587 473.5 585 c 128,-1,21
 465 583 465 583 465 579 c 2,22,-1
 465 121 l 1,23,-1
 572 121 l 2,24,25
 605 121 605 121 626.5 131.5 c 128,-1,26
 648 142 648 142 659 165 c 128,-1,27
 670 188 670 188 670 226 c 256,28,29
 670 264 670 264 659 288 c 128,-1,30
 648 312 648 312 625.5 323.5 c 128,-1,31
 603 335 603 335 570 335 c 2,32,-1
 368 335 l 1,33,-1
 368 456 l 1,34,-1
 610 456 l 2,35,36
 689 456 689 456 745.5 431 c 128,-1,37
 802 406 802 406 831.5 355 c 128,-1,38
 861 304 861 304 861 226 c 0,39,40
 861 156 861 156 830 105.5 c 128,-1,41
 799 55 799 55 741.5 27.5 c 128,-1,42
 684 0 684 0 607 0 c 2,0,-1
EndSplineSet
EndChar

StartChar: Ylongcyr
Encoding: 1067 1067 297
Width: 1096
GlyphClass: 2
Flags: W
AnchorPoint: "Anchor-1" 537 0 basechar 0
AnchorPoint: "Anchor-0" 537 741 basechar 0
LayerCount: 2
Fore
SplineSet
790 130 m 2,0,-1
 790 581 l 2,1,2
 790 584 790 584 781 586 c 128,-1,3
 772 588 772 588 758.5 588.5 c 128,-1,4
 745 589 745 589 733 589 c 2,5,-1
 725 589 l 1,6,-1
 725 710 l 1,7,-1
 1052 710 l 1,8,-1
 1052 589 l 1,9,-1
 1042 589 l 2,10,11
 1019 589 1019 589 1002 582 c 128,-1,12
 985 575 985 575 985 553 c 2,13,-1
 985 157 l 2,14,15
 985 135 985 135 1002 128 c 128,-1,16
 1019 121 1019 121 1042 121 c 2,17,-1
 1052 121 l 1,18,-1
 1052 0 l 1,19,-1
 725 0 l 1,20,-1
 725 121 l 1,21,-1
 733 121 l 2,22,23
 745 121 745 121 758.5 121.5 c 128,-1,24
 772 122 772 122 781 124.5 c 128,-1,25
 790 127 790 127 790 130 c 2,0,-1
448 0 m 2,26,-1
 43 0 l 1,27,-1
 43 114 l 1,28,-1
 53 114 l 2,29,30
 77 114 77 114 93.5 121 c 128,-1,31
 110 128 110 128 110 150 c 2,32,-1
 110 560 l 2,33,34
 110 582 110 582 93.5 589 c 128,-1,35
 77 596 77 596 53 596 c 2,36,-1
 43 596 l 1,37,-1
 43 710 l 1,38,-1
 395 710 l 1,39,-1
 395 589 l 1,40,-1
 371 589 l 2,41,42
 353 589 353 589 338.5 588.5 c 128,-1,43
 324 588 324 588 315.5 586 c 128,-1,44
 307 584 307 584 307 580 c 2,45,-1
 307 121 l 1,46,-1
 414 121 l 2,47,48
 446 121 446 121 467.5 131.5 c 128,-1,49
 489 142 489 142 500 165 c 128,-1,50
 511 188 511 188 511 225 c 0,51,52
 511 264 511 264 500 288 c 128,-1,53
 489 312 489 312 467 323.5 c 128,-1,54
 445 335 445 335 411 335 c 2,55,-1
 278 335 l 1,56,-1
 278 456 l 1,57,-1
 452 456 l 2,58,59
 531 456 531 456 587 431 c 128,-1,60
 643 406 643 406 673 355 c 128,-1,61
 703 304 703 304 703 226 c 0,62,63
 703 155 703 155 671.5 105 c 128,-1,64
 640 55 640 55 583 27.5 c 128,-1,65
 526 0 526 0 448 0 c 2,26,-1
EndSplineSet
EndChar

StartChar: Softcyr
Encoding: 1068 1068 298
Width: 738
GlyphClass: 2
Flags: W
AnchorPoint: "Anchor-0" 214 741 basechar 0
LayerCount: 2
Fore
SplineSet
448 0 m 2,0,-1
 43 0 l 1,1,-1
 43 114 l 1,2,-1
 53 114 l 2,3,4
 78 114 78 114 94 121 c 128,-1,5
 110 128 110 128 110 150 c 2,6,-1
 110 560 l 2,7,8
 110 582 110 582 94 589 c 128,-1,9
 78 596 78 596 53 596 c 2,10,-1
 43 596 l 1,11,-1
 43 710 l 1,12,-1
 395 710 l 1,13,-1
 395 589 l 1,14,-1
 371 589 l 2,15,16
 353 589 353 589 338.5 588.5 c 128,-1,17
 324 588 324 588 315.5 586 c 128,-1,18
 307 584 307 584 307 580 c 2,19,-1
 307 121 l 1,20,-1
 414 121 l 2,21,22
 446 121 446 121 467.5 131.5 c 128,-1,23
 489 142 489 142 500 165 c 128,-1,24
 511 188 511 188 511 225 c 0,25,26
 511 264 511 264 500 288 c 128,-1,27
 489 312 489 312 467 323.5 c 128,-1,28
 445 335 445 335 411 335 c 2,29,-1
 278 335 l 1,30,-1
 278 456 l 1,31,-1
 452 456 l 2,32,33
 531 456 531 456 587 431 c 128,-1,34
 643 406 643 406 673 355 c 128,-1,35
 703 304 703 304 703 226 c 0,36,37
 703 155 703 155 671.5 105 c 128,-1,38
 640 55 640 55 583 27.5 c 128,-1,39
 526 0 526 0 448 0 c 2,0,-1
EndSplineSet
EndChar

StartChar: Ereversedcyr
Encoding: 1069 1069 299
Width: 783
GlyphClass: 2
Flags: W
AnchorPoint: "Anchor-1" 376 0 basechar 0
AnchorPoint: "Anchor-0" 376 741 basechar 0
LayerCount: 2
Fore
SplineSet
549 415 m 1,0,-1
 549 313 l 1,1,2
 513 310 513 310 475.5 307 c 128,-1,3
 438 304 438 304 401.5 301 c 128,-1,4
 365 298 365 298 328 295 c 128,-1,5
 291 292 291 292 254 289 c 1,6,-1
 254 441 l 1,7,8
 291 438 291 438 328 434.5 c 128,-1,9
 365 431 365 431 401.5 428 c 128,-1,10
 438 425 438 425 475.5 421.5 c 128,-1,11
 513 418 513 418 549 415 c 1,0,-1
388 -25 m 0,12,13
 312 -25 312 -25 261.5 1.5 c 128,-1,14
 211 28 211 28 182 81 c 128,-1,15
 153 134 153 134 141 213 c 1,16,-1
 192 166 l 1,17,-1
 172 -10 l 1,18,-1
 67 -10 l 1,19,-1
 67 240 l 1,20,-1
 191 240 l 1,21,22
 202 196 202 196 224.5 164.5 c 128,-1,23
 247 133 247 133 281.5 116.5 c 128,-1,24
 316 100 316 100 363 100 c 0,25,26
 410 99 410 99 442 110.5 c 128,-1,27
 474 122 474 122 493.5 151 c 128,-1,28
 513 180 513 180 522 229.5 c 128,-1,29
 531 279 531 279 531 355 c 0,30,31
 531 429 531 429 521 478.5 c 128,-1,32
 511 528 511 528 491 557 c 128,-1,33
 471 586 471 586 439.5 598 c 128,-1,34
 408 610 408 610 365 610 c 0,35,36
 316 610 316 610 281 593.5 c 128,-1,37
 246 577 246 577 224 546 c 128,-1,38
 202 515 202 515 191 470 c 1,39,-1
 67 470 l 1,40,-1
 67 720 l 1,41,-1
 172 720 l 1,42,-1
 192 544 l 1,43,-1
 149 496 l 1,44,45
 157 573 157 573 185 626 c 128,-1,46
 213 679 213 679 263.5 707 c 128,-1,47
 314 735 314 735 388 735 c 256,48,49
 462 735 462 735 525.5 713.5 c 128,-1,50
 589 692 589 692 635.5 646 c 128,-1,51
 682 600 682 600 708.5 527.5 c 128,-1,52
 735 455 735 455 735 355 c 0,53,54
 735 256 735 256 707.5 184 c 128,-1,55
 680 112 680 112 631.5 66 c 128,-1,56
 583 20 583 20 520.5 -2.5 c 128,-1,57
 458 -25 458 -25 388 -25 c 0,12,13
EndSplineSet
Substitution2: "'ss01' Style Set 1 lookup 61 subtable" Ecyr.alt1
EndChar

StartChar: Yucyr
Encoding: 1070 1070 300
Width: 1174
GlyphClass: 2
Flags: W
AnchorPoint: "Anchor-1" 610 0 basechar 0
AnchorPoint: "Anchor-0" 610 741 basechar 0
LayerCount: 2
Fore
SplineSet
204 426 m 1,0,-1
 546 426 l 1,1,-1
 546 305 l 1,2,-1
 204 305 l 1,3,-1
 204 426 l 1,0,-1
43 0 m 1,4,-1
 43 121 l 1,5,-1
 54 121 l 2,6,7
 77 121 77 121 94 128 c 128,-1,8
 111 135 111 135 111 157 c 2,9,-1
 111 553 l 2,10,11
 111 575 111 575 94 582 c 128,-1,12
 77 589 77 589 54 589 c 2,13,-1
 43 589 l 1,14,-1
 43 710 l 1,15,-1
 372 710 l 1,16,-1
 372 590 l 1,17,-1
 363 590 l 2,18,19
 354 590 354 590 344.5 589 c 128,-1,20
 335 588 335 588 326 587 c 128,-1,21
 317 586 317 586 311.5 584.5 c 128,-1,22
 306 583 306 583 306 580 c 2,23,-1
 306 129 l 2,24,25
 306 127 306 127 311.5 125.5 c 128,-1,26
 317 124 317 124 326 122.5 c 128,-1,27
 335 121 335 121 344.5 121 c 128,-1,28
 354 121 354 121 363 121 c 2,29,-1
 372 121 l 1,30,-1
 372 0 l 1,31,-1
 43 0 l 1,4,-1
765 -25 m 256,32,33
 683 -25 683 -25 616.5 -1 c 128,-1,34
 550 23 550 23 502.5 70.5 c 128,-1,35
 455 118 455 118 429 189 c 128,-1,36
 403 260 403 260 403 356 c 0,37,38
 403 450 403 450 429 521.5 c 128,-1,39
 455 593 455 593 502.5 640 c 128,-1,40
 550 687 550 687 616.5 711 c 128,-1,41
 683 735 683 735 765 735 c 256,42,43
 847 735 847 735 913.5 711 c 128,-1,44
 980 687 980 687 1027.5 640 c 128,-1,45
 1075 593 1075 593 1100.5 521.5 c 128,-1,46
 1126 450 1126 450 1126 356 c 0,47,48
 1126 260 1126 260 1100.5 189 c 128,-1,49
 1075 118 1075 118 1027.5 70.5 c 128,-1,50
 980 23 980 23 913.5 -1 c 128,-1,51
 847 -25 847 -25 765 -25 c 256,32,33
765 101 m 0,52,53
 805 101 805 101 835 114 c 128,-1,54
 865 127 865 127 884 155.5 c 128,-1,55
 903 184 903 184 912.5 232.5 c 128,-1,56
 922 281 922 281 922 355 c 0,57,58
 922 428 922 428 912.5 477 c 128,-1,59
 903 526 903 526 884 554.5 c 128,-1,60
 865 583 865 583 835 596 c 128,-1,61
 805 609 805 609 765 609 c 0,62,63
 724 609 724 609 694 596.5 c 128,-1,64
 664 584 664 584 645 555 c 128,-1,65
 626 526 626 526 616.5 477 c 128,-1,66
 607 428 607 428 607 355 c 256,67,68
 607 282 607 282 616.5 233 c 128,-1,69
 626 184 626 184 645.5 155.5 c 128,-1,70
 665 127 665 127 694.5 114 c 128,-1,71
 724 101 724 101 765 101 c 0,52,53
EndSplineSet
EndChar

StartChar: Yacyr
Encoding: 1071 1071 301
Width: 815
GlyphClass: 2
Flags: W
AnchorPoint: "Anchor-1" 407 0 basechar 0
AnchorPoint: "Anchor-0" 448 741 basechar 0
LayerCount: 2
Fore
SplineSet
414 317 m 1,0,-1
 256 0 l 1,1,-1
 36 0 l 1,2,-1
 36 121 l 1,3,-1
 45 121 l 2,4,5
 65 121 65 121 81 125.5 c 128,-1,6
 97 130 97 130 112 143 c 128,-1,7
 127 156 127 156 141 182 c 2,8,-1
 251 381 l 1,9,-1
 414 317 l 1,0,-1
508 130 m 2,10,-1
 508 594 l 1,11,-1
 392 594 l 2,12,13
 360 594 360 594 337.5 582 c 128,-1,14
 315 570 315 570 304 547 c 128,-1,15
 293 524 293 524 293 491 c 256,16,17
 293 458 293 458 304 434 c 128,-1,18
 315 410 315 410 337 397.5 c 128,-1,19
 359 385 359 385 393 385 c 2,20,-1
 538 385 l 1,21,-1
 538 269 l 1,22,-1
 329 269 l 1,23,-1
 305 291 l 1,24,25
 239 298 239 298 192 325 c 128,-1,26
 145 352 145 352 120 396.5 c 128,-1,27
 95 441 95 441 95 498 c 0,28,29
 95 569 95 569 125 616 c 128,-1,30
 155 663 155 663 213.5 686.5 c 128,-1,31
 272 710 272 710 355 710 c 2,32,-1
 771 710 l 1,33,-1
 771 589 l 1,34,-1
 760 589 l 2,35,36
 737 589 737 589 720.5 582 c 128,-1,37
 704 575 704 575 704 553 c 2,38,-1
 704 157 l 2,39,40
 704 135 704 135 720.5 128 c 128,-1,41
 737 121 737 121 760 121 c 2,42,-1
 771 121 l 1,43,-1
 771 0 l 1,44,-1
 428 0 l 1,45,-1
 428 121 l 1,46,-1
 443 121 l 2,47,48
 457 121 457 121 469 121.5 c 128,-1,49
 481 122 481 122 489.5 123 c 128,-1,50
 498 124 498 124 503 125.5 c 128,-1,51
 508 127 508 127 508 130 c 2,10,-1
EndSplineSet
EndChar

StartChar: Geupcyr
Encoding: 1168 1168 302
Width: 678
GlyphClass: 2
Flags: W
AnchorPoint: "Anchor-0" 319 741 basechar 0
LayerCount: 2
Fore
SplineSet
306 589 m 1,0,-1
 306 156 l 2,1,2
 306 143 306 143 314 135 c 128,-1,3
 322 127 322 127 335.5 124 c 128,-1,4
 349 121 349 121 366 121 c 2,5,-1
 398 121 l 1,6,-1
 398 0 l 1,7,-1
 43 0 l 1,8,-1
 43 121 l 1,9,-1
 54 121 l 2,10,11
 78 121 78 121 94.5 128 c 128,-1,12
 111 135 111 135 111 157 c 2,13,-1
 111 553 l 2,14,15
 111 575 111 575 94.5 582 c 128,-1,16
 78 589 78 589 54 589 c 2,17,-1
 43 589 l 1,18,-1
 43 710 l 1,19,-1
 406 710 l 2,20,21
 439 710 439 710 461 715 c 128,-1,22
 483 720 483 720 494.5 732 c 128,-1,23
 506 744 506 744 507 762 c 2,24,-1
 519 899 l 1,25,-1
 642 899 l 1,26,-1
 642 589 l 1,27,-1
 306 589 l 1,0,-1
EndSplineSet
EndChar

StartChar: Gestrokecyr
Encoding: 1170 1170 303
Width: 683
GlyphClass: 2
Flags: W
AnchorPoint: "Anchor-0" 348 741 basechar 0
LayerCount: 2
Fore
SplineSet
43 424 m 1,0,-1
 446 424 l 1,1,-1
 446 304 l 1,2,-1
 43 304 l 1,3,-1
 43 424 l 1,0,-1
306 589 m 1,4,-1
 306 156 l 2,5,6
 306 143 306 143 314 135 c 128,-1,7
 322 127 322 127 335.5 124 c 128,-1,8
 349 121 349 121 366 121 c 2,9,-1
 398 121 l 1,10,-1
 398 0 l 1,11,-1
 43 0 l 1,12,-1
 43 121 l 1,13,-1
 54 121 l 2,14,15
 78 121 78 121 94.5 128 c 128,-1,16
 111 135 111 135 111 157 c 2,17,-1
 111 553 l 2,18,19
 111 575 111 575 94.5 582 c 128,-1,20
 78 589 78 589 54 589 c 2,21,-1
 43 589 l 1,22,-1
 43 710 l 1,23,-1
 642 710 l 1,24,-1
 642 449 l 1,25,-1
 519 449 l 1,26,-1
 510 536 l 2,27,28
 509 555 509 555 498.5 567 c 128,-1,29
 488 579 488 579 467.5 584 c 128,-1,30
 447 589 447 589 414 589 c 2,31,-1
 306 589 l 1,4,-1
EndSplineSet
EndChar

StartChar: Zhetailcyr
Encoding: 1174 1174 304
Width: 1256
GlyphClass: 2
Flags: W
AnchorPoint: "Anchor-0" 615 741 basechar 0
LayerCount: 2
Fore
SplineSet
869 0 m 1,0,-1
 869 121 l 1,1,-1
 881 121 l 2,2,3
 894 121 894 121 904.5 122 c 128,-1,4
 915 123 915 123 921 125.5 c 128,-1,5
 927 128 927 128 927 131 c 2,6,-1
 750 349 l 1,7,-1
 750 372 l 1,8,-1
 965 579 l 2,9,10
 965 582 965 582 958.5 584 c 128,-1,11
 952 586 952 586 940.5 587.5 c 128,-1,12
 929 589 929 589 913 589 c 2,13,-1
 897 589 l 1,14,-1
 897 710 l 1,15,-1
 1192 710 l 1,16,-1
 1192 589 l 1,17,-1
 1175 589 l 2,18,19
 1161 589 1161 589 1149.5 586.5 c 128,-1,20
 1138 584 1138 584 1127 577.5 c 128,-1,21
 1116 571 1116 571 1104 559 c 2,22,-1
 892 356 l 1,23,-1
 907 448 l 1,24,-1
 1176 121 l 1,25,-1
 1176 0 l 1,26,-1
 869 0 l 1,0,-1
371 0 m 1,27,-1
 26 0 l 1,28,-1
 26 121 l 1,29,-1
 39 121 l 2,30,31
 48 121 48 121 56.5 122 c 128,-1,32
 65 123 65 123 73.5 127.5 c 128,-1,33
 82 132 82 132 89 141 c 2,34,-1
 341 448 l 1,35,-1
 343 356 l 1,36,-1
 132 559 l 2,37,38
 120 571 120 571 108.5 577.5 c 128,-1,39
 97 584 97 584 86 586.5 c 128,-1,40
 75 589 75 589 60 589 c 2,41,-1
 43 589 l 1,42,-1
 43 710 l 1,43,-1
 343 710 l 1,44,-1
 343 589 l 1,45,-1
 327 589 l 2,46,47
 311 589 311 589 299.5 587.5 c 128,-1,48
 288 586 288 586 281.5 584 c 128,-1,49
 275 582 275 582 275 578 c 2,50,-1
 490 372 l 1,51,-1
 490 349 l 1,52,-1
 313 130 l 2,53,54
 313 128 313 128 319.5 125.5 c 128,-1,55
 326 123 326 123 336.5 122 c 128,-1,56
 347 121 347 121 359 121 c 2,57,-1
 371 121 l 1,58,-1
 371 0 l 1,27,-1
996 0 m 2,59,-1
 971 0 l 1,60,-1
 977 121 l 1,61,-1
 1242 121 l 1,62,-1
 1242 -189 l 1,63,-1
 1120 -189 l 1,64,-1
 1107 -53 l 2,65,66
 1106 -35 1106 -35 1096 -23 c 128,-1,67
 1086 -11 1086 -11 1062 -5.5 c 128,-1,68
 1038 0 1038 0 996 0 c 2,59,-1
459 0 m 1,69,-1
 459 120 l 1,70,-1
 467 120 l 2,71,72
 476 120 476 120 485.5 121 c 128,-1,73
 495 122 495 122 503.5 123 c 128,-1,74
 512 124 512 124 517 125.5 c 128,-1,75
 522 127 522 127 522 130 c 2,76,-1
 522 581 l 2,77,78
 522 583 522 583 517 584.5 c 128,-1,79
 512 586 512 586 503.5 587.5 c 128,-1,80
 495 589 495 589 485.5 589 c 128,-1,81
 476 589 476 589 467 589 c 2,82,-1
 459 589 l 1,83,-1
 459 710 l 1,84,-1
 781 710 l 1,85,-1
 781 590 l 1,86,-1
 773 590 l 2,87,88
 764 590 764 590 754.5 589 c 128,-1,89
 745 588 745 588 736.5 587 c 128,-1,90
 728 586 728 586 723 584.5 c 128,-1,91
 718 583 718 583 718 580 c 2,92,-1
 718 129 l 2,93,94
 718 127 718 127 723 125.5 c 128,-1,95
 728 124 728 124 736.5 122.5 c 128,-1,96
 745 121 745 121 754.5 121 c 128,-1,97
 764 121 764 121 774 121 c 2,98,-1
 781 121 l 1,99,-1
 781 0 l 1,100,-1
 459 0 l 1,69,-1
EndSplineSet
EndChar

StartChar: Katailcyr
Encoding: 1178 1178 306
Width: 862
GlyphClass: 2
Flags: W
AnchorPoint: "Anchor-0" 439 741 basechar 0
LayerCount: 2
Fore
SplineSet
43 0 m 1,0,-1
 43 121 l 1,1,-1
 54 121 l 2,2,3
 78 121 78 121 94.5 128 c 128,-1,4
 111 135 111 135 111 157 c 2,5,-1
 111 553 l 2,6,7
 111 575 111 575 94.5 582 c 128,-1,8
 78 589 78 589 54 589 c 2,9,-1
 43 589 l 1,10,-1
 43 710 l 1,11,-1
 379 710 l 1,12,-1
 379 589 l 1,13,-1
 367 589 l 2,14,15
 355 589 355 589 344 589 c 128,-1,16
 333 589 333 589 324.5 587.5 c 128,-1,17
 316 586 316 586 311 584.5 c 128,-1,18
 306 583 306 583 306 580 c 2,19,-1
 306 130 l 2,20,21
 306 127 306 127 311 126 c 128,-1,22
 316 125 316 125 323.5 123.5 c 128,-1,23
 331 122 331 122 340 121.5 c 128,-1,24
 349 121 349 121 357 121 c 2,25,-1
 365 121 l 1,26,-1
 365 0 l 1,27,-1
 43 0 l 1,0,-1
471 0 m 1,28,-1
 471 121 l 1,29,-1
 483 121 l 2,30,31
 496 121 496 121 506 122 c 128,-1,32
 516 123 516 123 522.5 125.5 c 128,-1,33
 529 128 529 128 529 131 c 2,34,-1
 339 349 l 1,35,-1
 339 372 l 1,36,-1
 565 578 l 2,37,38
 565 582 565 582 559 584 c 128,-1,39
 553 586 553 586 541.5 587.5 c 128,-1,40
 530 589 530 589 515 589 c 2,41,-1
 499 589 l 1,42,-1
 499 710 l 1,43,-1
 794 710 l 1,44,-1
 794 589 l 1,45,-1
 779 589 l 2,46,47
 765 589 765 589 753 586.5 c 128,-1,48
 741 584 741 584 730 577.5 c 128,-1,49
 719 571 719 571 706 559 c 2,50,-1
 484 357 l 1,51,-1
 497 448 l 1,52,-1
 785 121 l 1,53,-1
 785 0 l 1,54,-1
 471 0 l 1,28,-1
602 0 m 2,55,-1
 577 0 l 1,56,-1
 583 121 l 1,57,-1
 848 121 l 1,58,-1
 848 -189 l 1,59,-1
 726 -189 l 1,60,-1
 713 -53 l 2,61,62
 712 -35 712 -35 702 -23 c 128,-1,63
 692 -11 692 -11 668.5 -5.5 c 128,-1,64
 645 0 645 0 602 0 c 2,55,-1
EndSplineSet
EndChar

StartChar: Kaverticalstrokecyr
Encoding: 1180 1180 307
Width: 946
GlyphClass: 2
Flags: W
AnchorPoint: "Anchor-0" 492 741 basechar 0
LayerCount: 2
Fore
SplineSet
348 170 m 1,0,-1
 348 543 l 1,1,-1
 468 543 l 1,2,-1
 468 170 l 1,3,-1
 348 170 l 1,0,-1
43 0 m 1,4,-1
 43 121 l 1,5,-1
 54 121 l 2,6,7
 78 121 78 121 94.5 128 c 128,-1,8
 111 135 111 135 111 157 c 2,9,-1
 111 553 l 2,10,11
 111 575 111 575 94.5 582 c 128,-1,12
 78 589 78 589 54 589 c 2,13,-1
 43 589 l 1,14,-1
 43 710 l 1,15,-1
 379 710 l 1,16,-1
 379 589 l 1,17,-1
 367 589 l 2,18,19
 355 589 355 589 344 589 c 128,-1,20
 333 589 333 589 324.5 587.5 c 128,-1,21
 316 586 316 586 311 584.5 c 128,-1,22
 306 583 306 583 306 580 c 2,23,-1
 306 130 l 2,24,25
 306 127 306 127 311 126 c 128,-1,26
 316 125 316 125 323.5 123.5 c 128,-1,27
 331 122 331 122 340 121.5 c 128,-1,28
 349 121 349 121 357 121 c 2,29,-1
 365 121 l 1,30,-1
 365 0 l 1,31,-1
 43 0 l 1,4,-1
576 0 m 1,32,-1
 576 121 l 1,33,-1
 587 121 l 2,34,35
 602 121 602 121 613.5 122 c 128,-1,36
 625 123 625 123 631 125.5 c 128,-1,37
 637 128 637 128 637 131 c 2,38,-1
 490 349 l 1,39,-1
 490 372 l 1,40,-1
 681 578 l 2,41,42
 681 582 681 582 674 584 c 128,-1,43
 667 586 667 586 653.5 587.5 c 128,-1,44
 640 589 640 589 620 589 c 2,45,-1
 604 589 l 1,46,-1
 604 710 l 1,47,-1
 894 710 l 1,48,-1
 894 589 l 1,49,-1
 877 589 l 2,50,51
 859 589 859 589 844 582.5 c 128,-1,52
 829 576 829 576 814 560 c 2,53,-1
 630 361 l 1,54,-1
 653 435 l 1,55,-1
 856 142 l 2,56,57
 863 132 863 132 871.5 127.5 c 128,-1,58
 880 123 880 123 888 122 c 128,-1,59
 896 121 896 121 903 121 c 2,60,-1
 920 121 l 1,61,-1
 920 0 l 1,62,-1
 576 0 l 1,32,-1
EndSplineSet
EndChar

StartChar: Kabashkcyr
Encoding: 1184 1184 308
Width: 1025
GlyphClass: 2
Flags: W
AnchorPoint: "Anchor-0" 605 741 basechar 0
LayerCount: 2
Fore
SplineSet
642 0 m 1,0,-1
 642 121 l 1,1,-1
 654 121 l 2,2,3
 667 121 667 121 677 122 c 128,-1,4
 687 123 687 123 693.5 125.5 c 128,-1,5
 700 128 700 128 700 131 c 2,6,-1
 510 349 l 1,7,-1
 510 372 l 1,8,-1
 736 578 l 2,9,10
 736 582 736 582 729.5 584 c 128,-1,11
 723 586 723 586 712 587.5 c 128,-1,12
 701 589 701 589 686 589 c 2,13,-1
 670 589 l 1,14,-1
 670 710 l 1,15,-1
 965 710 l 1,16,-1
 965 589 l 1,17,-1
 950 589 l 2,18,19
 935 589 935 589 923.5 586.5 c 128,-1,20
 912 584 912 584 901 577.5 c 128,-1,21
 890 571 890 571 877 559 c 2,22,-1
 655 357 l 1,23,-1
 668 448 l 1,24,-1
 937 142 l 2,25,26
 945 133 945 133 953 128.5 c 128,-1,27
 961 124 961 124 969.5 122.5 c 128,-1,28
 978 121 978 121 987 121 c 2,29,-1
 1000 121 l 1,30,-1
 1000 0 l 1,31,-1
 642 0 l 1,0,-1
214 0 m 1,32,-1
 214 121 l 1,33,-1
 225 121 l 2,34,35
 248 121 248 121 265 128 c 128,-1,36
 282 135 282 135 282 157 c 2,37,-1
 282 588 l 1,38,-1
 244 588 l 2,39,40
 214 588 214 588 199.5 582 c 128,-1,41
 185 576 185 576 180.5 564 c 128,-1,42
 176 552 176 552 174 534 c 2,43,-1
 164 423 l 1,44,-1
 42 423 l 1,45,-1
 42 710 l 1,46,-1
 550 710 l 1,47,-1
 550 589 l 1,48,-1
 538 589 l 2,49,50
 522 589 522 589 508.5 588.5 c 128,-1,51
 495 588 495 588 486 586 c 128,-1,52
 477 584 477 584 477 580 c 2,53,-1
 477 130 l 2,54,55
 477 128 477 128 485 125.5 c 128,-1,56
 493 123 493 123 505 122 c 128,-1,57
 517 121 517 121 528 121 c 2,58,-1
 535 121 l 1,59,-1
 535 0 l 1,60,-1
 214 0 l 1,32,-1
EndSplineSet
EndChar

StartChar: Entailcyr
Encoding: 1186 1186 309
Width: 875
GlyphClass: 2
Flags: W
AnchorPoint: "Anchor-0" 438 741 basechar 0
LayerCount: 2
Fore
SplineSet
207 426 m 1,0,-1
 624 426 l 1,1,-1
 624 305 l 1,2,-1
 207 305 l 1,3,-1
 207 426 l 1,0,-1
43 0 m 1,4,-1
 43 121 l 1,5,-1
 54 121 l 2,6,7
 78 121 78 121 94.5 128 c 128,-1,8
 111 135 111 135 111 157 c 2,9,-1
 111 553 l 2,10,11
 111 575 111 575 94.5 582 c 128,-1,12
 78 589 78 589 54 589 c 2,13,-1
 43 589 l 1,14,-1
 43 710 l 1,15,-1
 372 710 l 1,16,-1
 372 591 l 1,17,-1
 363 591 l 2,18,19
 354 591 354 591 344.5 589.5 c 128,-1,20
 335 588 335 588 326 587 c 128,-1,21
 317 586 317 586 311.5 584.5 c 128,-1,22
 306 583 306 583 306 580 c 2,23,-1
 306 129 l 2,24,25
 306 127 306 127 311.5 125.5 c 128,-1,26
 317 124 317 124 326 122.5 c 128,-1,27
 335 121 335 121 344.5 121 c 128,-1,28
 354 121 354 121 363 121 c 2,29,-1
 372 121 l 1,30,-1
 372 0 l 1,31,-1
 43 0 l 1,4,-1
489 0 m 1,32,-1
 489 119 l 1,33,-1
 498 119 l 2,34,35
 507 119 507 119 517 120.5 c 128,-1,36
 527 122 527 122 535.5 123 c 128,-1,37
 544 124 544 124 549.5 125.5 c 128,-1,38
 555 127 555 127 555 130 c 2,39,-1
 555 581 l 2,40,41
 555 583 555 583 549.5 584.5 c 128,-1,42
 544 586 544 586 535.5 587.5 c 128,-1,43
 527 589 527 589 517 589 c 128,-1,44
 507 589 507 589 498 589 c 2,45,-1
 489 589 l 1,46,-1
 489 710 l 1,47,-1
 818 710 l 1,48,-1
 818 589 l 1,49,-1
 807 589 l 2,50,51
 783 589 783 589 766.5 582 c 128,-1,52
 750 575 750 575 750 553 c 2,53,-1
 750 0 l 1,54,-1
 489 0 l 1,32,-1
600 0 m 2,55,-1
 577 0 l 1,56,-1
 583 121 l 1,57,-1
 845 121 l 1,58,-1
 845 -189 l 1,59,-1
 723 -189 l 1,60,-1
 711 -53 l 2,61,62
 710 -35 710 -35 699.5 -23 c 128,-1,63
 689 -11 689 -11 665.5 -5.5 c 128,-1,64
 642 0 642 0 600 0 c 2,55,-1
EndSplineSet
EndChar

StartChar: Tetailcyr
Encoding: 1196 1196 311
Width: 774
GlyphClass: 2
Flags: W
AnchorPoint: "Anchor-0" 380 741 basechar 0
LayerCount: 2
Fore
SplineSet
289 157 m 2,0,-1
 289 588 l 1,1,-1
 244 588 l 2,2,3
 214 588 214 588 199.5 582 c 128,-1,4
 185 576 185 576 180.5 564 c 128,-1,5
 176 552 176 552 174 534 c 2,6,-1
 164 423 l 1,7,-1
 42 423 l 1,8,-1
 42 710 l 1,9,-1
 732 710 l 1,10,-1
 732 423 l 1,11,-1
 610 423 l 1,12,-1
 600 534 l 2,13,14
 599 552 599 552 594 564 c 128,-1,15
 589 576 589 576 574.5 582 c 128,-1,16
 560 588 560 588 530 588 c 2,17,-1
 485 588 l 1,18,-1
 485 0 l 1,19,-1
 207 0 l 1,20,-1
 207 121 l 1,21,-1
 226 121 l 2,22,23
 251 121 251 121 270 128 c 128,-1,24
 289 135 289 135 289 157 c 2,0,-1
346 0 m 2,25,-1
 322 0 l 1,26,-1
 331 121 l 1,27,-1
 592 121 l 1,28,-1
 592 -189 l 1,29,-1
 469 -189 l 1,30,-1
 457 -53 l 2,31,32
 456 -35 456 -35 445.5 -23 c 128,-1,33
 435 -11 435 -11 411.5 -5.5 c 128,-1,34
 388 0 388 0 346 0 c 2,25,-1
EndSplineSet
EndChar

StartChar: Ustraightstrokecyr
Encoding: 1200 1200 313
Width: 740
GlyphClass: 2
Flags: W
AnchorPoint: "Anchor-1" 370 0 basechar 0
AnchorPoint: "Anchor-0" 370 741 basechar 0
LayerCount: 2
Fore
SplineSet
148 299 m 1,0,-1
 602 299 l 1,1,-1
 602 179 l 1,2,-1
 148 179 l 1,3,-1
 148 299 l 1,0,-1
277 339 m 1,4,-1
 285 289 l 1,5,-1
 108 534 l 2,6,7
 94 554 94 554 83.5 566 c 128,-1,8
 73 578 73 578 62 583.5 c 128,-1,9
 51 589 51 589 33 589 c 2,10,-1
 26 589 l 1,11,-1
 26 710 l 1,12,-1
 355 710 l 1,13,-1
 355 589 l 1,14,-1
 343 589 l 2,15,16
 327 589 327 589 315.5 587.5 c 128,-1,17
 304 586 304 586 298 584 c 128,-1,18
 292 582 292 582 292 578 c 2,19,-1
 445 346 l 1,20,-1
 368 337 l 1,21,-1
 528 571 l 2,22,23
 528 577 528 577 522 580.5 c 128,-1,24
 516 584 516 584 507 586.5 c 128,-1,25
 498 589 498 589 488 589 c 2,26,-1
 479 589 l 1,27,-1
 479 710 l 1,28,-1
 714 710 l 1,29,-1
 714 589 l 1,30,-1
 706 589 l 2,31,32
 693 589 693 589 683.5 583.5 c 128,-1,33
 674 578 674 578 664 565.5 c 128,-1,34
 654 553 654 553 640 534 c 2,35,-1
 461 283 l 1,36,-1
 473 339 l 1,37,-1
 473 157 l 2,38,39
 473 135 473 135 491 128 c 128,-1,40
 509 121 509 121 535 121 c 2,41,-1
 554 121 l 1,42,-1
 554 0 l 1,43,-1
 196 0 l 1,44,-1
 196 121 l 1,45,-1
 215 121 l 2,46,47
 241 121 241 121 259 128 c 128,-1,48
 277 135 277 135 277 157 c 2,49,-1
 277 339 l 1,4,-1
EndSplineSet
EndChar

StartChar: Xatailcyr
Encoding: 1202 1202 314
Width: 781
GlyphClass: 2
Flags: W
AnchorPoint: "Anchor-0" 398 741 basechar 0
LayerCount: 2
Fore
SplineSet
31 589 m 1,0,-1
 31 710 l 1,1,-1
 373 710 l 1,2,-1
 373 589 l 1,3,-1
 358 589 l 2,4,5
 347 589 347 589 336 588.5 c 128,-1,6
 325 588 325 588 318.5 586 c 128,-1,7
 312 584 312 584 312 580 c 2,8,-1
 455 397 l 1,9,-1
 485 389 l 1,10,-1
 694 121 l 1,11,-1
 694 0 l 1,12,-1
 399 0 l 1,13,-1
 399 121 l 1,14,-1
 414 121 l 2,15,16
 425 121 425 121 436 121.5 c 128,-1,17
 447 122 447 122 454 124.5 c 128,-1,18
 461 127 461 127 461 130 c 2,19,-1
 303 332 l 1,20,-1
 274 339 l 1,21,-1
 106 555 l 2,22,23
 88 578 88 578 74.5 583.5 c 128,-1,24
 61 589 61 589 38 589 c 2,25,-1
 31 589 l 1,0,-1
28 0 m 1,26,-1
 28 121 l 1,27,-1
 40 121 l 2,28,29
 59 121 59 121 71 130.5 c 128,-1,30
 83 140 83 140 102 167 c 2,31,-1
 264 394 l 1,32,-1
 369 351 l 1,33,-1
 220 137 l 2,34,35
 220 133 220 133 226 129.5 c 128,-1,36
 232 126 232 126 241 123.5 c 128,-1,37
 250 121 250 121 258 121 c 2,38,-1
 272 121 l 1,39,-1
 272 0 l 1,40,-1
 28 0 l 1,26,-1
494 332 m 1,41,-1
 408 401 l 1,42,-1
 532 572 l 2,43,44
 532 578 532 578 525.5 581.5 c 128,-1,45
 519 585 519 585 510 587 c 128,-1,46
 501 589 501 589 492 589 c 2,47,-1
 482 589 l 1,48,-1
 482 710 l 1,49,-1
 721 710 l 1,50,-1
 721 589 l 1,51,-1
 714 589 l 2,52,53
 696 589 696 589 682.5 579.5 c 128,-1,54
 669 570 669 570 650 544 c 2,55,-1
 494 332 l 1,41,-1
522 0 m 2,56,-1
 499 0 l 1,57,-1
 505 121 l 1,58,-1
 768 121 l 1,59,-1
 768 -189 l 1,60,-1
 645 -189 l 1,61,-1
 633 -53 l 2,62,63
 632 -35 632 -35 621.5 -23 c 128,-1,64
 611 -11 611 -11 587.5 -5.5 c 128,-1,65
 564 0 564 0 522 0 c 2,56,-1
EndSplineSet
EndChar

StartChar: Chetailcyr
Encoding: 1206 1206 315
Width: 843
GlyphClass: 2
Flags: W
AnchorPoint: "Anchor-0" 413 741 basechar 0
LayerCount: 2
Fore
SplineSet
341 252 m 0,0,1
 260 252 260 252 206.5 273.5 c 128,-1,2
 153 295 153 295 125.5 343.5 c 128,-1,3
 98 392 98 392 98 472 c 2,4,-1
 98 553 l 2,5,6
 98 575 98 575 81 582 c 128,-1,7
 64 589 64 589 41 589 c 2,8,-1
 30 589 l 1,9,-1
 30 710 l 1,10,-1
 359 710 l 1,11,-1
 359 589 l 1,12,-1
 350 589 l 2,13,14
 339 589 339 589 325.5 588 c 128,-1,15
 312 587 312 587 302.5 585 c 128,-1,16
 293 583 293 583 293 579 c 2,17,-1
 293 481 l 2,18,19
 293 441 293 441 304.5 417.5 c 128,-1,20
 316 394 316 394 341.5 383.5 c 128,-1,21
 367 373 367 373 411 373 c 0,22,23
 445 373 445 373 479 379.5 c 128,-1,24
 513 386 513 386 545 401 c 1,25,-1
 545 288 l 1,26,27
 509 272 509 272 455.5 262 c 128,-1,28
 402 252 402 252 341 252 c 0,0,1
457 0 m 1,29,-1
 457 121 l 1,30,-1
 466 121 l 2,31,32
 478 121 478 121 491 121.5 c 128,-1,33
 504 122 504 122 513.5 124.5 c 128,-1,34
 523 127 523 127 523 130 c 2,35,-1
 523 580 l 2,36,37
 523 584 523 584 513.5 586 c 128,-1,38
 504 588 504 588 491 588.5 c 128,-1,39
 478 589 478 589 466 589 c 2,40,-1
 457 589 l 1,41,-1
 457 710 l 1,42,-1
 786 710 l 1,43,-1
 786 589 l 1,44,-1
 775 589 l 2,45,46
 752 589 752 589 735 582 c 128,-1,47
 718 575 718 575 718 553 c 2,48,-1
 718 0 l 1,49,-1
 457 0 l 1,29,-1
568 0 m 2,50,-1
 545 0 l 1,51,-1
 551 121 l 1,52,-1
 813 121 l 1,53,-1
 813 -189 l 1,54,-1
 691 -189 l 1,55,-1
 679 -53 l 2,56,57
 678 -35 678 -35 667.5 -23 c 128,-1,58
 657 -11 657 -11 633.5 -5.5 c 128,-1,59
 610 0 610 0 568 0 c 2,50,-1
EndSplineSet
EndChar

StartChar: Chevertcyr
Encoding: 1208 1208 316
Width: 877
GlyphClass: 2
Flags: W
AnchorPoint: "Anchor-0" 430 741 basechar 0
LayerCount: 2
Fore
SplineSet
506 0 m 1,0,-1
 506 121 l 1,1,-1
 514 121 l 2,2,3
 526 121 526 121 539 121.5 c 128,-1,4
 552 122 552 122 561.5 124.5 c 128,-1,5
 571 127 571 127 571 130 c 2,6,-1
 571 580 l 2,7,8
 571 584 571 584 561.5 586 c 128,-1,9
 552 588 552 588 539 588.5 c 128,-1,10
 526 589 526 589 514 589 c 2,11,-1
 506 589 l 1,12,-1
 506 710 l 1,13,-1
 834 710 l 1,14,-1
 834 589 l 1,15,-1
 823 589 l 2,16,17
 799 589 799 589 782.5 582 c 128,-1,18
 766 575 766 575 766 553 c 2,19,-1
 766 157 l 2,20,21
 766 135 766 135 782.5 128 c 128,-1,22
 799 121 799 121 823 121 c 2,23,-1
 834 121 l 1,24,-1
 834 0 l 1,25,-1
 506 0 l 1,0,-1
365 252 m 0,26,27
 277 252 277 252 217.5 273.5 c 128,-1,28
 158 295 158 295 128 343.5 c 128,-1,29
 98 392 98 392 98 472 c 2,30,-1
 98 553 l 2,31,32
 98 575 98 575 81.5 582 c 128,-1,33
 65 589 65 589 41 589 c 2,34,-1
 30 589 l 1,35,-1
 30 710 l 1,36,-1
 359 710 l 1,37,-1
 359 589 l 1,38,-1
 350 589 l 2,39,40
 339 589 339 589 325.5 588 c 128,-1,41
 312 587 312 587 302.5 585 c 128,-1,42
 293 583 293 583 293 579 c 2,43,-1
 293 481 l 2,44,45
 293 441 293 441 306.5 417.5 c 128,-1,46
 320 394 320 394 351 383.5 c 128,-1,47
 382 373 382 373 435 373 c 0,48,49
 475 373 475 373 516 379.5 c 128,-1,50
 557 386 557 386 593 401 c 1,51,-1
 593 288 l 1,52,53
 554 271 554 271 493.5 261.5 c 128,-1,54
 433 252 433 252 365 252 c 0,26,27
374 158 m 1,55,-1
 374 531 l 1,56,-1
 495 531 l 1,57,-1
 495 158 l 1,58,-1
 374 158 l 1,55,-1
EndSplineSet
EndChar

StartChar: Shhacyr
Encoding: 1210 1210 317
Width: 829
GlyphClass: 1
Flags: W
LayerCount: 2
Fore
SplineSet
372 710 m 1,0,-1
 372 589 l 1,1,-1
 363 589 l 2,2,3
 352 589 352 589 338.5 588.5 c 128,-1,4
 325 588 325 588 315.5 586 c 128,-1,5
 306 584 306 584 306 580 c 2,6,-1
 306 129 l 2,7,8
 306 127 306 127 315.5 124.5 c 128,-1,9
 325 122 325 122 338.5 121.5 c 128,-1,10
 352 121 352 121 364 121 c 2,11,-1
 372 121 l 1,12,-1
 372 0 l 1,13,-1
 43 0 l 1,14,-1
 43 121 l 1,15,-1
 54 121 l 2,16,17
 78 121 78 121 94.5 128 c 128,-1,18
 111 135 111 135 111 157 c 2,19,-1
 111 553 l 2,20,21
 111 575 111 575 94.5 582 c 128,-1,22
 78 589 78 589 54 589 c 2,23,-1
 43 589 l 1,24,-1
 43 710 l 1,25,-1
 372 710 l 1,0,-1
489 458 m 0,26,27
 568 458 568 458 622 436.5 c 128,-1,28
 676 415 676 415 703.5 367 c 128,-1,29
 731 319 731 319 731 238 c 2,30,-1
 731 156 l 2,31,32
 731 134 731 134 747.5 127.5 c 128,-1,33
 764 121 764 121 788 121 c 2,34,-1
 799 121 l 1,35,-1
 799 0 l 1,36,-1
 470 0 l 1,37,-1
 470 121 l 1,38,-1
 479 121 l 2,39,40
 491 121 491 121 504 122 c 128,-1,41
 517 123 517 123 526.5 125.5 c 128,-1,42
 536 128 536 128 536 131 c 2,43,-1
 536 230 l 2,44,45
 536 270 536 270 524.5 293.5 c 128,-1,46
 513 317 513 317 487.5 327 c 128,-1,47
 462 337 462 337 418 337 c 0,48,49
 384 337 384 337 350 331 c 128,-1,50
 316 325 316 325 284 309 c 1,51,-1
 284 423 l 1,52,53
 320 438 320 438 373.5 448 c 128,-1,54
 427 458 427 458 489 458 c 0,26,27
EndSplineSet
EndChar

StartChar: Obarcyr
Encoding: 1256 1256 320
Width: 838
GlyphClass: 2
Flags: W
AnchorPoint: "Anchor-1" 411 0 basechar 0
AnchorPoint: "Anchor-0" 411 741 basechar 0
LayerCount: 2
Fore
SplineSet
181 426 m 1,0,-1
 657 426 l 1,1,-1
 657 305 l 1,2,-1
 181 305 l 1,3,-1
 181 426 l 1,0,-1
420 -25 m 0,4,5
 335 -25 335 -25 267 -1 c 128,-1,6
 199 23 199 23 149.5 70.5 c 128,-1,7
 100 118 100 118 74 189 c 128,-1,8
 48 260 48 260 48 355 c 256,9,10
 48 450 48 450 74 521.5 c 128,-1,11
 100 593 100 593 149.5 640 c 128,-1,12
 199 687 199 687 267 711 c 128,-1,13
 335 735 335 735 420 735 c 0,14,15
 504 735 504 735 572.5 711 c 128,-1,16
 641 687 641 687 689.5 640 c 128,-1,17
 738 593 738 593 764 521.5 c 128,-1,18
 790 450 790 450 790 355 c 256,19,20
 790 260 790 260 764 189 c 128,-1,21
 738 118 738 118 689.5 70.5 c 128,-1,22
 641 23 641 23 572.5 -1 c 128,-1,23
 504 -25 504 -25 420 -25 c 0,4,5
420 101 m 256,24,25
 463 101 463 101 494.5 114 c 128,-1,26
 526 127 526 127 546.5 155.5 c 128,-1,27
 567 184 567 184 576.5 232.5 c 128,-1,28
 586 281 586 281 586 355 c 0,29,30
 586 428 586 428 576.5 477 c 128,-1,31
 567 526 567 526 546.5 554.5 c 128,-1,32
 526 583 526 583 494.5 596 c 128,-1,33
 463 609 463 609 420 609 c 0,34,35
 376 609 376 609 344.5 596.5 c 128,-1,36
 313 584 313 584 292.5 555 c 128,-1,37
 272 526 272 526 262 477 c 128,-1,38
 252 428 252 428 252 355 c 256,39,40
 252 282 252 282 262 233 c 128,-1,41
 272 184 272 184 292.5 155.5 c 128,-1,42
 313 127 313 127 345 114 c 128,-1,43
 377 101 377 101 420 101 c 256,24,25
EndSplineSet
EndChar

StartChar: Hastrokecyr
Encoding: 1278 1278 321
Width: 774
GlyphClass: 2
Flags: W
AnchorPoint: "Anchor-1" 364 0 basechar 0
AnchorPoint: "Anchor-0" 395 741 basechar 0
LayerCount: 2
Fore
SplineSet
130 427 m 1,0,-1
 632 427 l 1,1,-1
 632 306 l 1,2,-1
 130 306 l 1,3,-1
 130 427 l 1,0,-1
31 589 m 1,4,-1
 31 710 l 1,5,-1
 373 710 l 1,6,-1
 373 589 l 1,7,-1
 358 589 l 2,8,9
 347 589 347 589 336 588.5 c 128,-1,10
 325 588 325 588 318.5 586 c 128,-1,11
 312 584 312 584 312 580 c 2,12,-1
 455 397 l 1,13,-1
 485 389 l 1,14,-1
 668 155 l 2,15,16
 685 133 685 133 699 127 c 128,-1,17
 713 121 713 121 734 121 c 2,18,-1
 748 121 l 1,19,-1
 748 0 l 1,20,-1
 399 0 l 1,21,-1
 399 121 l 1,22,-1
 414 121 l 2,23,24
 425 121 425 121 436 121.5 c 128,-1,25
 447 122 447 122 454 124.5 c 128,-1,26
 461 127 461 127 461 130 c 2,27,-1
 303 332 l 1,28,-1
 274 339 l 1,29,-1
 106 555 l 2,30,31
 88 578 88 578 74.5 583.5 c 128,-1,32
 61 589 61 589 38 589 c 2,33,-1
 31 589 l 1,4,-1
28 0 m 1,34,-1
 28 121 l 1,35,-1
 40 121 l 2,36,37
 59 121 59 121 71 130.5 c 128,-1,38
 83 140 83 140 102 167 c 2,39,-1
 264 394 l 1,40,-1
 369 351 l 1,41,-1
 220 137 l 2,42,43
 220 133 220 133 226 129.5 c 128,-1,44
 232 126 232 126 241 123.5 c 128,-1,45
 250 121 250 121 258 121 c 2,46,-1
 272 121 l 1,47,-1
 272 0 l 1,48,-1
 28 0 l 1,34,-1
493 332 m 1,49,-1
 408 401 l 1,50,-1
 532 572 l 2,51,52
 532 578 532 578 525.5 581.5 c 128,-1,53
 519 585 519 585 510 587 c 128,-1,54
 501 589 501 589 492 589 c 2,55,-1
 482 589 l 1,56,-1
 482 710 l 1,57,-1
 721 710 l 1,58,-1
 721 589 l 1,59,-1
 714 589 l 2,60,61
 696 589 696 589 682.5 579.5 c 128,-1,62
 669 570 669 570 650 544 c 2,63,-1
 493 332 l 1,49,-1
EndSplineSet
EndChar

StartChar: a
Encoding: 97 97 322
Width: 667
GlyphClass: 2
Flags: W
AnchorPoint: "Anchor-2" 501 -10 basechar 0
AnchorPoint: "Anchor-1" 343 0 basechar 0
AnchorPoint: "Anchor-0" 309 569 basechar 0
LayerCount: 2
Fore
SplineSet
405 360 m 1,0,-1
 405 272 l 1,1,2
 352 262 352 262 317 252 c 128,-1,3
 282 242 282 242 262 232 c 128,-1,4
 242 222 242 222 232.5 211 c 128,-1,5
 223 200 223 200 220.5 187.5 c 128,-1,6
 218 175 218 175 218 161 c 0,7,8
 218 139 218 139 226 127 c 128,-1,9
 234 115 234 115 248 111 c 128,-1,10
 262 107 262 107 283 107 c 0,11,12
 301 107 301 107 321 112 c 128,-1,13
 341 117 341 117 362 131.5 c 128,-1,14
 383 146 383 146 405 174 c 1,15,-1
 420 134 l 1,16,17
 394 80 394 80 366.5 48.5 c 128,-1,18
 339 17 339 17 304 2.5 c 128,-1,19
 269 -12 269 -12 221 -12 c 0,20,21
 162 -12 162 -12 123.5 3 c 128,-1,22
 85 18 85 18 66.5 50.5 c 128,-1,23
 48 83 48 83 48 136 c 0,24,25
 48 183 48 183 63.5 217.5 c 128,-1,26
 79 252 79 252 118 277.5 c 128,-1,27
 157 303 157 303 227 323 c 128,-1,28
 297 343 297 343 405 360 c 1,0,-1
433 0 m 1,29,-1
 409 120 l 1,30,-1
 398 118 l 1,31,-1
 398 405 l 2,32,33
 398 420 398 420 393 432.5 c 128,-1,34
 388 445 388 445 370.5 452 c 128,-1,35
 353 459 353 459 313 459 c 0,36,37
 259 459 259 459 222.5 450.5 c 128,-1,38
 186 442 186 442 175 435 c 1,39,40
 169 437 169 437 169.5 448.5 c 128,-1,41
 170 460 170 460 177 474 c 128,-1,42
 184 488 184 488 196.5 498 c 128,-1,43
 209 508 209 508 229 506 c 1,44,-1
 229 377 l 1,45,-1
 77 377 l 1,46,-1
 77 523 l 1,47,48
 93 532 93 532 127 545.5 c 128,-1,49
 161 559 161 559 211.5 570 c 128,-1,50
 262 581 262 581 329 581 c 0,51,52
 390 581 390 581 437 570.5 c 128,-1,53
 484 560 484 560 516 539.5 c 128,-1,54
 548 519 548 519 564 488 c 128,-1,55
 580 457 580 457 580 415 c 2,56,-1
 580 153 l 2,57,58
 580 142 580 142 585.5 135.5 c 128,-1,59
 591 129 591 129 602 125.5 c 128,-1,60
 613 122 613 122 630 118 c 2,61,-1
 639 116 l 1,62,-1
 639 0 l 1,63,-1
 433 0 l 1,29,-1
EndSplineSet
Substitution2: "'ss06' Style Set 6 lookup 66 subtable" a.alt
EndChar

StartChar: aogonek
Encoding: 261 261 331
Width: 667
GlyphClass: 1
Flags: W
LayerCount: 2
Fore
SplineSet
227 -147 m 0,0,1
 227 -122 227 -122 239 -103 c 128,-1,2
 251 -84 251 -84 280.5 -64.5 c 128,-1,3
 310 -45 310 -45 362 -19.5 c 128,-1,4
 414 6 414 6 493 44 c 1,5,-1
 538 2 l 1,6,7
 494 -28 494 -28 465.5 -46 c 128,-1,8
 437 -64 437 -64 421.5 -75.5 c 128,-1,9
 406 -87 406 -87 399 -97.5 c 128,-1,10
 392 -108 392 -108 392 -123 c 0,11,12
 392 -140 392 -140 404 -151 c 128,-1,13
 416 -162 416 -162 440 -162 c 0,14,15
 463 -162 463 -162 481.5 -150.5 c 128,-1,16
 500 -139 500 -139 515 -126 c 1,17,-1
 567 -183 l 1,18,19
 537 -214 537 -214 497.5 -233 c 128,-1,20
 458 -252 458 -252 387 -252 c 0,21,22
 314 -252 314 -252 270.5 -228.5 c 128,-1,23
 227 -205 227 -205 227 -147 c 0,0,1
639 0 m 1,24,-1
 433 0 l 1,25,-1
 409 120 l 1,26,-1
 397 118 l 1,27,-1
 397 408 l 2,28,29
 397 422 397 422 392 434 c 128,-1,30
 387 446 387 446 369.5 453.5 c 128,-1,31
 352 461 352 461 313 461 c 0,32,33
 258 461 258 461 221.5 457.5 c 128,-1,34
 185 454 185 454 174 452 c 0,35,36
 168 454 168 454 168.5 463 c 128,-1,37
 169 472 169 472 176 482.5 c 128,-1,38
 183 493 183 493 196 500.5 c 128,-1,39
 209 508 209 508 228 506 c 1,40,-1
 228 377 l 1,41,-1
 76 377 l 1,42,-1
 76 523 l 1,43,44
 93 533 93 533 127 546.5 c 128,-1,45
 161 560 161 560 211.5 570.5 c 128,-1,46
 262 581 262 581 329 581 c 0,47,48
 389 581 389 581 436 570.5 c 128,-1,49
 483 560 483 560 515 539.5 c 128,-1,50
 547 519 547 519 563 488 c 128,-1,51
 579 457 579 457 579 415 c 2,52,-1
 579 150 l 2,53,54
 579 140 579 140 584.5 134.5 c 128,-1,55
 590 129 590 129 601 125.5 c 128,-1,56
 612 122 612 122 630 118 c 2,57,-1
 639 116 l 1,58,-1
 639 0 l 1,24,-1
46 136 m 0,59,60
 46 186 46 186 62.5 221 c 128,-1,61
 79 256 79 256 119 281 c 128,-1,62
 159 306 159 306 228.5 325 c 128,-1,63
 298 344 298 344 404 361 c 1,64,-1
 404 272 l 1,65,66
 348 262 348 262 312.5 251.5 c 128,-1,67
 277 241 277 241 257 231.5 c 128,-1,68
 237 222 237 222 228.5 211 c 128,-1,69
 220 200 220 200 218 188.5 c 128,-1,70
 216 177 216 177 216 164 c 0,71,72
 216 140 216 140 224 127 c 128,-1,73
 232 114 232 114 247 109.5 c 128,-1,74
 262 105 262 105 283 105 c 0,75,76
 301 105 301 105 319 107.5 c 128,-1,77
 337 110 337 110 358 122.5 c 128,-1,78
 379 135 379 135 403 163 c 1,79,-1
 424 139 l 1,80,81
 398 83 398 83 369 49.5 c 128,-1,82
 340 16 340 16 303.5 2 c 128,-1,83
 267 -12 267 -12 219 -12 c 0,84,85
 160 -12 160 -12 121.5 3 c 128,-1,86
 83 18 83 18 64.5 50.5 c 128,-1,87
 46 83 46 83 46 136 c 0,59,60
EndSplineSet
Substitution2: "'ss06' Style Set 6 lookup 66 subtable" aogonek.alt
EndChar

StartChar: acaron
Encoding: 462 462 332
Width: 667
GlyphClass: 1
Flags: W
LayerCount: 2
Fore
SplineSet
265 638 m 1,0,-1
 387 638 l 1,1,-1
 539 820 l 1,2,-1
 539 869 l 1,3,-1
 458 869 l 1,4,-1
 292 745 l 1,5,-1
 368 746 l 1,6,-1
 197 869 l 1,7,-1
 112 869 l 1,8,-1
 112 820 l 1,9,-1
 265 638 l 1,0,-1
405 360 m 1,10,-1
 405 272 l 1,11,12
 352 262 352 262 317 252 c 128,-1,13
 282 242 282 242 262 232 c 128,-1,14
 242 222 242 222 232.5 211 c 128,-1,15
 223 200 223 200 220.5 187.5 c 128,-1,16
 218 175 218 175 218 161 c 0,17,18
 218 139 218 139 226 127 c 128,-1,19
 234 115 234 115 248 111 c 128,-1,20
 262 107 262 107 283 107 c 0,21,22
 301 107 301 107 321 112 c 128,-1,23
 341 117 341 117 362 131.5 c 128,-1,24
 383 146 383 146 405 174 c 1,25,-1
 420 134 l 1,26,27
 394 80 394 80 366.5 48.5 c 128,-1,28
 339 17 339 17 304 2.5 c 128,-1,29
 269 -12 269 -12 221 -12 c 0,30,31
 162 -12 162 -12 123.5 3 c 128,-1,32
 85 18 85 18 66.5 50.5 c 128,-1,33
 48 83 48 83 48 136 c 0,34,35
 48 183 48 183 63.5 217.5 c 128,-1,36
 79 252 79 252 118 277.5 c 128,-1,37
 157 303 157 303 227 323 c 128,-1,38
 297 343 297 343 405 360 c 1,10,-1
433 0 m 1,39,-1
 409 120 l 1,40,-1
 398 118 l 1,41,-1
 398 405 l 2,42,43
 398 420 398 420 393 432.5 c 128,-1,44
 388 445 388 445 370.5 452 c 128,-1,45
 353 459 353 459 313 459 c 0,46,47
 259 459 259 459 222.5 450.5 c 128,-1,48
 186 442 186 442 175 435 c 1,49,50
 169 437 169 437 169.5 448.5 c 128,-1,51
 170 460 170 460 177 474 c 128,-1,52
 184 488 184 488 196.5 498 c 128,-1,53
 209 508 209 508 229 506 c 1,54,-1
 229 377 l 1,55,-1
 77 377 l 1,56,-1
 77 523 l 1,57,58
 93 532 93 532 127 545.5 c 128,-1,59
 161 559 161 559 211.5 570 c 128,-1,60
 262 581 262 581 329 581 c 0,61,62
 390 581 390 581 437 570.5 c 128,-1,63
 484 560 484 560 516 539.5 c 128,-1,64
 548 519 548 519 564 488 c 128,-1,65
 580 457 580 457 580 415 c 2,66,-1
 580 153 l 2,67,68
 580 142 580 142 585.5 135.5 c 128,-1,69
 591 129 591 129 602 125.5 c 128,-1,70
 613 122 613 122 630 118 c 2,71,-1
 639 116 l 1,72,-1
 639 0 l 1,73,-1
 433 0 l 1,39,-1
EndSplineSet
Substitution2: "'ss06' Style Set 6 lookup 66 subtable" acaron.alt
EndChar

StartChar: adblgrave
Encoding: 513 513 334
Width: 667
GlyphClass: 1
Flags: W
LayerCount: 2
Fore
SplineSet
468 798 m 2,0,-1
 498 681 l 1,1,-1
 497 641 l 1,2,-1
 430 641 l 1,3,-1
 352 711 l 2,4,5
 325 738 325 738 309 759 c 128,-1,6
 293 780 293 780 293 811 c 0,7,8
 293 844 293 844 313 864.5 c 128,-1,9
 333 885 333 885 372 885 c 0,10,11
 415 885 415 885 436.5 860 c 128,-1,12
 458 835 458 835 468 798 c 2,0,-1
242 798 m 2,13,-1
 271 681 l 1,14,-1
 271 641 l 1,15,-1
 204 641 l 1,16,-1
 126 711 l 2,17,18
 99 738 99 738 83 759 c 128,-1,19
 67 780 67 780 67 811 c 0,20,21
 67 844 67 844 86.5 864.5 c 128,-1,22
 106 885 106 885 146 885 c 0,23,24
 189 885 189 885 210.5 860 c 128,-1,25
 232 835 232 835 242 798 c 2,13,-1
405 360 m 1,26,-1
 405 272 l 1,27,28
 352 262 352 262 317 252 c 128,-1,29
 282 242 282 242 262 232 c 128,-1,30
 242 222 242 222 232.5 211 c 128,-1,31
 223 200 223 200 220.5 187.5 c 128,-1,32
 218 175 218 175 218 161 c 0,33,34
 218 139 218 139 226 127 c 128,-1,35
 234 115 234 115 248 111 c 128,-1,36
 262 107 262 107 283 107 c 0,37,38
 301 107 301 107 321 112 c 128,-1,39
 341 117 341 117 362 131.5 c 128,-1,40
 383 146 383 146 405 174 c 1,41,-1
 420 134 l 1,42,43
 394 80 394 80 366.5 48.5 c 128,-1,44
 339 17 339 17 304 2.5 c 128,-1,45
 269 -12 269 -12 221 -12 c 0,46,47
 162 -12 162 -12 123.5 3 c 128,-1,48
 85 18 85 18 66.5 50.5 c 128,-1,49
 48 83 48 83 48 136 c 0,50,51
 48 183 48 183 63.5 217.5 c 128,-1,52
 79 252 79 252 118 277.5 c 128,-1,53
 157 303 157 303 227 323 c 128,-1,54
 297 343 297 343 405 360 c 1,26,-1
433 0 m 1,55,-1
 409 120 l 1,56,-1
 398 118 l 1,57,-1
 398 405 l 2,58,59
 398 420 398 420 393 432.5 c 128,-1,60
 388 445 388 445 370.5 452 c 128,-1,61
 353 459 353 459 313 459 c 0,62,63
 259 459 259 459 222.5 450.5 c 128,-1,64
 186 442 186 442 175 435 c 1,65,66
 169 437 169 437 169.5 448.5 c 128,-1,67
 170 460 170 460 177 474 c 128,-1,68
 184 488 184 488 196.5 498 c 128,-1,69
 209 508 209 508 229 506 c 1,70,-1
 229 377 l 1,71,-1
 77 377 l 1,72,-1
 77 523 l 1,73,74
 93 532 93 532 127 545.5 c 128,-1,75
 161 559 161 559 211.5 570 c 128,-1,76
 262 581 262 581 329 581 c 0,77,78
 390 581 390 581 437 570.5 c 128,-1,79
 484 560 484 560 516 539.5 c 128,-1,80
 548 519 548 519 564 488 c 128,-1,81
 580 457 580 457 580 415 c 2,82,-1
 580 153 l 2,83,84
 580 142 580 142 585.5 135.5 c 128,-1,85
 591 129 591 129 602 125.5 c 128,-1,86
 613 122 613 122 630 118 c 2,87,-1
 639 116 l 1,88,-1
 639 0 l 1,89,-1
 433 0 l 1,55,-1
EndSplineSet
Substitution2: "'ss06' Style Set 6 lookup 66 subtable" adblgrave.alt
EndChar

StartChar: ainvertedbreve
Encoding: 515 515 335
Width: 667
GlyphClass: 1
Flags: W
LayerCount: 2
Fore
SplineSet
324 839 m 0,0,1
 251 839 251 839 204.5 817.5 c 128,-1,2
 158 796 158 796 137 751.5 c 128,-1,3
 116 707 116 707 116 637 c 1,4,-1
 229 637 l 1,5,6
 231 669 231 669 239 686 c 128,-1,7
 247 703 247 703 266.5 710.5 c 128,-1,8
 286 718 286 718 321 718 c 0,9,10
 357 718 357 718 376.5 710.5 c 128,-1,11
 396 703 396 703 404.5 686 c 128,-1,12
 413 669 413 669 414 637 c 1,13,-1
 532 637 l 1,14,15
 533 707 533 707 511.5 751.5 c 128,-1,16
 490 796 490 796 444 817.5 c 128,-1,17
 398 839 398 839 324 839 c 0,0,1
405 360 m 1,18,-1
 405 272 l 1,19,20
 352 262 352 262 317 252 c 128,-1,21
 282 242 282 242 262 232 c 128,-1,22
 242 222 242 222 232.5 211 c 128,-1,23
 223 200 223 200 220.5 187.5 c 128,-1,24
 218 175 218 175 218 161 c 0,25,26
 218 139 218 139 226 127 c 128,-1,27
 234 115 234 115 248 111 c 128,-1,28
 262 107 262 107 283 107 c 0,29,30
 301 107 301 107 321 112 c 128,-1,31
 341 117 341 117 362 131.5 c 128,-1,32
 383 146 383 146 405 174 c 1,33,-1
 420 134 l 1,34,35
 394 80 394 80 366.5 48.5 c 128,-1,36
 339 17 339 17 304 2.5 c 128,-1,37
 269 -12 269 -12 221 -12 c 0,38,39
 162 -12 162 -12 123.5 3 c 128,-1,40
 85 18 85 18 66.5 50.5 c 128,-1,41
 48 83 48 83 48 136 c 0,42,43
 48 183 48 183 63.5 217.5 c 128,-1,44
 79 252 79 252 118 277.5 c 128,-1,45
 157 303 157 303 227 323 c 128,-1,46
 297 343 297 343 405 360 c 1,18,-1
433 0 m 1,47,-1
 409 120 l 1,48,-1
 398 118 l 1,49,-1
 398 405 l 2,50,51
 398 420 398 420 393 432.5 c 128,-1,52
 388 445 388 445 370.5 452 c 128,-1,53
 353 459 353 459 313 459 c 0,54,55
 259 459 259 459 222.5 450.5 c 128,-1,56
 186 442 186 442 175 435 c 1,57,58
 169 437 169 437 169.5 448.5 c 128,-1,59
 170 460 170 460 177 474 c 128,-1,60
 184 488 184 488 196.5 498 c 128,-1,61
 209 508 209 508 229 506 c 1,62,-1
 229 377 l 1,63,-1
 77 377 l 1,64,-1
 77 523 l 1,65,66
 93 532 93 532 127 545.5 c 128,-1,67
 161 559 161 559 211.5 570 c 128,-1,68
 262 581 262 581 329 581 c 0,69,70
 390 581 390 581 437 570.5 c 128,-1,71
 484 560 484 560 516 539.5 c 128,-1,72
 548 519 548 519 564 488 c 128,-1,73
 580 457 580 457 580 415 c 2,74,-1
 580 153 l 2,75,76
 580 142 580 142 585.5 135.5 c 128,-1,77
 591 129 591 129 602 125.5 c 128,-1,78
 613 122 613 122 630 118 c 2,79,-1
 639 116 l 1,80,-1
 639 0 l 1,81,-1
 433 0 l 1,47,-1
EndSplineSet
Substitution2: "'ss06' Style Set 6 lookup 66 subtable" ainvertedbreve.alt
EndChar

StartChar: b
Encoding: 98 98 348
Width: 736
GlyphClass: 2
Flags: W
AnchorPoint: "Anchor-1" 349 0 basechar 0
AnchorPoint: "Anchor-0" 329 755 basechar 0
LayerCount: 2
Fore
SplineSet
443 -12 m 0,0,1
 382 -12 382 -12 339.5 10.5 c 128,-1,2
 297 33 297 33 269 75 c 128,-1,3
 241 117 241 117 222 174 c 1,4,-1
 231 209 l 1,5,6
 258 179 258 179 282 161 c 128,-1,7
 306 143 306 143 332 135.5 c 128,-1,8
 358 128 358 128 390 128 c 0,9,10
 420 128 420 128 441.5 137 c 128,-1,11
 463 146 463 146 477 165 c 128,-1,12
 491 184 491 184 498 215 c 128,-1,13
 505 246 505 246 505 290 c 0,14,15
 505 330 505 330 499.5 358 c 128,-1,16
 494 386 494 386 481.5 404 c 128,-1,17
 469 422 469 422 449 430.5 c 128,-1,18
 429 439 429 439 401 439 c 0,19,20
 369 439 369 439 342 431.5 c 128,-1,21
 315 424 315 424 288 402.5 c 128,-1,22
 261 381 261 381 230 340 c 1,23,-1
 229 388 l 1,24,25
 254 448 254 448 285 490.5 c 128,-1,26
 316 533 316 533 358 556.5 c 128,-1,27
 400 580 400 580 456 580 c 0,28,29
 537 580 537 580 590 543 c 128,-1,30
 643 506 643 506 669 441 c 128,-1,31
 695 376 695 376 695 290 c 256,32,33
 695 204 695 204 666 135.5 c 128,-1,34
 637 67 637 67 581 27.5 c 128,-1,35
 525 -12 525 -12 443 -12 c 0,0,1
84 630 m 2,36,37
 84 641 84 641 78.5 646.5 c 128,-1,38
 73 652 73 652 62 655.5 c 128,-1,39
 51 659 51 659 34 662 c 2,40,-1
 26 664 l 1,41,-1
 26 780 l 1,42,-1
 269 780 l 1,43,-1
 269 134 l 1,44,-1
 278 132 l 1,45,-1
 211 -19 l 1,46,-1
 84 -19 l 1,47,-1
 84 630 l 2,36,37
EndSplineSet
EndChar

StartChar: c
Encoding: 99 99 349
Width: 622
GlyphClass: 2
Flags: W
AnchorPoint: "Anchor-1" 344 0 basechar 0
AnchorPoint: "Anchor-0" 333 569 basechar 0
LayerCount: 2
Fore
SplineSet
378 115 m 0,0,1
 408 115 408 115 430 122.5 c 128,-1,2
 452 130 452 130 468.5 146.5 c 128,-1,3
 485 163 485 163 498 187 c 1,4,-1
 592 131 l 1,5,6
 574 85 574 85 539.5 53 c 128,-1,7
 505 21 505 21 458.5 4.5 c 128,-1,8
 412 -12 412 -12 355 -12 c 0,9,10
 259 -12 259 -12 188.5 20.5 c 128,-1,11
 118 53 118 53 79.5 119 c 128,-1,12
 41 185 41 185 41 285 c 0,13,14
 41 383 41 383 77.5 448.5 c 128,-1,15
 114 514 114 514 184.5 547 c 128,-1,16
 255 580 255 580 356 580 c 0,17,18
 411 580 411 580 454 574.5 c 128,-1,19
 497 569 497 569 526.5 562 c 128,-1,20
 556 555 556 555 571 549 c 1,21,-1
 571 336 l 1,22,-1
 423 336 l 1,23,-1
 423 521 l 1,24,25
 435 521 435 521 443.5 509.5 c 128,-1,26
 452 498 452 498 457 482 c 128,-1,27
 462 466 462 466 464.5 453 c 128,-1,28
 467 440 467 440 467 436 c 1,29,30
 448 445 448 445 423.5 450 c 128,-1,31
 399 455 399 455 364 455 c 0,32,33
 315 455 315 455 286 439.5 c 128,-1,34
 257 424 257 424 244 387 c 128,-1,35
 231 350 231 350 231 285 c 0,36,37
 231 233 231 233 238.5 200 c 128,-1,38
 246 167 246 167 263.5 148 c 128,-1,39
 281 129 281 129 309 122 c 128,-1,40
 337 115 337 115 378 115 c 0,0,1
EndSplineSet
EndChar

StartChar: ccaron
Encoding: 269 269 354
Width: 622
GlyphClass: 1
Flags: W
LayerCount: 2
Fore
SplineSet
279 638 m 1,0,-1
 400 638 l 1,1,-1
 553 820 l 1,2,-1
 553 869 l 1,3,-1
 472 869 l 1,4,-1
 306 745 l 1,5,-1
 382 746 l 1,6,-1
 211 869 l 1,7,-1
 126 869 l 1,8,-1
 126 820 l 1,9,-1
 279 638 l 1,0,-1
378 115 m 0,10,11
 408 115 408 115 430 122.5 c 128,-1,12
 452 130 452 130 468.5 146.5 c 128,-1,13
 485 163 485 163 498 187 c 1,14,-1
 592 131 l 1,15,16
 574 85 574 85 539.5 53 c 128,-1,17
 505 21 505 21 458.5 4.5 c 128,-1,18
 412 -12 412 -12 355 -12 c 0,19,20
 259 -12 259 -12 188.5 20.5 c 128,-1,21
 118 53 118 53 79.5 119 c 128,-1,22
 41 185 41 185 41 285 c 0,23,24
 41 383 41 383 77.5 448.5 c 128,-1,25
 114 514 114 514 184.5 547 c 128,-1,26
 255 580 255 580 356 580 c 0,27,28
 411 580 411 580 454 574.5 c 128,-1,29
 497 569 497 569 526.5 562 c 128,-1,30
 556 555 556 555 571 549 c 1,31,-1
 571 336 l 1,32,-1
 423 336 l 1,33,-1
 423 521 l 1,34,35
 435 521 435 521 443.5 509.5 c 128,-1,36
 452 498 452 498 457 482 c 128,-1,37
 462 466 462 466 464.5 453 c 128,-1,38
 467 440 467 440 467 436 c 1,39,40
 448 445 448 445 423.5 450 c 128,-1,41
 399 455 399 455 364 455 c 0,42,43
 315 455 315 455 286 439.5 c 128,-1,44
 257 424 257 424 244 387 c 128,-1,45
 231 350 231 350 231 285 c 0,46,47
 231 233 231 233 238.5 200 c 128,-1,48
 246 167 246 167 263.5 148 c 128,-1,49
 281 129 281 129 309 122 c 128,-1,50
 337 115 337 115 378 115 c 0,10,11
EndSplineSet
EndChar

StartChar: d
Encoding: 100 100 356
Width: 739
GlyphClass: 2
Flags: W
AnchorPoint: "Anchor-2" 700 735 basechar 0
AnchorPoint: "Anchor-1" 345 0 basechar 0
LayerCount: 2
Fore
SplineSet
652 147 m 2,0,1
 652 132 652 132 665 126.5 c 128,-1,2
 678 121 678 121 702 115 c 2,3,-1
 711 113 l 1,4,-1
 711 0 l 1,5,-1
 507 0 l 1,6,-1
 480 131 l 1,7,-1
 467 115 l 1,8,-1
 467 630 l 2,9,10
 467 641 467 641 460.5 646 c 128,-1,11
 454 651 454 651 442 654.5 c 128,-1,12
 430 658 430 658 413 662 c 2,13,-1
 405 664 l 1,14,-1
 405 780 l 1,15,-1
 652 780 l 1,16,-1
 652 147 l 2,0,1
292 580 m 0,17,18
 345 580 345 580 385.5 557 c 128,-1,19
 426 534 426 534 456 492.5 c 128,-1,20
 486 451 486 451 507 394 c 1,21,-1
 505 372 l 1,22,23
 478 397 478 397 454 411.5 c 128,-1,24
 430 426 430 426 406 432.5 c 128,-1,25
 382 439 382 439 353 439 c 256,26,27
 324 439 324 439 301.5 431.5 c 128,-1,28
 279 424 279 424 263 405.5 c 128,-1,29
 247 387 247 387 239 355.5 c 128,-1,30
 231 324 231 324 231 278 c 0,31,32
 231 236 231 236 237 207.5 c 128,-1,33
 243 179 243 179 255 161.5 c 128,-1,34
 267 144 267 144 286.5 136 c 128,-1,35
 306 128 306 128 335 128 c 0,36,37
 367 128 367 128 394.5 136 c 128,-1,38
 422 144 422 144 449 164 c 128,-1,39
 476 184 476 184 506 221 c 1,40,-1
 507 180 l 1,41,42
 483 120 483 120 452 77 c 128,-1,43
 421 34 421 34 379 11 c 128,-1,44
 337 -12 337 -12 280 -12 c 0,45,46
 199 -12 199 -12 146 25 c 128,-1,47
 93 62 93 62 67 127.5 c 128,-1,48
 41 193 41 193 41 278 c 0,49,50
 41 364 41 364 70 432.5 c 128,-1,51
 99 501 99 501 155 540.5 c 128,-1,52
 211 580 211 580 292 580 c 0,17,18
EndSplineSet
EndChar

StartChar: e
Encoding: 101 101 360
Width: 653
GlyphClass: 2
Flags: W
AnchorPoint: "Anchor-2" 517 1 basechar 0
AnchorPoint: "Anchor-1" 358 0 basechar 0
AnchorPoint: "Anchor-0" 333 569 basechar 0
LayerCount: 2
Fore
SplineSet
217 280 m 0,0,1
 217 226 217 226 227.5 192.5 c 128,-1,2
 238 159 238 159 257.5 141.5 c 128,-1,3
 277 124 277 124 304.5 118 c 128,-1,4
 332 112 332 112 366 112 c 0,5,6
 404 112 404 112 430 116 c 128,-1,7
 456 120 456 120 476 133.5 c 128,-1,8
 496 147 496 147 517 172 c 1,9,-1
 610 112 l 1,10,11
 587 70 587 70 551.5 41.5 c 128,-1,12
 516 13 516 13 468 -0.5 c 128,-1,13
 420 -14 420 -14 357 -14 c 0,14,15
 258 -14 258 -14 187 18 c 128,-1,16
 116 50 116 50 78.5 115 c 128,-1,17
 41 180 41 180 41 279 c 0,18,19
 41 371 41 371 77 438.5 c 128,-1,20
 113 506 113 506 180 543.5 c 128,-1,21
 247 581 247 581 339 581 c 0,22,23
 413 581 413 581 465 560 c 128,-1,24
 517 539 517 539 549.5 497 c 128,-1,25
 582 455 582 455 597.5 391 c 128,-1,26
 613 327 613 327 614 241 c 1,27,-1
 142 241 l 1,28,-1
 142 332 l 1,29,-1
 465 332 l 1,30,-1
 449 296 l 1,31,32
 447 351 447 351 440.5 387 c 128,-1,33
 434 423 434 423 421 443 c 128,-1,34
 408 463 408 463 388.5 470.5 c 128,-1,35
 369 478 369 478 341 478 c 0,36,37
 312 478 312 478 289 469.5 c 128,-1,38
 266 461 266 461 250 438.5 c 128,-1,39
 234 416 234 416 225.5 377.5 c 128,-1,40
 217 339 217 339 217 280 c 0,0,1
EndSplineSet
EndChar

